G04 #@! TF.FileFunction,Copper,L1,Top,Signal*
%FSLAX46Y46*%
G04 Gerber Fmt 4.6, Leading zero omitted, Abs format (unit mm)*
G04 Created by KiCad (PCBNEW 4.0.1-3.201512221401+6198~38~ubuntu15.10.1-stable) date Sat 12 Nov 2016 04:44:46 AM PST*
%MOMM*%
G01*
G04 APERTURE LIST*
%ADD10C,0.100000*%
%ADD11R,2.000000X1.600000*%
%ADD12R,1.600000X2.000000*%
%ADD13R,3.500120X3.500120*%
%ADD14C,1.699260*%
%ADD15R,1.699260X1.699260*%
%ADD16C,3.810000*%
%ADD17R,1.524000X1.524000*%
%ADD18C,1.524000*%
%ADD19C,3.048000*%
%ADD20R,2.032000X1.727200*%
%ADD21O,2.032000X1.727200*%
%ADD22R,1.727200X2.032000*%
%ADD23O,1.727200X2.032000*%
%ADD24R,1.727200X1.727200*%
%ADD25O,1.727200X1.727200*%
%ADD26R,0.800100X0.800100*%
%ADD27R,1.700000X2.000000*%
%ADD28R,2.000000X1.700000*%
%ADD29C,1.998980*%
%ADD30R,1.998980X1.998980*%
%ADD31R,2.500000X2.000000*%
%ADD32R,2.000000X2.500000*%
%ADD33R,1.000000X1.600000*%
%ADD34C,0.600000*%
%ADD35C,1.420000*%
%ADD36C,0.250000*%
%ADD37C,0.254000*%
G04 APERTURE END LIST*
D10*
D11*
X126270000Y-129595000D03*
X122270000Y-129595000D03*
D12*
X133180000Y-154205000D03*
X133180000Y-150205000D03*
X136615000Y-110470000D03*
X136615000Y-106470000D03*
D11*
X110385000Y-153360000D03*
X106385000Y-153360000D03*
X142000000Y-153325000D03*
X146000000Y-153325000D03*
D13*
X112479860Y-86695000D03*
X118479340Y-86695000D03*
X115479600Y-81996000D03*
D14*
X136250460Y-121755480D03*
D15*
X136250460Y-131915480D03*
D14*
X133165460Y-120315480D03*
D15*
X133165460Y-130475480D03*
D16*
X99873000Y-170306000D03*
X99873000Y-137032000D03*
D17*
X101270000Y-144017000D03*
D18*
X101270000Y-146811000D03*
X101270000Y-149478000D03*
X101270000Y-152272000D03*
X101270000Y-155066000D03*
X101270000Y-157733000D03*
X101270000Y-160527000D03*
X101270000Y-163194000D03*
X98476000Y-145414000D03*
X98476000Y-148208000D03*
X98476000Y-150875000D03*
X98476000Y-153669000D03*
X98476000Y-156336000D03*
X98476000Y-159130000D03*
X98476000Y-161924000D03*
D16*
X99873000Y-129972000D03*
X99873000Y-82982000D03*
D17*
X101270000Y-89840000D03*
D18*
X101270000Y-92634000D03*
X101270000Y-95428000D03*
X101270000Y-98222000D03*
X101270000Y-101016000D03*
X101270000Y-103683000D03*
X101270000Y-106477000D03*
X101270000Y-109271000D03*
X101270000Y-112065000D03*
X101270000Y-114859000D03*
X101270000Y-117526000D03*
X101270000Y-120320000D03*
X101270000Y-123114000D03*
X98476000Y-91237000D03*
X98476000Y-94031000D03*
X98476000Y-96825000D03*
X98476000Y-99492000D03*
X98476000Y-102286000D03*
X98476000Y-105080000D03*
X98476000Y-107874000D03*
X98476000Y-110668000D03*
X98476000Y-113335000D03*
X98476000Y-116129000D03*
X98476000Y-118923000D03*
X98476000Y-121717000D03*
D19*
X145570000Y-96060000D03*
X148110000Y-93520000D03*
X148110000Y-98600000D03*
X143030000Y-98600000D03*
X143030000Y-93520000D03*
X145410000Y-128070000D03*
X147950000Y-125530000D03*
X147950000Y-130610000D03*
X142870000Y-130610000D03*
X142870000Y-125530000D03*
X145455000Y-163290000D03*
X147995000Y-160750000D03*
X147995000Y-165830000D03*
X142915000Y-165830000D03*
X142915000Y-160750000D03*
D20*
X119325000Y-134160000D03*
D21*
X119325000Y-136700000D03*
X119325000Y-139240000D03*
D22*
X114325000Y-148115000D03*
D23*
X116865000Y-148115000D03*
X119405000Y-148115000D03*
D20*
X128810000Y-146020000D03*
D21*
X128810000Y-143480000D03*
X128810000Y-140940000D03*
D20*
X134325000Y-99240000D03*
D21*
X134325000Y-96700000D03*
X134325000Y-94160000D03*
D24*
X111105000Y-119815000D03*
D25*
X113645000Y-119815000D03*
X111105000Y-122355000D03*
X113645000Y-122355000D03*
X111105000Y-124895000D03*
X113645000Y-124895000D03*
X111105000Y-127435000D03*
X113645000Y-127435000D03*
D24*
X110725000Y-101030000D03*
D25*
X113265000Y-101030000D03*
X110725000Y-103570000D03*
X113265000Y-103570000D03*
X110725000Y-106110000D03*
X113265000Y-106110000D03*
X110725000Y-108650000D03*
X113265000Y-108650000D03*
D24*
X121260000Y-117785000D03*
D25*
X123800000Y-117785000D03*
X121260000Y-120325000D03*
X123800000Y-120325000D03*
X121260000Y-122865000D03*
X123800000Y-122865000D03*
X121260000Y-125405000D03*
X123800000Y-125405000D03*
D26*
X112694000Y-134690760D03*
X114594000Y-134690760D03*
X113644000Y-132691780D03*
X114850000Y-141255240D03*
X112950000Y-141255240D03*
X113900000Y-143254220D03*
D27*
X108255000Y-133780000D03*
X108255000Y-137780000D03*
X107920000Y-147385000D03*
X107920000Y-143385000D03*
D28*
X120180000Y-111695000D03*
X124180000Y-111695000D03*
X119990000Y-107125000D03*
X123990000Y-107125000D03*
X120115000Y-102300000D03*
X124115000Y-102300000D03*
X120115000Y-97605000D03*
X124115000Y-97605000D03*
D29*
X129995000Y-126785000D03*
X129995000Y-134405000D03*
X133215000Y-115960000D03*
X133215000Y-108340000D03*
X142250000Y-145255000D03*
X149870000Y-145255000D03*
X142055000Y-148760000D03*
X149675000Y-148760000D03*
D18*
X128365000Y-165710000D03*
X130905000Y-163170000D03*
X125825000Y-163170000D03*
X114305000Y-165975000D03*
X116845000Y-163435000D03*
X111765000Y-163435000D03*
D30*
X147555000Y-110435000D03*
X147555000Y-114245000D03*
X142475000Y-110435000D03*
X142475000Y-114245000D03*
D12*
X145410000Y-136135000D03*
X145410000Y-140135000D03*
D31*
X128490000Y-121735000D03*
X128490000Y-117735000D03*
X128195000Y-110875000D03*
X128195000Y-106875000D03*
D11*
X118675000Y-143355000D03*
X122675000Y-143355000D03*
D31*
X106180000Y-163350000D03*
X106180000Y-159350000D03*
X123830000Y-139160000D03*
X123830000Y-135160000D03*
D12*
X107665000Y-88715000D03*
X107665000Y-84715000D03*
D32*
X110510000Y-94830000D03*
X114510000Y-94830000D03*
D31*
X127750000Y-98465000D03*
X127750000Y-94465000D03*
D33*
X116915000Y-153825000D03*
X119915000Y-153825000D03*
D34*
X136585000Y-104240000D03*
X128400000Y-115605000D03*
X120040000Y-129595000D03*
X123815000Y-133130000D03*
X107665000Y-82155000D03*
X116460000Y-94690000D03*
X127750000Y-91935000D03*
X128195000Y-104265000D03*
X112940000Y-139715000D03*
X108155000Y-139715000D03*
X105990000Y-143100000D03*
X124590000Y-143370000D03*
X133180000Y-148035000D03*
X104495000Y-153360000D03*
X121225000Y-153825000D03*
X106180000Y-157295000D03*
X114345900Y-135606700D03*
D35*
X129080000Y-126785000D02*
X126270000Y-129595000D01*
X129995000Y-126785000D02*
X129080000Y-126785000D01*
X136250000Y-115455000D02*
X136250000Y-119206000D01*
X137440000Y-114265000D02*
X136250000Y-115455000D01*
X140036000Y-114265000D02*
X137440000Y-114265000D01*
X140056000Y-114245000D02*
X140036000Y-114265000D01*
X142475000Y-114245000D02*
X140056000Y-114245000D01*
X133400000Y-123380000D02*
X129995000Y-126785000D01*
X136340000Y-123380000D02*
X133400000Y-123380000D01*
X136340000Y-123047000D02*
X136340000Y-123380000D01*
X136250000Y-122957000D02*
X136340000Y-123047000D01*
X136250000Y-119206000D02*
X136250000Y-122957000D01*
D36*
X136250500Y-119206500D02*
X136250500Y-121755500D01*
X136250000Y-119206000D02*
X136250500Y-119206500D01*
X136615000Y-104270000D02*
X136585000Y-104240000D01*
X136615000Y-106470000D02*
X136615000Y-104270000D01*
X128490000Y-115695000D02*
X128400000Y-115605000D01*
X128490000Y-117735000D02*
X128490000Y-115695000D01*
X122270000Y-129595000D02*
X120040000Y-129595000D01*
X123815000Y-133895000D02*
X123815000Y-133130000D01*
X123830000Y-133910000D02*
X123815000Y-133895000D01*
X123830000Y-135160000D02*
X123830000Y-133910000D01*
X107665000Y-84715000D02*
X107665000Y-82155000D01*
X115900000Y-94690000D02*
X116460000Y-94690000D01*
X115760000Y-94830000D02*
X115900000Y-94690000D01*
X114510000Y-94830000D02*
X115760000Y-94830000D01*
X127750000Y-94465000D02*
X127750000Y-91935000D01*
X128195000Y-106875000D02*
X128195000Y-104265000D01*
X108255000Y-139615000D02*
X108155000Y-139715000D01*
X108255000Y-137780000D02*
X108255000Y-139615000D01*
X106535000Y-143100000D02*
X105990000Y-143100000D01*
X106820000Y-143385000D02*
X106535000Y-143100000D01*
X107920000Y-143385000D02*
X106820000Y-143385000D01*
X123940000Y-143370000D02*
X124590000Y-143370000D01*
X123925000Y-143355000D02*
X123940000Y-143370000D01*
X122675000Y-143355000D02*
X123925000Y-143355000D01*
X133180000Y-150205000D02*
X133180000Y-148035000D01*
X106385000Y-153360000D02*
X104495000Y-153360000D01*
X119915000Y-153825000D02*
X121225000Y-153825000D01*
X106180000Y-159350000D02*
X106180000Y-157295000D01*
X112940000Y-140595000D02*
X112940000Y-139715000D01*
X112950000Y-140605000D02*
X112940000Y-140595000D01*
X112950000Y-141255000D02*
X112950000Y-140605000D01*
X112950000Y-141255000D02*
X112950000Y-141255200D01*
X114594000Y-134690800D02*
X114594000Y-135416100D01*
X114536500Y-135416100D02*
X114594000Y-135416100D01*
X114345900Y-135606700D02*
X114536500Y-135416100D01*
X128365000Y-157894700D02*
X132054700Y-154205000D01*
X128365000Y-165710000D02*
X128365000Y-157894700D01*
X133180000Y-154205000D02*
X132054700Y-154205000D01*
D35*
X133215000Y-114170000D02*
X133215000Y-115960000D01*
X133165000Y-114120000D02*
X133215000Y-114170000D01*
X136615000Y-110670000D02*
X133165000Y-114120000D01*
X136615000Y-110470000D02*
X136615000Y-110670000D01*
X136650000Y-110435000D02*
X136615000Y-110470000D01*
X142475000Y-110435000D02*
X136650000Y-110435000D01*
X133165500Y-120314500D02*
X133165000Y-120315000D01*
X133215000Y-120265000D02*
X133165500Y-120314500D01*
X133215000Y-115960000D02*
X133215000Y-120265000D01*
D36*
X133165500Y-120314500D02*
X133165500Y-120315500D01*
X110385000Y-153360000D02*
X110385000Y-154485300D01*
X110385000Y-164687300D02*
X110385000Y-154485300D01*
X113017300Y-164687300D02*
X110385000Y-164687300D01*
X114305000Y-165975000D02*
X113017300Y-164687300D01*
X101411400Y-159130000D02*
X98476000Y-159130000D01*
X102523200Y-160241800D02*
X101411400Y-159130000D01*
X102523200Y-162411400D02*
X102523200Y-160241800D01*
X104799100Y-164687300D02*
X102523200Y-162411400D01*
X110385000Y-164687300D02*
X104799100Y-164687300D01*
D35*
X142055000Y-148760000D02*
X142055000Y-153270000D01*
X142055000Y-153270000D02*
X142000000Y-153325000D01*
X142250000Y-145255000D02*
X142250000Y-148565000D01*
X142250000Y-148565000D02*
X142055000Y-148760000D01*
X146000000Y-153325000D02*
X145455000Y-153870000D01*
X145455000Y-153870000D02*
X145455000Y-163290000D01*
D36*
X128195000Y-110875000D02*
X126619700Y-110875000D01*
X126619700Y-110875000D02*
X125799700Y-111695000D01*
X132208700Y-98465000D02*
X132983700Y-99240000D01*
X127750000Y-98465000D02*
X132208700Y-98465000D01*
X134325000Y-99240000D02*
X132983700Y-99240000D01*
X123830000Y-139160000D02*
X123042400Y-139160000D01*
X128810000Y-146020000D02*
X128810000Y-144831100D01*
X128407200Y-120409700D02*
X128490000Y-120409700D01*
X125799700Y-117802200D02*
X128407200Y-120409700D01*
X125799700Y-111695000D02*
X125799700Y-117802200D01*
X123912800Y-137834700D02*
X123830000Y-137834700D01*
X125405400Y-136342100D02*
X123912800Y-137834700D01*
X125405400Y-131689100D02*
X125405400Y-136342100D01*
X124944600Y-131228300D02*
X125405400Y-131689100D01*
X124944600Y-126605700D02*
X124944600Y-131228300D01*
X128490000Y-123060300D02*
X124944600Y-126605700D01*
X128490000Y-121735000D02*
X128490000Y-123060300D01*
X123830000Y-139160000D02*
X123830000Y-137834700D01*
X128490000Y-121735000D02*
X128490000Y-120409700D01*
X124115000Y-102300000D02*
X124115000Y-103475300D01*
X123990000Y-103600300D02*
X124115000Y-103475300D01*
X123990000Y-107125000D02*
X123990000Y-103600300D01*
X127750000Y-98465000D02*
X126174700Y-98465000D01*
X124777700Y-97605000D02*
X124777700Y-97965700D01*
X124115000Y-98628400D02*
X124777700Y-97965700D01*
X124115000Y-102300000D02*
X124115000Y-98628400D01*
X125675400Y-97965700D02*
X126174700Y-98465000D01*
X124777700Y-97965700D02*
X125675400Y-97965700D01*
X110404500Y-87100800D02*
X108790300Y-88715000D01*
X110404500Y-86695000D02*
X110404500Y-87100800D01*
X107665000Y-88715000D02*
X108790300Y-88715000D01*
X112479900Y-86695000D02*
X110404500Y-86695000D01*
X110510000Y-90434700D02*
X108790300Y-88715000D01*
X110510000Y-94830000D02*
X110510000Y-90434700D01*
X116915000Y-153825000D02*
X116915000Y-153262300D01*
X118675000Y-143355000D02*
X118675000Y-144480300D01*
X118675000Y-143355000D02*
X118675000Y-142229700D01*
X123042400Y-139160000D02*
X123042400Y-141012300D01*
X124485000Y-141012300D02*
X123042400Y-141012300D01*
X128303800Y-144831100D02*
X124485000Y-141012300D01*
X128810000Y-144831100D02*
X128303800Y-144831100D01*
X119892400Y-141012300D02*
X118675000Y-142229700D01*
X123042400Y-141012300D02*
X119892400Y-141012300D01*
X124115000Y-97605000D02*
X124446400Y-97605000D01*
X124446400Y-97605000D02*
X124777700Y-97605000D01*
X111835300Y-94912800D02*
X111835300Y-94830000D01*
X113327900Y-96405400D02*
X111835300Y-94912800D01*
X123246800Y-96405400D02*
X113327900Y-96405400D01*
X124446400Y-97605000D02*
X123246800Y-96405400D01*
X110510000Y-94830000D02*
X111835300Y-94830000D01*
X118135000Y-145020300D02*
X118675000Y-144480300D01*
X118135000Y-150478100D02*
X118135000Y-145020300D01*
X116378500Y-152234600D02*
X118135000Y-150478100D01*
X116915000Y-152771100D02*
X116378500Y-152234600D01*
X116915000Y-153262300D02*
X116915000Y-152771100D01*
X104683700Y-152234600D02*
X101794700Y-155123600D01*
X116378500Y-152234600D02*
X104683700Y-152234600D01*
X103832700Y-157161700D02*
X101794700Y-155123600D01*
X103832700Y-159760200D02*
X103832700Y-157161700D01*
X106097200Y-162024700D02*
X103832700Y-159760200D01*
X106180000Y-162024700D02*
X106097200Y-162024700D01*
X101737000Y-155066000D02*
X101270000Y-155066000D01*
X101794700Y-155123600D02*
X101737000Y-155066000D01*
X106180000Y-163350000D02*
X106180000Y-162024700D01*
X125799700Y-111695000D02*
X124180000Y-111695000D01*
X124180000Y-108490300D02*
X123990000Y-108300300D01*
X124180000Y-111695000D02*
X124180000Y-108490300D01*
X123990000Y-107125000D02*
X123990000Y-108300300D01*
X136250500Y-141924600D02*
X136250500Y-131915500D01*
X125825000Y-152350100D02*
X136250500Y-141924600D01*
X125825000Y-163170000D02*
X125825000Y-152350100D01*
X105921700Y-148208000D02*
X98476000Y-148208000D01*
X106744700Y-147385000D02*
X105921700Y-148208000D01*
X107920000Y-147385000D02*
X106744700Y-147385000D01*
X109095300Y-146406500D02*
X109095300Y-147385000D01*
X114124600Y-141377200D02*
X109095300Y-146406500D01*
X114124600Y-141255200D02*
X114124600Y-141377200D01*
X107920000Y-147385000D02*
X109095300Y-147385000D01*
X110341100Y-134690800D02*
X109430300Y-133780000D01*
X112694000Y-134690800D02*
X110341100Y-134690800D01*
X108255000Y-133780000D02*
X109430300Y-133780000D01*
X114850000Y-141255200D02*
X114487300Y-141255200D01*
X114487300Y-141255200D02*
X114124600Y-141255200D01*
X112694000Y-136230000D02*
X112694000Y-134690800D01*
X114487300Y-138023300D02*
X112694000Y-136230000D01*
X114487300Y-141255200D02*
X114487300Y-138023300D01*
X122449000Y-110759300D02*
X119990000Y-108300300D01*
X122449000Y-118838800D02*
X122449000Y-110759300D01*
X122151700Y-119136100D02*
X122449000Y-118838800D01*
X121260000Y-119136100D02*
X122151700Y-119136100D01*
X119990000Y-107180500D02*
X119990000Y-108300300D01*
X119990000Y-107180500D02*
X119990000Y-107125000D01*
X117649700Y-106110000D02*
X113265000Y-106110000D01*
X118664700Y-107125000D02*
X117649700Y-106110000D01*
X119990000Y-107125000D02*
X118664700Y-107125000D01*
X102357300Y-92014600D02*
X101270000Y-90927300D01*
X102357300Y-94905100D02*
X102357300Y-92014600D01*
X109833300Y-102381100D02*
X102357300Y-94905100D01*
X110725000Y-102381100D02*
X109833300Y-102381100D01*
X110725000Y-103570000D02*
X110725000Y-102381100D01*
X101270000Y-89840000D02*
X101270000Y-90927300D01*
X121260000Y-120325000D02*
X121260000Y-119228500D01*
X121260000Y-119228500D02*
X121260000Y-119136100D01*
X120500400Y-119228500D02*
X114833900Y-124895000D01*
X121260000Y-119228500D02*
X120500400Y-119228500D01*
X113645000Y-124895000D02*
X114833900Y-124895000D01*
X115723900Y-102300000D02*
X114453900Y-103570000D01*
X120115000Y-102300000D02*
X115723900Y-102300000D01*
X113265000Y-103570000D02*
X114453900Y-103570000D01*
X117878900Y-97605000D02*
X114453900Y-101030000D01*
X120115000Y-97605000D02*
X117878900Y-97605000D01*
X113265000Y-101030000D02*
X114453900Y-101030000D01*
X110725000Y-115706100D02*
X113645000Y-118626100D01*
X110725000Y-108650000D02*
X110725000Y-115706100D01*
X113645000Y-119815000D02*
X113645000Y-118626100D01*
X112076100Y-102381100D02*
X110725000Y-101030000D01*
X112076100Y-106643800D02*
X112076100Y-102381100D01*
X112893400Y-107461100D02*
X112076100Y-106643800D01*
X113265000Y-107461100D02*
X112893400Y-107461100D01*
X113265000Y-108650000D02*
X113265000Y-107461100D01*
X120180000Y-111695000D02*
X120180000Y-112282600D01*
X113265000Y-108650000D02*
X114453900Y-108650000D01*
X118086500Y-112282600D02*
X114453900Y-108650000D01*
X120180000Y-112282600D02*
X118086500Y-112282600D01*
X120180000Y-115516100D02*
X121260000Y-116596100D01*
X120180000Y-112282600D02*
X120180000Y-115516100D01*
X111105000Y-119815000D02*
X111105000Y-121003900D01*
X113645000Y-127435000D02*
X113645000Y-126246100D01*
X121260000Y-117785000D02*
X121260000Y-117190500D01*
X121260000Y-117190500D02*
X121260000Y-116596100D01*
X113090000Y-121166000D02*
X112364400Y-121891600D01*
X117284500Y-121166000D02*
X113090000Y-121166000D01*
X121260000Y-117190500D02*
X117284500Y-121166000D01*
X111476600Y-121003900D02*
X112364400Y-121891600D01*
X111105000Y-121003900D02*
X111476600Y-121003900D01*
X113273400Y-126246100D02*
X113645000Y-126246100D01*
X112456100Y-125428800D02*
X113273400Y-126246100D01*
X112456100Y-121983400D02*
X112456100Y-125428800D01*
X112364400Y-121891600D02*
X112456100Y-121983400D01*
D35*
X147555000Y-104160000D02*
X147555000Y-110435000D01*
X145505000Y-102110000D02*
X147555000Y-104160000D01*
X145505000Y-98280300D02*
X145505000Y-102110000D01*
X145570000Y-98215300D02*
X145505000Y-98280300D01*
X145570000Y-96060000D02*
X145570000Y-98215300D01*
D36*
X142915000Y-160750000D02*
X142915000Y-165830000D01*
X119045700Y-132691800D02*
X119325000Y-132971100D01*
X113644000Y-132691800D02*
X119045700Y-132691800D01*
X119325000Y-134160000D02*
X119325000Y-132971100D01*
X114325000Y-144404600D02*
X114325000Y-148115000D01*
X113900000Y-143979600D02*
X114325000Y-144404600D01*
X113900000Y-143254200D02*
X113900000Y-143979600D01*
D35*
X145410000Y-136135000D02*
X145410000Y-128070000D01*
X145295000Y-121765000D02*
X145410000Y-121880000D01*
X145410000Y-121880000D02*
X145410000Y-128070000D01*
X147555000Y-119505000D02*
X145295000Y-121765000D01*
X147555000Y-114245000D02*
X147555000Y-119505000D01*
X145410000Y-140135000D02*
X145410000Y-140795000D01*
X145410000Y-140795000D02*
X149870000Y-145255000D01*
D37*
G36*
X137707812Y-79882395D02*
X137703015Y-101762711D01*
X130703662Y-106514929D01*
X130668404Y-106550962D01*
X130648000Y-106620000D01*
X130648000Y-112344624D01*
X130583429Y-122184202D01*
X130375000Y-122332549D01*
X130375000Y-122020750D01*
X130216250Y-121862000D01*
X128617000Y-121862000D01*
X128617000Y-123211250D01*
X128775750Y-123370000D01*
X128917370Y-123370000D01*
X125178944Y-126030782D01*
X125213885Y-125978489D01*
X125327959Y-125405000D01*
X125213885Y-124831511D01*
X124889029Y-124345330D01*
X124574248Y-124135000D01*
X124889029Y-123924670D01*
X125213885Y-123438489D01*
X125327959Y-122865000D01*
X125213885Y-122291511D01*
X125032969Y-122020750D01*
X126605000Y-122020750D01*
X126605000Y-122861309D01*
X126701673Y-123094698D01*
X126880301Y-123273327D01*
X127113690Y-123370000D01*
X128204250Y-123370000D01*
X128363000Y-123211250D01*
X128363000Y-121862000D01*
X126763750Y-121862000D01*
X126605000Y-122020750D01*
X125032969Y-122020750D01*
X124889029Y-121805330D01*
X124574248Y-121595000D01*
X124889029Y-121384670D01*
X125213885Y-120898489D01*
X125271529Y-120608691D01*
X126605000Y-120608691D01*
X126605000Y-121449250D01*
X126763750Y-121608000D01*
X128363000Y-121608000D01*
X128363000Y-120258750D01*
X128617000Y-120258750D01*
X128617000Y-121608000D01*
X130216250Y-121608000D01*
X130375000Y-121449250D01*
X130375000Y-120608691D01*
X130278327Y-120375302D01*
X130099699Y-120196673D01*
X129866310Y-120100000D01*
X128775750Y-120100000D01*
X128617000Y-120258750D01*
X128363000Y-120258750D01*
X128204250Y-120100000D01*
X127113690Y-120100000D01*
X126880301Y-120196673D01*
X126701673Y-120375302D01*
X126605000Y-120608691D01*
X125271529Y-120608691D01*
X125327959Y-120325000D01*
X125213885Y-119751511D01*
X124889029Y-119265330D01*
X124574248Y-119055000D01*
X124889029Y-118844670D01*
X125213885Y-118358489D01*
X125327959Y-117785000D01*
X125213885Y-117211511D01*
X124895491Y-116735000D01*
X126592560Y-116735000D01*
X126592560Y-118735000D01*
X126636838Y-118970317D01*
X126775910Y-119186441D01*
X126988110Y-119331431D01*
X127240000Y-119382440D01*
X129740000Y-119382440D01*
X129975317Y-119338162D01*
X130191441Y-119199090D01*
X130336431Y-118986890D01*
X130387440Y-118735000D01*
X130387440Y-116735000D01*
X130343162Y-116499683D01*
X130204090Y-116283559D01*
X129991890Y-116138569D01*
X129740000Y-116087560D01*
X129250000Y-116087560D01*
X129250000Y-115996111D01*
X129334838Y-115791799D01*
X129335162Y-115419833D01*
X129193117Y-115076057D01*
X128930327Y-114812808D01*
X128586799Y-114670162D01*
X128214833Y-114669838D01*
X127871057Y-114811883D01*
X127607808Y-115074673D01*
X127465162Y-115418201D01*
X127464838Y-115790167D01*
X127587718Y-116087560D01*
X127240000Y-116087560D01*
X127004683Y-116131838D01*
X126788559Y-116270910D01*
X126643569Y-116483110D01*
X126592560Y-116735000D01*
X124895491Y-116735000D01*
X124889029Y-116725330D01*
X124402848Y-116400474D01*
X123829359Y-116286400D01*
X123770641Y-116286400D01*
X123209000Y-116398117D01*
X123209000Y-113180000D01*
X123894250Y-113180000D01*
X124053000Y-113021250D01*
X124053000Y-111822000D01*
X124307000Y-111822000D01*
X124307000Y-113021250D01*
X124465750Y-113180000D01*
X125306309Y-113180000D01*
X125539698Y-113083327D01*
X125718327Y-112904699D01*
X125815000Y-112671310D01*
X125815000Y-111980750D01*
X125656250Y-111822000D01*
X124307000Y-111822000D01*
X124053000Y-111822000D01*
X124033000Y-111822000D01*
X124033000Y-111568000D01*
X124053000Y-111568000D01*
X124053000Y-110368750D01*
X124307000Y-110368750D01*
X124307000Y-111568000D01*
X125656250Y-111568000D01*
X125815000Y-111409250D01*
X125815000Y-111160750D01*
X126310000Y-111160750D01*
X126310000Y-112001309D01*
X126406673Y-112234698D01*
X126585301Y-112413327D01*
X126818690Y-112510000D01*
X127909250Y-112510000D01*
X128068000Y-112351250D01*
X128068000Y-111002000D01*
X128322000Y-111002000D01*
X128322000Y-112351250D01*
X128480750Y-112510000D01*
X129571310Y-112510000D01*
X129804699Y-112413327D01*
X129983327Y-112234698D01*
X130080000Y-112001309D01*
X130080000Y-111160750D01*
X129921250Y-111002000D01*
X128322000Y-111002000D01*
X128068000Y-111002000D01*
X126468750Y-111002000D01*
X126310000Y-111160750D01*
X125815000Y-111160750D01*
X125815000Y-110718690D01*
X125718327Y-110485301D01*
X125539698Y-110306673D01*
X125306309Y-110210000D01*
X124465750Y-110210000D01*
X124307000Y-110368750D01*
X124053000Y-110368750D01*
X123894250Y-110210000D01*
X123053691Y-110210000D01*
X122994760Y-110234410D01*
X122986401Y-110221899D01*
X122513193Y-109748691D01*
X126310000Y-109748691D01*
X126310000Y-110589250D01*
X126468750Y-110748000D01*
X128068000Y-110748000D01*
X128068000Y-109398750D01*
X128322000Y-109398750D01*
X128322000Y-110748000D01*
X129921250Y-110748000D01*
X130080000Y-110589250D01*
X130080000Y-109748691D01*
X129983327Y-109515302D01*
X129804699Y-109336673D01*
X129571310Y-109240000D01*
X128480750Y-109240000D01*
X128322000Y-109398750D01*
X128068000Y-109398750D01*
X127909250Y-109240000D01*
X126818690Y-109240000D01*
X126585301Y-109336673D01*
X126406673Y-109515302D01*
X126310000Y-109748691D01*
X122513193Y-109748691D01*
X121296718Y-108532216D01*
X121441441Y-108439090D01*
X121586431Y-108226890D01*
X121637440Y-107975000D01*
X121637440Y-107410750D01*
X122355000Y-107410750D01*
X122355000Y-108101310D01*
X122451673Y-108334699D01*
X122630302Y-108513327D01*
X122863691Y-108610000D01*
X123704250Y-108610000D01*
X123863000Y-108451250D01*
X123863000Y-107252000D01*
X124117000Y-107252000D01*
X124117000Y-108451250D01*
X124275750Y-108610000D01*
X125116309Y-108610000D01*
X125349698Y-108513327D01*
X125528327Y-108334699D01*
X125625000Y-108101310D01*
X125625000Y-107410750D01*
X125466250Y-107252000D01*
X124117000Y-107252000D01*
X123863000Y-107252000D01*
X122513750Y-107252000D01*
X122355000Y-107410750D01*
X121637440Y-107410750D01*
X121637440Y-106275000D01*
X121613674Y-106148690D01*
X122355000Y-106148690D01*
X122355000Y-106839250D01*
X122513750Y-106998000D01*
X123863000Y-106998000D01*
X123863000Y-105798750D01*
X124117000Y-105798750D01*
X124117000Y-106998000D01*
X125466250Y-106998000D01*
X125625000Y-106839250D01*
X125625000Y-106148690D01*
X125528327Y-105915301D01*
X125488026Y-105875000D01*
X126297560Y-105875000D01*
X126297560Y-107875000D01*
X126341838Y-108110317D01*
X126480910Y-108326441D01*
X126693110Y-108471431D01*
X126945000Y-108522440D01*
X129445000Y-108522440D01*
X129680317Y-108478162D01*
X129896441Y-108339090D01*
X130041431Y-108126890D01*
X130092440Y-107875000D01*
X130092440Y-105875000D01*
X130048162Y-105639683D01*
X129909090Y-105423559D01*
X129696890Y-105278569D01*
X129445000Y-105227560D01*
X128955000Y-105227560D01*
X128955000Y-104827463D01*
X128987192Y-104795327D01*
X129129838Y-104451799D01*
X129130162Y-104079833D01*
X128988117Y-103736057D01*
X128725327Y-103472808D01*
X128381799Y-103330162D01*
X128009833Y-103329838D01*
X127666057Y-103471883D01*
X127402808Y-103734673D01*
X127260162Y-104078201D01*
X127259838Y-104450167D01*
X127401883Y-104793943D01*
X127435000Y-104827118D01*
X127435000Y-105227560D01*
X126945000Y-105227560D01*
X126709683Y-105271838D01*
X126493559Y-105410910D01*
X126348569Y-105623110D01*
X126297560Y-105875000D01*
X125488026Y-105875000D01*
X125349698Y-105736673D01*
X125116309Y-105640000D01*
X124275750Y-105640000D01*
X124117000Y-105798750D01*
X123863000Y-105798750D01*
X123704250Y-105640000D01*
X122863691Y-105640000D01*
X122630302Y-105736673D01*
X122451673Y-105915301D01*
X122355000Y-106148690D01*
X121613674Y-106148690D01*
X121593162Y-106039683D01*
X121454090Y-105823559D01*
X121241890Y-105678569D01*
X120990000Y-105627560D01*
X118990000Y-105627560D01*
X118754683Y-105671838D01*
X118538559Y-105810910D01*
X118492631Y-105878129D01*
X118187101Y-105572599D01*
X117940539Y-105407852D01*
X117649700Y-105350000D01*
X114554262Y-105350000D01*
X114354029Y-105050330D01*
X114039248Y-104840000D01*
X114354029Y-104629670D01*
X114569646Y-104306976D01*
X114744739Y-104272148D01*
X114991301Y-104107401D01*
X116038702Y-103060000D01*
X118467560Y-103060000D01*
X118467560Y-103150000D01*
X118511838Y-103385317D01*
X118650910Y-103601441D01*
X118863110Y-103746431D01*
X119115000Y-103797440D01*
X121115000Y-103797440D01*
X121350317Y-103753162D01*
X121566441Y-103614090D01*
X121711431Y-103401890D01*
X121762440Y-103150000D01*
X121762440Y-102585750D01*
X122480000Y-102585750D01*
X122480000Y-103276310D01*
X122576673Y-103509699D01*
X122755302Y-103688327D01*
X122988691Y-103785000D01*
X123829250Y-103785000D01*
X123988000Y-103626250D01*
X123988000Y-102427000D01*
X124242000Y-102427000D01*
X124242000Y-103626250D01*
X124400750Y-103785000D01*
X125241309Y-103785000D01*
X125474698Y-103688327D01*
X125653327Y-103509699D01*
X125750000Y-103276310D01*
X125750000Y-102585750D01*
X125591250Y-102427000D01*
X124242000Y-102427000D01*
X123988000Y-102427000D01*
X122638750Y-102427000D01*
X122480000Y-102585750D01*
X121762440Y-102585750D01*
X121762440Y-101450000D01*
X121738674Y-101323690D01*
X122480000Y-101323690D01*
X122480000Y-102014250D01*
X122638750Y-102173000D01*
X123988000Y-102173000D01*
X123988000Y-100973750D01*
X124242000Y-100973750D01*
X124242000Y-102173000D01*
X125591250Y-102173000D01*
X125750000Y-102014250D01*
X125750000Y-101323690D01*
X125653327Y-101090301D01*
X125474698Y-100911673D01*
X125241309Y-100815000D01*
X124400750Y-100815000D01*
X124242000Y-100973750D01*
X123988000Y-100973750D01*
X123829250Y-100815000D01*
X122988691Y-100815000D01*
X122755302Y-100911673D01*
X122576673Y-101090301D01*
X122480000Y-101323690D01*
X121738674Y-101323690D01*
X121718162Y-101214683D01*
X121579090Y-100998559D01*
X121366890Y-100853569D01*
X121115000Y-100802560D01*
X119115000Y-100802560D01*
X118879683Y-100846838D01*
X118663559Y-100985910D01*
X118518569Y-101198110D01*
X118467560Y-101450000D01*
X118467560Y-101540000D01*
X115723900Y-101540000D01*
X115433060Y-101597852D01*
X115186499Y-101762599D01*
X114387971Y-102561127D01*
X114354029Y-102510330D01*
X114039248Y-102300000D01*
X114354029Y-102089670D01*
X114569646Y-101766976D01*
X114744739Y-101732148D01*
X114991301Y-101567401D01*
X118193702Y-98365000D01*
X118467560Y-98365000D01*
X118467560Y-98455000D01*
X118511838Y-98690317D01*
X118650910Y-98906441D01*
X118863110Y-99051431D01*
X119115000Y-99102440D01*
X121115000Y-99102440D01*
X121350317Y-99058162D01*
X121566441Y-98919090D01*
X121711431Y-98706890D01*
X121762440Y-98455000D01*
X121762440Y-97890750D01*
X122480000Y-97890750D01*
X122480000Y-98581310D01*
X122576673Y-98814699D01*
X122755302Y-98993327D01*
X122988691Y-99090000D01*
X123829250Y-99090000D01*
X123988000Y-98931250D01*
X123988000Y-97732000D01*
X124242000Y-97732000D01*
X124242000Y-98931250D01*
X124400750Y-99090000D01*
X125241309Y-99090000D01*
X125474698Y-98993327D01*
X125653327Y-98814699D01*
X125679815Y-98750750D01*
X125865000Y-98750750D01*
X125865000Y-99591309D01*
X125961673Y-99824698D01*
X126140301Y-100003327D01*
X126373690Y-100100000D01*
X127464250Y-100100000D01*
X127623000Y-99941250D01*
X127623000Y-98592000D01*
X127877000Y-98592000D01*
X127877000Y-99941250D01*
X128035750Y-100100000D01*
X129126310Y-100100000D01*
X129359699Y-100003327D01*
X129538327Y-99824698D01*
X129635000Y-99591309D01*
X129635000Y-99525750D01*
X132674000Y-99525750D01*
X132674000Y-100229910D01*
X132770673Y-100463299D01*
X132949302Y-100641927D01*
X133182691Y-100738600D01*
X134039250Y-100738600D01*
X134198000Y-100579850D01*
X134198000Y-99367000D01*
X134452000Y-99367000D01*
X134452000Y-100579850D01*
X134610750Y-100738600D01*
X135467309Y-100738600D01*
X135700698Y-100641927D01*
X135879327Y-100463299D01*
X135976000Y-100229910D01*
X135976000Y-99525750D01*
X135817250Y-99367000D01*
X134452000Y-99367000D01*
X134198000Y-99367000D01*
X132832750Y-99367000D01*
X132674000Y-99525750D01*
X129635000Y-99525750D01*
X129635000Y-98750750D01*
X129476250Y-98592000D01*
X127877000Y-98592000D01*
X127623000Y-98592000D01*
X126023750Y-98592000D01*
X125865000Y-98750750D01*
X125679815Y-98750750D01*
X125750000Y-98581310D01*
X125750000Y-97890750D01*
X125591250Y-97732000D01*
X124242000Y-97732000D01*
X123988000Y-97732000D01*
X122638750Y-97732000D01*
X122480000Y-97890750D01*
X121762440Y-97890750D01*
X121762440Y-96755000D01*
X121738674Y-96628690D01*
X122480000Y-96628690D01*
X122480000Y-97319250D01*
X122638750Y-97478000D01*
X123988000Y-97478000D01*
X123988000Y-96278750D01*
X124242000Y-96278750D01*
X124242000Y-97478000D01*
X125591250Y-97478000D01*
X125730559Y-97338691D01*
X125865000Y-97338691D01*
X125865000Y-98179250D01*
X126023750Y-98338000D01*
X127623000Y-98338000D01*
X127623000Y-96988750D01*
X127877000Y-96988750D01*
X127877000Y-98338000D01*
X129476250Y-98338000D01*
X129635000Y-98179250D01*
X129635000Y-97338691D01*
X129538327Y-97105302D01*
X129359699Y-96926673D01*
X129126310Y-96830000D01*
X128035750Y-96830000D01*
X127877000Y-96988750D01*
X127623000Y-96988750D01*
X127464250Y-96830000D01*
X126373690Y-96830000D01*
X126140301Y-96926673D01*
X125961673Y-97105302D01*
X125865000Y-97338691D01*
X125730559Y-97338691D01*
X125750000Y-97319250D01*
X125750000Y-96628690D01*
X125653327Y-96395301D01*
X125474698Y-96216673D01*
X125241309Y-96120000D01*
X124400750Y-96120000D01*
X124242000Y-96278750D01*
X123988000Y-96278750D01*
X123829250Y-96120000D01*
X122988691Y-96120000D01*
X122755302Y-96216673D01*
X122576673Y-96395301D01*
X122480000Y-96628690D01*
X121738674Y-96628690D01*
X121718162Y-96519683D01*
X121579090Y-96303559D01*
X121366890Y-96158569D01*
X121115000Y-96107560D01*
X119115000Y-96107560D01*
X118879683Y-96151838D01*
X118663559Y-96290910D01*
X118518569Y-96503110D01*
X118467560Y-96755000D01*
X118467560Y-96845000D01*
X117878900Y-96845000D01*
X117636314Y-96893254D01*
X117588060Y-96902852D01*
X117341499Y-97067599D01*
X114387971Y-100021127D01*
X114354029Y-99970330D01*
X113867848Y-99645474D01*
X113294359Y-99531400D01*
X113235641Y-99531400D01*
X112662152Y-99645474D01*
X112196558Y-99956574D01*
X112191762Y-99931083D01*
X112052690Y-99714959D01*
X111840490Y-99569969D01*
X111588600Y-99518960D01*
X109861400Y-99518960D01*
X109626083Y-99563238D01*
X109409959Y-99702310D01*
X109264969Y-99914510D01*
X109213960Y-100166400D01*
X109213960Y-100686958D01*
X103642752Y-95115750D01*
X108875000Y-95115750D01*
X108875000Y-96206310D01*
X108971673Y-96439699D01*
X109150302Y-96618327D01*
X109383691Y-96715000D01*
X110224250Y-96715000D01*
X110383000Y-96556250D01*
X110383000Y-94957000D01*
X110637000Y-94957000D01*
X110637000Y-96556250D01*
X110795750Y-96715000D01*
X111636309Y-96715000D01*
X111869698Y-96618327D01*
X112048327Y-96439699D01*
X112145000Y-96206310D01*
X112145000Y-95115750D01*
X111986250Y-94957000D01*
X110637000Y-94957000D01*
X110383000Y-94957000D01*
X109033750Y-94957000D01*
X108875000Y-95115750D01*
X103642752Y-95115750D01*
X103117300Y-94590298D01*
X103117300Y-93453690D01*
X108875000Y-93453690D01*
X108875000Y-94544250D01*
X109033750Y-94703000D01*
X110383000Y-94703000D01*
X110383000Y-93103750D01*
X110637000Y-93103750D01*
X110637000Y-94703000D01*
X111986250Y-94703000D01*
X112145000Y-94544250D01*
X112145000Y-93580000D01*
X112862560Y-93580000D01*
X112862560Y-96080000D01*
X112906838Y-96315317D01*
X113045910Y-96531441D01*
X113258110Y-96676431D01*
X113510000Y-96727440D01*
X115510000Y-96727440D01*
X115745317Y-96683162D01*
X115961441Y-96544090D01*
X116106431Y-96331890D01*
X116157440Y-96080000D01*
X116157440Y-95576770D01*
X116273201Y-95624838D01*
X116645167Y-95625162D01*
X116988943Y-95483117D01*
X117252192Y-95220327D01*
X117394838Y-94876799D01*
X117395162Y-94504833D01*
X117253117Y-94161057D01*
X116990327Y-93897808D01*
X116646799Y-93755162D01*
X116274833Y-93754838D01*
X116157440Y-93803344D01*
X116157440Y-93580000D01*
X116135802Y-93465000D01*
X125852560Y-93465000D01*
X125852560Y-95465000D01*
X125896838Y-95700317D01*
X126035910Y-95916441D01*
X126248110Y-96061431D01*
X126500000Y-96112440D01*
X129000000Y-96112440D01*
X129235317Y-96068162D01*
X129451441Y-95929090D01*
X129596431Y-95716890D01*
X129647440Y-95465000D01*
X129647440Y-94160000D01*
X132641655Y-94160000D01*
X132755729Y-94733489D01*
X133080585Y-95219670D01*
X133395366Y-95430000D01*
X133080585Y-95640330D01*
X132755729Y-96126511D01*
X132641655Y-96700000D01*
X132755729Y-97273489D01*
X133080585Y-97759670D01*
X133102780Y-97774500D01*
X132949302Y-97838073D01*
X132770673Y-98016701D01*
X132674000Y-98250090D01*
X132674000Y-98954250D01*
X132832750Y-99113000D01*
X134198000Y-99113000D01*
X134198000Y-99093000D01*
X134452000Y-99093000D01*
X134452000Y-99113000D01*
X135817250Y-99113000D01*
X135976000Y-98954250D01*
X135976000Y-98250090D01*
X135879327Y-98016701D01*
X135700698Y-97838073D01*
X135547220Y-97774500D01*
X135569415Y-97759670D01*
X135894271Y-97273489D01*
X136008345Y-96700000D01*
X135894271Y-96126511D01*
X135569415Y-95640330D01*
X135254634Y-95430000D01*
X135569415Y-95219670D01*
X135894271Y-94733489D01*
X136008345Y-94160000D01*
X135894271Y-93586511D01*
X135569415Y-93100330D01*
X135083234Y-92775474D01*
X134509745Y-92661400D01*
X134140255Y-92661400D01*
X133566766Y-92775474D01*
X133080585Y-93100330D01*
X132755729Y-93586511D01*
X132641655Y-94160000D01*
X129647440Y-94160000D01*
X129647440Y-93465000D01*
X129603162Y-93229683D01*
X129464090Y-93013559D01*
X129251890Y-92868569D01*
X129000000Y-92817560D01*
X128510000Y-92817560D01*
X128510000Y-92497463D01*
X128542192Y-92465327D01*
X128684838Y-92121799D01*
X128685162Y-91749833D01*
X128543117Y-91406057D01*
X128280327Y-91142808D01*
X127936799Y-91000162D01*
X127564833Y-90999838D01*
X127221057Y-91141883D01*
X126957808Y-91404673D01*
X126815162Y-91748201D01*
X126814838Y-92120167D01*
X126956883Y-92463943D01*
X126990000Y-92497118D01*
X126990000Y-92817560D01*
X126500000Y-92817560D01*
X126264683Y-92861838D01*
X126048559Y-93000910D01*
X125903569Y-93213110D01*
X125852560Y-93465000D01*
X116135802Y-93465000D01*
X116113162Y-93344683D01*
X115974090Y-93128559D01*
X115761890Y-92983569D01*
X115510000Y-92932560D01*
X113510000Y-92932560D01*
X113274683Y-92976838D01*
X113058559Y-93115910D01*
X112913569Y-93328110D01*
X112862560Y-93580000D01*
X112145000Y-93580000D01*
X112145000Y-93453690D01*
X112048327Y-93220301D01*
X111869698Y-93041673D01*
X111636309Y-92945000D01*
X110795750Y-92945000D01*
X110637000Y-93103750D01*
X110383000Y-93103750D01*
X110224250Y-92945000D01*
X109383691Y-92945000D01*
X109150302Y-93041673D01*
X108971673Y-93220301D01*
X108875000Y-93453690D01*
X103117300Y-93453690D01*
X103117300Y-92014600D01*
X103064634Y-91749833D01*
X103059448Y-91723760D01*
X102894701Y-91477199D01*
X102483502Y-91066000D01*
X102628431Y-90853890D01*
X102679440Y-90602000D01*
X102679440Y-89078000D01*
X102664905Y-89000750D01*
X106230000Y-89000750D01*
X106230000Y-89841309D01*
X106326673Y-90074698D01*
X106505301Y-90253327D01*
X106738690Y-90350000D01*
X107379250Y-90350000D01*
X107538000Y-90191250D01*
X107538000Y-88842000D01*
X107792000Y-88842000D01*
X107792000Y-90191250D01*
X107950750Y-90350000D01*
X108591310Y-90350000D01*
X108824699Y-90253327D01*
X109003327Y-90074698D01*
X109100000Y-89841309D01*
X109100000Y-89000750D01*
X108941250Y-88842000D01*
X107792000Y-88842000D01*
X107538000Y-88842000D01*
X106388750Y-88842000D01*
X106230000Y-89000750D01*
X102664905Y-89000750D01*
X102635162Y-88842683D01*
X102496090Y-88626559D01*
X102283890Y-88481569D01*
X102032000Y-88430560D01*
X100508000Y-88430560D01*
X100272683Y-88474838D01*
X100056559Y-88613910D01*
X99911569Y-88826110D01*
X99860560Y-89078000D01*
X99860560Y-90602000D01*
X99904838Y-90837317D01*
X100043910Y-91053441D01*
X100256110Y-91198431D01*
X100508000Y-91249440D01*
X100588767Y-91249440D01*
X100669656Y-91370501D01*
X100479697Y-91448990D01*
X100086371Y-91841630D01*
X99873243Y-92354900D01*
X99872758Y-92910661D01*
X100084990Y-93424303D01*
X100477630Y-93817629D01*
X100990900Y-94030757D01*
X100993336Y-94030759D01*
X100479697Y-94242990D01*
X100086371Y-94635630D01*
X99873243Y-95148900D01*
X99872758Y-95704661D01*
X100084990Y-96218303D01*
X100477630Y-96611629D01*
X100990900Y-96824757D01*
X100993336Y-96824759D01*
X100479697Y-97036990D01*
X100086371Y-97429630D01*
X99873243Y-97942900D01*
X99872758Y-98498661D01*
X100084990Y-99012303D01*
X100477630Y-99405629D01*
X100990900Y-99618757D01*
X100993336Y-99618759D01*
X100479697Y-99830990D01*
X100086371Y-100223630D01*
X99873243Y-100736900D01*
X99872758Y-101292661D01*
X100084990Y-101806303D01*
X100477630Y-102199629D01*
X100838815Y-102349606D01*
X100479697Y-102497990D01*
X100086371Y-102890630D01*
X99873243Y-103403900D01*
X99872758Y-103959661D01*
X100084990Y-104473303D01*
X100477630Y-104866629D01*
X100990900Y-105079757D01*
X100993336Y-105079759D01*
X100479697Y-105291990D01*
X100086371Y-105684630D01*
X99873243Y-106197900D01*
X99872758Y-106753661D01*
X100084990Y-107267303D01*
X100477630Y-107660629D01*
X100990900Y-107873757D01*
X100993336Y-107873759D01*
X100479697Y-108085990D01*
X100086371Y-108478630D01*
X99873243Y-108991900D01*
X99872758Y-109547661D01*
X100084990Y-110061303D01*
X100477630Y-110454629D01*
X100990900Y-110667757D01*
X100993336Y-110667759D01*
X100479697Y-110879990D01*
X100086371Y-111272630D01*
X99873243Y-111785900D01*
X99872758Y-112341661D01*
X100084990Y-112855303D01*
X100477630Y-113248629D01*
X100990900Y-113461757D01*
X100993336Y-113461759D01*
X100479697Y-113673990D01*
X100086371Y-114066630D01*
X99873243Y-114579900D01*
X99872758Y-115135661D01*
X100084990Y-115649303D01*
X100477630Y-116042629D01*
X100838815Y-116192606D01*
X100479697Y-116340990D01*
X100086371Y-116733630D01*
X99873243Y-117246900D01*
X99872758Y-117802661D01*
X100084990Y-118316303D01*
X100477630Y-118709629D01*
X100990900Y-118922757D01*
X100993336Y-118922759D01*
X100479697Y-119134990D01*
X100086371Y-119527630D01*
X99873243Y-120040900D01*
X99872758Y-120596661D01*
X100084990Y-121110303D01*
X100477630Y-121503629D01*
X100990900Y-121716757D01*
X100993336Y-121716759D01*
X100479697Y-121928990D01*
X100086371Y-122321630D01*
X99873243Y-122834900D01*
X99872758Y-123390661D01*
X100084990Y-123904303D01*
X100477630Y-124297629D01*
X100990900Y-124510757D01*
X101546661Y-124511242D01*
X102060303Y-124299010D01*
X102453629Y-123906370D01*
X102666757Y-123393100D01*
X102667242Y-122837339D01*
X102455010Y-122323697D01*
X102062370Y-121930371D01*
X101549100Y-121717243D01*
X101546664Y-121717241D01*
X102060303Y-121505010D01*
X102453629Y-121112370D01*
X102666757Y-120599100D01*
X102667242Y-120043339D01*
X102455010Y-119529697D01*
X102062370Y-119136371D01*
X101549100Y-118923243D01*
X101546664Y-118923241D01*
X102060303Y-118711010D01*
X102453629Y-118318370D01*
X102666757Y-117805100D01*
X102667242Y-117249339D01*
X102455010Y-116735697D01*
X102062370Y-116342371D01*
X101701185Y-116192394D01*
X102060303Y-116044010D01*
X102453629Y-115651370D01*
X102666757Y-115138100D01*
X102667242Y-114582339D01*
X102455010Y-114068697D01*
X102062370Y-113675371D01*
X101549100Y-113462243D01*
X101546664Y-113462241D01*
X102060303Y-113250010D01*
X102453629Y-112857370D01*
X102666757Y-112344100D01*
X102667242Y-111788339D01*
X102455010Y-111274697D01*
X102062370Y-110881371D01*
X101549100Y-110668243D01*
X101546664Y-110668241D01*
X102060303Y-110456010D01*
X102453629Y-110063370D01*
X102666757Y-109550100D01*
X102667242Y-108994339D01*
X102455010Y-108480697D01*
X102062370Y-108087371D01*
X101549100Y-107874243D01*
X101546664Y-107874241D01*
X102060303Y-107662010D01*
X102453629Y-107269370D01*
X102666757Y-106756100D01*
X102667242Y-106200339D01*
X102455010Y-105686697D01*
X102062370Y-105293371D01*
X101549100Y-105080243D01*
X101546664Y-105080241D01*
X102060303Y-104868010D01*
X102453629Y-104475370D01*
X102666757Y-103962100D01*
X102667242Y-103406339D01*
X102455010Y-102892697D01*
X102062370Y-102499371D01*
X101701185Y-102349394D01*
X102060303Y-102201010D01*
X102453629Y-101808370D01*
X102666757Y-101295100D01*
X102667242Y-100739339D01*
X102455010Y-100225697D01*
X102062370Y-99832371D01*
X101549100Y-99619243D01*
X101546664Y-99619241D01*
X102060303Y-99407010D01*
X102453629Y-99014370D01*
X102666757Y-98501100D01*
X102667242Y-97945339D01*
X102455010Y-97431697D01*
X102062370Y-97038371D01*
X101549100Y-96825243D01*
X101546664Y-96825241D01*
X102060303Y-96613010D01*
X102453629Y-96220370D01*
X102495920Y-96118522D01*
X109295899Y-102918501D01*
X109342454Y-102949608D01*
X109311115Y-102996511D01*
X109197041Y-103570000D01*
X109311115Y-104143489D01*
X109635971Y-104629670D01*
X109950752Y-104840000D01*
X109635971Y-105050330D01*
X109311115Y-105536511D01*
X109197041Y-106110000D01*
X109311115Y-106683489D01*
X109635971Y-107169670D01*
X109950752Y-107380000D01*
X109635971Y-107590330D01*
X109311115Y-108076511D01*
X109197041Y-108650000D01*
X109311115Y-109223489D01*
X109635971Y-109709670D01*
X109965000Y-109929520D01*
X109965000Y-115706100D01*
X110022852Y-115996939D01*
X110187599Y-116243501D01*
X112641967Y-118697869D01*
X112576558Y-118741574D01*
X112571762Y-118716083D01*
X112432690Y-118499959D01*
X112220490Y-118354969D01*
X111968600Y-118303960D01*
X110241400Y-118303960D01*
X110006083Y-118348238D01*
X109789959Y-118487310D01*
X109644969Y-118699510D01*
X109593960Y-118951400D01*
X109593960Y-120678600D01*
X109638238Y-120913917D01*
X109777310Y-121130041D01*
X109989510Y-121275031D01*
X110033131Y-121283864D01*
X110015971Y-121295330D01*
X109691115Y-121781511D01*
X109577041Y-122355000D01*
X109691115Y-122928489D01*
X110015971Y-123414670D01*
X110330752Y-123625000D01*
X110015971Y-123835330D01*
X109691115Y-124321511D01*
X109577041Y-124895000D01*
X109691115Y-125468489D01*
X110015971Y-125954670D01*
X110330752Y-126165000D01*
X110015971Y-126375330D01*
X109691115Y-126861511D01*
X109577041Y-127435000D01*
X109691115Y-128008489D01*
X110015971Y-128494670D01*
X110502152Y-128819526D01*
X111075641Y-128933600D01*
X111134359Y-128933600D01*
X111707848Y-128819526D01*
X112194029Y-128494670D01*
X112375000Y-128223828D01*
X112555971Y-128494670D01*
X113042152Y-128819526D01*
X113615641Y-128933600D01*
X113674359Y-128933600D01*
X114247848Y-128819526D01*
X114734029Y-128494670D01*
X115058885Y-128008489D01*
X115172959Y-127435000D01*
X115058885Y-126861511D01*
X114734029Y-126375330D01*
X114419248Y-126165000D01*
X114734029Y-125954670D01*
X114949646Y-125631976D01*
X115124739Y-125597148D01*
X115371301Y-125432401D01*
X119869786Y-120933916D01*
X120170971Y-121384670D01*
X120485752Y-121595000D01*
X120170971Y-121805330D01*
X119846115Y-122291511D01*
X119732041Y-122865000D01*
X119846115Y-123438489D01*
X120170971Y-123924670D01*
X120485752Y-124135000D01*
X120170971Y-124345330D01*
X119846115Y-124831511D01*
X119732041Y-125405000D01*
X119846115Y-125978489D01*
X120170971Y-126464670D01*
X120657152Y-126789526D01*
X121230641Y-126903600D01*
X121289359Y-126903600D01*
X121862848Y-126789526D01*
X122349029Y-126464670D01*
X122530000Y-126193828D01*
X122710971Y-126464670D01*
X123197152Y-126789526D01*
X123770641Y-126903600D01*
X123829359Y-126903600D01*
X124000437Y-126869570D01*
X123906357Y-126936531D01*
X123871904Y-126973334D01*
X123853103Y-127045124D01*
X124062062Y-132220185D01*
X124001799Y-132195162D01*
X123629833Y-132194838D01*
X123286057Y-132336883D01*
X123022808Y-132599673D01*
X122880162Y-132943201D01*
X122879838Y-133315167D01*
X122961399Y-133512560D01*
X122580000Y-133512560D01*
X122344683Y-133556838D01*
X122128559Y-133695910D01*
X121983569Y-133908110D01*
X121932560Y-134160000D01*
X121932560Y-136160000D01*
X121976838Y-136395317D01*
X122115910Y-136611441D01*
X122328110Y-136756431D01*
X122580000Y-136807440D01*
X125080000Y-136807440D01*
X125315317Y-136763162D01*
X125531441Y-136624090D01*
X125676431Y-136411890D01*
X125727440Y-136160000D01*
X125727440Y-134160000D01*
X125683162Y-133924683D01*
X125544090Y-133708559D01*
X125331890Y-133563569D01*
X125080000Y-133512560D01*
X124668551Y-133512560D01*
X124749838Y-133316799D01*
X124750127Y-132984621D01*
X129200353Y-132964820D01*
X129070345Y-133018538D01*
X128610154Y-133477927D01*
X128360794Y-134078453D01*
X128360226Y-134728694D01*
X128608538Y-135329655D01*
X129067927Y-135789846D01*
X129668453Y-136039206D01*
X130318694Y-136039774D01*
X130919655Y-135791462D01*
X131379846Y-135332073D01*
X131629206Y-134731547D01*
X131629774Y-134081306D01*
X131381462Y-133480345D01*
X130922073Y-133020154D01*
X130771973Y-132957827D01*
X134786291Y-132939966D01*
X134797668Y-133000427D01*
X134936740Y-133216551D01*
X135148940Y-133361541D01*
X135400830Y-133412550D01*
X135490500Y-133412550D01*
X135490500Y-141609797D01*
X130461000Y-146639298D01*
X130461000Y-146305750D01*
X130302250Y-146147000D01*
X128937000Y-146147000D01*
X128937000Y-147359850D01*
X129095750Y-147518600D01*
X129581698Y-147518600D01*
X125287599Y-151812699D01*
X125122852Y-152059261D01*
X125065000Y-152350100D01*
X125065000Y-161972469D01*
X125034697Y-161984990D01*
X124641371Y-162377630D01*
X124428243Y-162890900D01*
X124427758Y-163446661D01*
X124639990Y-163960303D01*
X125032630Y-164353629D01*
X125545900Y-164566757D01*
X126101661Y-164567242D01*
X126615303Y-164355010D01*
X127008629Y-163962370D01*
X127221757Y-163449100D01*
X127222242Y-162893339D01*
X127010010Y-162379697D01*
X126617370Y-161986371D01*
X126585000Y-161972930D01*
X126585000Y-152664902D01*
X130044902Y-149205000D01*
X131732560Y-149205000D01*
X131732560Y-151205000D01*
X131776838Y-151440317D01*
X131915910Y-151656441D01*
X132128110Y-151801431D01*
X132380000Y-151852440D01*
X133980000Y-151852440D01*
X134215317Y-151808162D01*
X134431441Y-151669090D01*
X134576431Y-151456890D01*
X134627440Y-151205000D01*
X134627440Y-149205000D01*
X134583162Y-148969683D01*
X134444090Y-148753559D01*
X134231890Y-148608569D01*
X133980000Y-148557560D01*
X133975417Y-148557560D01*
X134114838Y-148221799D01*
X134115162Y-147849833D01*
X133973117Y-147506057D01*
X133710327Y-147242808D01*
X133366799Y-147100162D01*
X132994833Y-147099838D01*
X132651057Y-147241883D01*
X132387808Y-147504673D01*
X132245162Y-147848201D01*
X132244838Y-148220167D01*
X132384246Y-148557560D01*
X132380000Y-148557560D01*
X132144683Y-148601838D01*
X131928559Y-148740910D01*
X131783569Y-148953110D01*
X131732560Y-149205000D01*
X130044902Y-149205000D01*
X136787901Y-142462002D01*
X136928405Y-142251721D01*
X136952648Y-142215439D01*
X137010500Y-141924600D01*
X137010500Y-133412550D01*
X137100090Y-133412550D01*
X137335407Y-133368272D01*
X137551531Y-133229200D01*
X137570434Y-133201534D01*
X137313806Y-173403418D01*
X95710000Y-173541325D01*
X95710000Y-170809021D01*
X97332560Y-170809021D01*
X97718437Y-171742915D01*
X98432327Y-172458052D01*
X99365546Y-172845559D01*
X100376021Y-172846440D01*
X101309915Y-172460563D01*
X102025052Y-171746673D01*
X102412559Y-170813454D01*
X102413440Y-169802979D01*
X102027563Y-168869085D01*
X101313673Y-168153948D01*
X100380454Y-167766441D01*
X99369979Y-167765560D01*
X98436085Y-168151437D01*
X97720948Y-168865327D01*
X97333441Y-169798546D01*
X97332560Y-170809021D01*
X95710000Y-170809021D01*
X95710000Y-145690661D01*
X97078758Y-145690661D01*
X97290990Y-146204303D01*
X97683630Y-146597629D01*
X98196900Y-146810757D01*
X98199336Y-146810759D01*
X97685697Y-147022990D01*
X97292371Y-147415630D01*
X97079243Y-147928900D01*
X97078758Y-148484661D01*
X97290990Y-148998303D01*
X97683630Y-149391629D01*
X98044815Y-149541606D01*
X97685697Y-149689990D01*
X97292371Y-150082630D01*
X97079243Y-150595900D01*
X97078758Y-151151661D01*
X97290990Y-151665303D01*
X97683630Y-152058629D01*
X98196900Y-152271757D01*
X98199336Y-152271759D01*
X97685697Y-152483990D01*
X97292371Y-152876630D01*
X97079243Y-153389900D01*
X97078758Y-153945661D01*
X97290990Y-154459303D01*
X97683630Y-154852629D01*
X98044815Y-155002606D01*
X97685697Y-155150990D01*
X97292371Y-155543630D01*
X97079243Y-156056900D01*
X97078758Y-156612661D01*
X97290990Y-157126303D01*
X97683630Y-157519629D01*
X98196900Y-157732757D01*
X98199336Y-157732759D01*
X97685697Y-157944990D01*
X97292371Y-158337630D01*
X97079243Y-158850900D01*
X97078758Y-159406661D01*
X97290990Y-159920303D01*
X97683630Y-160313629D01*
X98196900Y-160526757D01*
X98199336Y-160526759D01*
X97685697Y-160738990D01*
X97292371Y-161131630D01*
X97079243Y-161644900D01*
X97078758Y-162200661D01*
X97290990Y-162714303D01*
X97683630Y-163107629D01*
X98196900Y-163320757D01*
X98752661Y-163321242D01*
X99266303Y-163109010D01*
X99659629Y-162716370D01*
X99872757Y-162203100D01*
X99873242Y-161647339D01*
X99661010Y-161133697D01*
X99268370Y-160740371D01*
X98755100Y-160527243D01*
X98752664Y-160527241D01*
X99266303Y-160315010D01*
X99659629Y-159922370D01*
X99673070Y-159890000D01*
X100021856Y-159890000D01*
X99873243Y-160247900D01*
X99872758Y-160803661D01*
X100084990Y-161317303D01*
X100477630Y-161710629D01*
X100838815Y-161860606D01*
X100479697Y-162008990D01*
X100086371Y-162401630D01*
X99873243Y-162914900D01*
X99872758Y-163470661D01*
X100084990Y-163984303D01*
X100477630Y-164377629D01*
X100990900Y-164590757D01*
X101546661Y-164591242D01*
X102060303Y-164379010D01*
X102453629Y-163986370D01*
X102620793Y-163583795D01*
X104261699Y-165224701D01*
X104508261Y-165389448D01*
X104799100Y-165447300D01*
X112702498Y-165447300D01*
X112920817Y-165665619D01*
X112908243Y-165695900D01*
X112907758Y-166251661D01*
X113119990Y-166765303D01*
X113512630Y-167158629D01*
X114025900Y-167371757D01*
X114581661Y-167372242D01*
X115095303Y-167160010D01*
X115488629Y-166767370D01*
X115701757Y-166254100D01*
X115701990Y-165986661D01*
X126967758Y-165986661D01*
X127179990Y-166500303D01*
X127572630Y-166893629D01*
X128085900Y-167106757D01*
X128641661Y-167107242D01*
X129155303Y-166895010D01*
X129548629Y-166502370D01*
X129761757Y-165989100D01*
X129762242Y-165433339D01*
X129550010Y-164919697D01*
X129157370Y-164526371D01*
X129125000Y-164512930D01*
X129125000Y-163446661D01*
X129507758Y-163446661D01*
X129719990Y-163960303D01*
X130112630Y-164353629D01*
X130625900Y-164566757D01*
X131181661Y-164567242D01*
X131695303Y-164355010D01*
X132088629Y-163962370D01*
X132301757Y-163449100D01*
X132302242Y-162893339D01*
X132090010Y-162379697D01*
X131697370Y-161986371D01*
X131184100Y-161773243D01*
X130628339Y-161772758D01*
X130114697Y-161984990D01*
X129721371Y-162377630D01*
X129508243Y-162890900D01*
X129507758Y-163446661D01*
X129125000Y-163446661D01*
X129125000Y-158209502D01*
X131822784Y-155511718D01*
X131915910Y-155656441D01*
X132128110Y-155801431D01*
X132380000Y-155852440D01*
X133980000Y-155852440D01*
X134215317Y-155808162D01*
X134431441Y-155669090D01*
X134576431Y-155456890D01*
X134627440Y-155205000D01*
X134627440Y-153205000D01*
X134583162Y-152969683D01*
X134444090Y-152753559D01*
X134231890Y-152608569D01*
X133980000Y-152557560D01*
X132380000Y-152557560D01*
X132144683Y-152601838D01*
X131928559Y-152740910D01*
X131783569Y-152953110D01*
X131732560Y-153205000D01*
X131732560Y-153523767D01*
X131517299Y-153667599D01*
X127827599Y-157357299D01*
X127662852Y-157603861D01*
X127605000Y-157894700D01*
X127605000Y-164512469D01*
X127574697Y-164524990D01*
X127181371Y-164917630D01*
X126968243Y-165430900D01*
X126967758Y-165986661D01*
X115701990Y-165986661D01*
X115702242Y-165698339D01*
X115490010Y-165184697D01*
X115097370Y-164791371D01*
X114584100Y-164578243D01*
X114028339Y-164577758D01*
X113995945Y-164591143D01*
X113554701Y-164149899D01*
X113308139Y-163985152D01*
X113068962Y-163937576D01*
X113161757Y-163714100D01*
X113161759Y-163711661D01*
X115447758Y-163711661D01*
X115659990Y-164225303D01*
X116052630Y-164618629D01*
X116565900Y-164831757D01*
X117121661Y-164832242D01*
X117635303Y-164620010D01*
X118028629Y-164227370D01*
X118241757Y-163714100D01*
X118242242Y-163158339D01*
X118030010Y-162644697D01*
X117637370Y-162251371D01*
X117124100Y-162038243D01*
X116568339Y-162037758D01*
X116054697Y-162249990D01*
X115661371Y-162642630D01*
X115448243Y-163155900D01*
X115447758Y-163711661D01*
X113161759Y-163711661D01*
X113162242Y-163158339D01*
X112950010Y-162644697D01*
X112557370Y-162251371D01*
X112044100Y-162038243D01*
X111488339Y-162037758D01*
X111145000Y-162179622D01*
X111145000Y-154807440D01*
X111385000Y-154807440D01*
X111620317Y-154763162D01*
X111836441Y-154624090D01*
X111981431Y-154411890D01*
X112032440Y-154160000D01*
X112032440Y-154110750D01*
X115780000Y-154110750D01*
X115780000Y-154751310D01*
X115876673Y-154984699D01*
X116055302Y-155163327D01*
X116288691Y-155260000D01*
X116629250Y-155260000D01*
X116788000Y-155101250D01*
X116788000Y-153952000D01*
X117042000Y-153952000D01*
X117042000Y-155101250D01*
X117200750Y-155260000D01*
X117541309Y-155260000D01*
X117774698Y-155163327D01*
X117953327Y-154984699D01*
X118050000Y-154751310D01*
X118050000Y-154110750D01*
X117891250Y-153952000D01*
X117042000Y-153952000D01*
X116788000Y-153952000D01*
X115938750Y-153952000D01*
X115780000Y-154110750D01*
X112032440Y-154110750D01*
X112032440Y-152898690D01*
X115780000Y-152898690D01*
X115780000Y-153539250D01*
X115938750Y-153698000D01*
X116788000Y-153698000D01*
X116788000Y-152548750D01*
X117042000Y-152548750D01*
X117042000Y-153698000D01*
X117891250Y-153698000D01*
X118050000Y-153539250D01*
X118050000Y-153025000D01*
X118767560Y-153025000D01*
X118767560Y-154625000D01*
X118811838Y-154860317D01*
X118950910Y-155076441D01*
X119163110Y-155221431D01*
X119415000Y-155272440D01*
X120415000Y-155272440D01*
X120650317Y-155228162D01*
X120866441Y-155089090D01*
X121011431Y-154876890D01*
X121035372Y-154758663D01*
X121038201Y-154759838D01*
X121410167Y-154760162D01*
X121753943Y-154618117D01*
X122017192Y-154355327D01*
X122159838Y-154011799D01*
X122160162Y-153639833D01*
X122018117Y-153296057D01*
X121755327Y-153032808D01*
X121411799Y-152890162D01*
X121039833Y-152889838D01*
X121037211Y-152890921D01*
X121018162Y-152789683D01*
X120879090Y-152573559D01*
X120666890Y-152428569D01*
X120415000Y-152377560D01*
X119415000Y-152377560D01*
X119179683Y-152421838D01*
X118963559Y-152560910D01*
X118818569Y-152773110D01*
X118767560Y-153025000D01*
X118050000Y-153025000D01*
X118050000Y-152898690D01*
X117953327Y-152665301D01*
X117774698Y-152486673D01*
X117541309Y-152390000D01*
X117200750Y-152390000D01*
X117042000Y-152548750D01*
X116788000Y-152548750D01*
X116629250Y-152390000D01*
X116288691Y-152390000D01*
X116055302Y-152486673D01*
X115876673Y-152665301D01*
X115780000Y-152898690D01*
X112032440Y-152898690D01*
X112032440Y-152560000D01*
X111988162Y-152324683D01*
X111849090Y-152108559D01*
X111636890Y-151963569D01*
X111385000Y-151912560D01*
X109385000Y-151912560D01*
X109149683Y-151956838D01*
X108933559Y-152095910D01*
X108788569Y-152308110D01*
X108737560Y-152560000D01*
X108737560Y-154160000D01*
X108781838Y-154395317D01*
X108920910Y-154611441D01*
X109133110Y-154756431D01*
X109385000Y-154807440D01*
X109625000Y-154807440D01*
X109625000Y-163927300D01*
X108065000Y-163927300D01*
X108065000Y-163635750D01*
X107906250Y-163477000D01*
X106307000Y-163477000D01*
X106307000Y-163497000D01*
X106053000Y-163497000D01*
X106053000Y-163477000D01*
X106033000Y-163477000D01*
X106033000Y-163223000D01*
X106053000Y-163223000D01*
X106053000Y-161873750D01*
X106307000Y-161873750D01*
X106307000Y-163223000D01*
X107906250Y-163223000D01*
X108065000Y-163064250D01*
X108065000Y-162223691D01*
X107968327Y-161990302D01*
X107789699Y-161811673D01*
X107556310Y-161715000D01*
X106465750Y-161715000D01*
X106307000Y-161873750D01*
X106053000Y-161873750D01*
X105894250Y-161715000D01*
X104803690Y-161715000D01*
X104570301Y-161811673D01*
X104391673Y-161990302D01*
X104295000Y-162223691D01*
X104295000Y-163064250D01*
X104453748Y-163222998D01*
X104409600Y-163222998D01*
X103283200Y-162096598D01*
X103283200Y-160241800D01*
X103225348Y-159950961D01*
X103060601Y-159704399D01*
X102167351Y-158811149D01*
X102453629Y-158525370D01*
X102526448Y-158350000D01*
X104282560Y-158350000D01*
X104282560Y-160350000D01*
X104326838Y-160585317D01*
X104465910Y-160801441D01*
X104678110Y-160946431D01*
X104930000Y-160997440D01*
X107430000Y-160997440D01*
X107665317Y-160953162D01*
X107881441Y-160814090D01*
X108026431Y-160601890D01*
X108077440Y-160350000D01*
X108077440Y-158350000D01*
X108033162Y-158114683D01*
X107894090Y-157898559D01*
X107681890Y-157753569D01*
X107430000Y-157702560D01*
X107023170Y-157702560D01*
X107114838Y-157481799D01*
X107115162Y-157109833D01*
X106973117Y-156766057D01*
X106710327Y-156502808D01*
X106366799Y-156360162D01*
X105994833Y-156359838D01*
X105651057Y-156501883D01*
X105387808Y-156764673D01*
X105245162Y-157108201D01*
X105244838Y-157480167D01*
X105336729Y-157702560D01*
X104930000Y-157702560D01*
X104694683Y-157746838D01*
X104478559Y-157885910D01*
X104333569Y-158098110D01*
X104282560Y-158350000D01*
X102526448Y-158350000D01*
X102666757Y-158012100D01*
X102667242Y-157456339D01*
X102455010Y-156942697D01*
X102062370Y-156549371D01*
X101717159Y-156406027D01*
X102001143Y-156288397D01*
X102070608Y-156046213D01*
X101270000Y-155245605D01*
X100469392Y-156046213D01*
X100538857Y-156288397D01*
X100844262Y-156397355D01*
X100479697Y-156547990D01*
X100086371Y-156940630D01*
X99873243Y-157453900D01*
X99872758Y-158009661D01*
X100021647Y-158370000D01*
X99673531Y-158370000D01*
X99661010Y-158339697D01*
X99268370Y-157946371D01*
X98755100Y-157733243D01*
X98752664Y-157733241D01*
X99266303Y-157521010D01*
X99659629Y-157128370D01*
X99872757Y-156615100D01*
X99873242Y-156059339D01*
X99661010Y-155545697D01*
X99268370Y-155152371D01*
X98907185Y-155002394D01*
X99255915Y-154858302D01*
X99860856Y-154858302D01*
X99888638Y-155413368D01*
X100047603Y-155797143D01*
X100289787Y-155866608D01*
X101090395Y-155066000D01*
X101449605Y-155066000D01*
X102250213Y-155866608D01*
X102492397Y-155797143D01*
X102679144Y-155273698D01*
X102651362Y-154718632D01*
X102492397Y-154334857D01*
X102250213Y-154265392D01*
X101449605Y-155066000D01*
X101090395Y-155066000D01*
X100289787Y-154265392D01*
X100047603Y-154334857D01*
X99860856Y-154858302D01*
X99255915Y-154858302D01*
X99266303Y-154854010D01*
X99659629Y-154461370D01*
X99872757Y-153948100D01*
X99873242Y-153392339D01*
X99661010Y-152878697D01*
X99268370Y-152485371D01*
X98755100Y-152272243D01*
X98752664Y-152272241D01*
X99266303Y-152060010D01*
X99659629Y-151667370D01*
X99872757Y-151154100D01*
X99873242Y-150598339D01*
X99661010Y-150084697D01*
X99268370Y-149691371D01*
X98907185Y-149541394D01*
X99266303Y-149393010D01*
X99659629Y-149000370D01*
X99673070Y-148968000D01*
X99969121Y-148968000D01*
X99873243Y-149198900D01*
X99872758Y-149754661D01*
X100084990Y-150268303D01*
X100477630Y-150661629D01*
X100990900Y-150874757D01*
X100993336Y-150874759D01*
X100479697Y-151086990D01*
X100086371Y-151479630D01*
X99873243Y-151992900D01*
X99872758Y-152548661D01*
X100084990Y-153062303D01*
X100477630Y-153455629D01*
X100990900Y-153668757D01*
X101235656Y-153668971D01*
X100922632Y-153684638D01*
X100538857Y-153843603D01*
X100469392Y-154085787D01*
X101270000Y-154886395D01*
X102070608Y-154085787D01*
X102001143Y-153843603D01*
X101512332Y-153669212D01*
X101546661Y-153669242D01*
X101846946Y-153545167D01*
X103559838Y-153545167D01*
X103701883Y-153888943D01*
X103964673Y-154152192D01*
X104308201Y-154294838D01*
X104680167Y-154295162D01*
X104757018Y-154263408D01*
X104781838Y-154395317D01*
X104920910Y-154611441D01*
X105133110Y-154756431D01*
X105385000Y-154807440D01*
X107385000Y-154807440D01*
X107620317Y-154763162D01*
X107836441Y-154624090D01*
X107981431Y-154411890D01*
X108032440Y-154160000D01*
X108032440Y-152560000D01*
X107988162Y-152324683D01*
X107849090Y-152108559D01*
X107636890Y-151963569D01*
X107385000Y-151912560D01*
X105385000Y-151912560D01*
X105149683Y-151956838D01*
X104933559Y-152095910D01*
X104788569Y-152308110D01*
X104758422Y-152456979D01*
X104681799Y-152425162D01*
X104309833Y-152424838D01*
X103966057Y-152566883D01*
X103702808Y-152829673D01*
X103560162Y-153173201D01*
X103559838Y-153545167D01*
X101846946Y-153545167D01*
X102060303Y-153457010D01*
X102453629Y-153064370D01*
X102666757Y-152551100D01*
X102667242Y-151995339D01*
X102455010Y-151481697D01*
X102062370Y-151088371D01*
X101549100Y-150875243D01*
X101546664Y-150875241D01*
X102060303Y-150663010D01*
X102453629Y-150270370D01*
X102666757Y-149757100D01*
X102667242Y-149201339D01*
X102570829Y-148968000D01*
X105921700Y-148968000D01*
X106212539Y-148910148D01*
X106459101Y-148745401D01*
X106512784Y-148691718D01*
X106605910Y-148836441D01*
X106818110Y-148981431D01*
X107070000Y-149032440D01*
X108770000Y-149032440D01*
X109005317Y-148988162D01*
X109221441Y-148849090D01*
X109366431Y-148636890D01*
X109417440Y-148385000D01*
X109417440Y-148066233D01*
X109632701Y-147922401D01*
X109797448Y-147675839D01*
X109855300Y-147385000D01*
X109855300Y-146721302D01*
X112863567Y-143713035D01*
X112896788Y-143889587D01*
X113035860Y-144105711D01*
X113185411Y-144207895D01*
X113197852Y-144270439D01*
X113362599Y-144517001D01*
X113565000Y-144719402D01*
X113565000Y-146451560D01*
X113461400Y-146451560D01*
X113226083Y-146495838D01*
X113009959Y-146634910D01*
X112864969Y-146847110D01*
X112813960Y-147099000D01*
X112813960Y-149131000D01*
X112858238Y-149366317D01*
X112997310Y-149582441D01*
X113209510Y-149727431D01*
X113461400Y-149778440D01*
X115188600Y-149778440D01*
X115423917Y-149734162D01*
X115640041Y-149595090D01*
X115785031Y-149382890D01*
X115793400Y-149341561D01*
X115805330Y-149359415D01*
X116291511Y-149684271D01*
X116865000Y-149798345D01*
X117438489Y-149684271D01*
X117924670Y-149359415D01*
X118135000Y-149044634D01*
X118345330Y-149359415D01*
X118831511Y-149684271D01*
X119405000Y-149798345D01*
X119978489Y-149684271D01*
X120464670Y-149359415D01*
X120789526Y-148873234D01*
X120903600Y-148299745D01*
X120903600Y-147930255D01*
X120789526Y-147356766D01*
X120464670Y-146870585D01*
X119978489Y-146545729D01*
X119405000Y-146431655D01*
X118831511Y-146545729D01*
X118345330Y-146870585D01*
X118135000Y-147185366D01*
X117924670Y-146870585D01*
X117438489Y-146545729D01*
X116865000Y-146431655D01*
X116291511Y-146545729D01*
X115805330Y-146870585D01*
X115795757Y-146884913D01*
X115791762Y-146863683D01*
X115652690Y-146647559D01*
X115440490Y-146502569D01*
X115188600Y-146451560D01*
X115085000Y-146451560D01*
X115085000Y-146305750D01*
X127159000Y-146305750D01*
X127159000Y-147009910D01*
X127255673Y-147243299D01*
X127434302Y-147421927D01*
X127667691Y-147518600D01*
X128524250Y-147518600D01*
X128683000Y-147359850D01*
X128683000Y-146147000D01*
X127317750Y-146147000D01*
X127159000Y-146305750D01*
X115085000Y-146305750D01*
X115085000Y-144404600D01*
X115027148Y-144113761D01*
X114892412Y-143912114D01*
X114896481Y-143906160D01*
X114947490Y-143654270D01*
X114947490Y-143640750D01*
X117040000Y-143640750D01*
X117040000Y-144281310D01*
X117136673Y-144514699D01*
X117315302Y-144693327D01*
X117548691Y-144790000D01*
X118389250Y-144790000D01*
X118548000Y-144631250D01*
X118548000Y-143482000D01*
X118802000Y-143482000D01*
X118802000Y-144631250D01*
X118960750Y-144790000D01*
X119801309Y-144790000D01*
X120034698Y-144693327D01*
X120213327Y-144514699D01*
X120310000Y-144281310D01*
X120310000Y-143640750D01*
X120151250Y-143482000D01*
X118802000Y-143482000D01*
X118548000Y-143482000D01*
X117198750Y-143482000D01*
X117040000Y-143640750D01*
X114947490Y-143640750D01*
X114947490Y-142854170D01*
X114903212Y-142618853D01*
X114780846Y-142428690D01*
X117040000Y-142428690D01*
X117040000Y-143069250D01*
X117198750Y-143228000D01*
X118548000Y-143228000D01*
X118548000Y-142078750D01*
X118802000Y-142078750D01*
X118802000Y-143228000D01*
X120151250Y-143228000D01*
X120310000Y-143069250D01*
X120310000Y-142555000D01*
X121027560Y-142555000D01*
X121027560Y-144155000D01*
X121071838Y-144390317D01*
X121210910Y-144606441D01*
X121423110Y-144751431D01*
X121675000Y-144802440D01*
X123675000Y-144802440D01*
X123910317Y-144758162D01*
X124126441Y-144619090D01*
X124271431Y-144406890D01*
X124300715Y-144262282D01*
X124403201Y-144304838D01*
X124775167Y-144305162D01*
X125118943Y-144163117D01*
X125382192Y-143900327D01*
X125524838Y-143556799D01*
X125525162Y-143184833D01*
X125383117Y-142841057D01*
X125120327Y-142577808D01*
X124776799Y-142435162D01*
X124404833Y-142434838D01*
X124307405Y-142475094D01*
X124278162Y-142319683D01*
X124139090Y-142103559D01*
X123926890Y-141958569D01*
X123675000Y-141907560D01*
X121675000Y-141907560D01*
X121439683Y-141951838D01*
X121223559Y-142090910D01*
X121078569Y-142303110D01*
X121027560Y-142555000D01*
X120310000Y-142555000D01*
X120310000Y-142428690D01*
X120213327Y-142195301D01*
X120034698Y-142016673D01*
X119801309Y-141920000D01*
X118960750Y-141920000D01*
X118802000Y-142078750D01*
X118548000Y-142078750D01*
X118389250Y-141920000D01*
X117548691Y-141920000D01*
X117315302Y-142016673D01*
X117136673Y-142195301D01*
X117040000Y-142428690D01*
X114780846Y-142428690D01*
X114764140Y-142402729D01*
X114617787Y-142302730D01*
X115250050Y-142302730D01*
X115485367Y-142258452D01*
X115701491Y-142119380D01*
X115846481Y-141907180D01*
X115897490Y-141655290D01*
X115897490Y-140940000D01*
X127126655Y-140940000D01*
X127240729Y-141513489D01*
X127565585Y-141999670D01*
X127880366Y-142210000D01*
X127565585Y-142420330D01*
X127240729Y-142906511D01*
X127126655Y-143480000D01*
X127240729Y-144053489D01*
X127565585Y-144539670D01*
X127587780Y-144554500D01*
X127434302Y-144618073D01*
X127255673Y-144796701D01*
X127159000Y-145030090D01*
X127159000Y-145734250D01*
X127317750Y-145893000D01*
X128683000Y-145893000D01*
X128683000Y-145873000D01*
X128937000Y-145873000D01*
X128937000Y-145893000D01*
X130302250Y-145893000D01*
X130461000Y-145734250D01*
X130461000Y-145030090D01*
X130364327Y-144796701D01*
X130185698Y-144618073D01*
X130032220Y-144554500D01*
X130054415Y-144539670D01*
X130379271Y-144053489D01*
X130493345Y-143480000D01*
X130379271Y-142906511D01*
X130054415Y-142420330D01*
X129739634Y-142210000D01*
X130054415Y-141999670D01*
X130379271Y-141513489D01*
X130493345Y-140940000D01*
X130379271Y-140366511D01*
X130054415Y-139880330D01*
X129568234Y-139555474D01*
X128994745Y-139441400D01*
X128625255Y-139441400D01*
X128051766Y-139555474D01*
X127565585Y-139880330D01*
X127240729Y-140366511D01*
X127126655Y-140940000D01*
X115897490Y-140940000D01*
X115897490Y-140855190D01*
X115853212Y-140619873D01*
X115714140Y-140403749D01*
X115501940Y-140258759D01*
X115250050Y-140207750D01*
X115247300Y-140207750D01*
X115247300Y-138023300D01*
X115189448Y-137732461D01*
X115189448Y-137732460D01*
X115024701Y-137485899D01*
X114024412Y-136485610D01*
X114159101Y-136541538D01*
X114531067Y-136541862D01*
X114874843Y-136399817D01*
X115138092Y-136137027D01*
X115280738Y-135793499D01*
X115280793Y-135729919D01*
X115296148Y-135706939D01*
X115308908Y-135642788D01*
X115445491Y-135554900D01*
X115590481Y-135342700D01*
X115641490Y-135090810D01*
X115641490Y-134290710D01*
X115597212Y-134055393D01*
X115458140Y-133839269D01*
X115245940Y-133694279D01*
X114994050Y-133643270D01*
X114359745Y-133643270D01*
X114495491Y-133555920D01*
X114566633Y-133451800D01*
X117661560Y-133451800D01*
X117661560Y-135023600D01*
X117705838Y-135258917D01*
X117844910Y-135475041D01*
X118057110Y-135620031D01*
X118098439Y-135628400D01*
X118080585Y-135640330D01*
X117755729Y-136126511D01*
X117641655Y-136700000D01*
X117755729Y-137273489D01*
X118080585Y-137759670D01*
X118395366Y-137970000D01*
X118080585Y-138180330D01*
X117755729Y-138666511D01*
X117641655Y-139240000D01*
X117755729Y-139813489D01*
X118080585Y-140299670D01*
X118566766Y-140624526D01*
X119140255Y-140738600D01*
X119509745Y-140738600D01*
X120083234Y-140624526D01*
X120569415Y-140299670D01*
X120894271Y-139813489D01*
X120967418Y-139445750D01*
X121945000Y-139445750D01*
X121945000Y-140286309D01*
X122041673Y-140519698D01*
X122220301Y-140698327D01*
X122453690Y-140795000D01*
X123544250Y-140795000D01*
X123703000Y-140636250D01*
X123703000Y-139287000D01*
X123957000Y-139287000D01*
X123957000Y-140636250D01*
X124115750Y-140795000D01*
X125206310Y-140795000D01*
X125439699Y-140698327D01*
X125618327Y-140519698D01*
X125715000Y-140286309D01*
X125715000Y-139445750D01*
X125556250Y-139287000D01*
X123957000Y-139287000D01*
X123703000Y-139287000D01*
X122103750Y-139287000D01*
X121945000Y-139445750D01*
X120967418Y-139445750D01*
X121008345Y-139240000D01*
X120894271Y-138666511D01*
X120569415Y-138180330D01*
X120349955Y-138033691D01*
X121945000Y-138033691D01*
X121945000Y-138874250D01*
X122103750Y-139033000D01*
X123703000Y-139033000D01*
X123703000Y-137683750D01*
X123957000Y-137683750D01*
X123957000Y-139033000D01*
X125556250Y-139033000D01*
X125715000Y-138874250D01*
X125715000Y-138033691D01*
X125618327Y-137800302D01*
X125439699Y-137621673D01*
X125206310Y-137525000D01*
X124115750Y-137525000D01*
X123957000Y-137683750D01*
X123703000Y-137683750D01*
X123544250Y-137525000D01*
X122453690Y-137525000D01*
X122220301Y-137621673D01*
X122041673Y-137800302D01*
X121945000Y-138033691D01*
X120349955Y-138033691D01*
X120254634Y-137970000D01*
X120569415Y-137759670D01*
X120894271Y-137273489D01*
X121008345Y-136700000D01*
X120894271Y-136126511D01*
X120569415Y-135640330D01*
X120555087Y-135630757D01*
X120576317Y-135626762D01*
X120792441Y-135487690D01*
X120937431Y-135275490D01*
X120988440Y-135023600D01*
X120988440Y-133296400D01*
X120944162Y-133061083D01*
X120805090Y-132844959D01*
X120592890Y-132699969D01*
X120341000Y-132648960D01*
X120006233Y-132648960D01*
X119862401Y-132433699D01*
X119583101Y-132154399D01*
X119336539Y-131989652D01*
X119045700Y-131931800D01*
X114567026Y-131931800D01*
X114508140Y-131840289D01*
X114295940Y-131695299D01*
X114044050Y-131644290D01*
X113243950Y-131644290D01*
X113008633Y-131688568D01*
X112792509Y-131827640D01*
X112647519Y-132039840D01*
X112596510Y-132291730D01*
X112596510Y-133091830D01*
X112640788Y-133327147D01*
X112779860Y-133543271D01*
X112926213Y-133643270D01*
X112293950Y-133643270D01*
X112058633Y-133687548D01*
X111842509Y-133826620D01*
X111771326Y-133930800D01*
X110655902Y-133930800D01*
X109967701Y-133242599D01*
X109752440Y-133098767D01*
X109752440Y-132780000D01*
X109708162Y-132544683D01*
X109569090Y-132328559D01*
X109356890Y-132183569D01*
X109105000Y-132132560D01*
X107405000Y-132132560D01*
X107169683Y-132176838D01*
X106953559Y-132315910D01*
X106808569Y-132528110D01*
X106757560Y-132780000D01*
X106757560Y-134780000D01*
X106801838Y-135015317D01*
X106940910Y-135231441D01*
X107153110Y-135376431D01*
X107405000Y-135427440D01*
X109105000Y-135427440D01*
X109340317Y-135383162D01*
X109556441Y-135244090D01*
X109663257Y-135087759D01*
X109803699Y-135228201D01*
X110050261Y-135392948D01*
X110341100Y-135450800D01*
X111771013Y-135450800D01*
X111829860Y-135542251D01*
X111934000Y-135613407D01*
X111934000Y-136230000D01*
X111991852Y-136520839D01*
X112156599Y-136767401D01*
X113727300Y-138338102D01*
X113727300Y-139180230D01*
X113470327Y-138922808D01*
X113126799Y-138780162D01*
X112754833Y-138779838D01*
X112411057Y-138921883D01*
X112147808Y-139184673D01*
X112005162Y-139528201D01*
X112004838Y-139900167D01*
X112146883Y-140243943D01*
X112180000Y-140277118D01*
X112180000Y-140338662D01*
X112098509Y-140391100D01*
X111953519Y-140603300D01*
X111902510Y-140855190D01*
X111902510Y-141655290D01*
X111946788Y-141890607D01*
X112085860Y-142106731D01*
X112225117Y-142201881D01*
X108689438Y-145737560D01*
X107070000Y-145737560D01*
X106834683Y-145781838D01*
X106618559Y-145920910D01*
X106473569Y-146133110D01*
X106422560Y-146385000D01*
X106422560Y-146703767D01*
X106207299Y-146847599D01*
X105606898Y-147448000D01*
X102518144Y-147448000D01*
X102666757Y-147090100D01*
X102667242Y-146534339D01*
X102455010Y-146020697D01*
X102062370Y-145627371D01*
X101578474Y-145426440D01*
X102032000Y-145426440D01*
X102267317Y-145382162D01*
X102483441Y-145243090D01*
X102628431Y-145030890D01*
X102679440Y-144779000D01*
X102679440Y-143285167D01*
X105054838Y-143285167D01*
X105196883Y-143628943D01*
X105459673Y-143892192D01*
X105803201Y-144034838D01*
X106175167Y-144035162D01*
X106345826Y-143964648D01*
X106422560Y-144015920D01*
X106422560Y-144385000D01*
X106466838Y-144620317D01*
X106605910Y-144836441D01*
X106818110Y-144981431D01*
X107070000Y-145032440D01*
X108770000Y-145032440D01*
X109005317Y-144988162D01*
X109221441Y-144849090D01*
X109366431Y-144636890D01*
X109417440Y-144385000D01*
X109417440Y-142385000D01*
X109373162Y-142149683D01*
X109234090Y-141933559D01*
X109021890Y-141788569D01*
X108770000Y-141737560D01*
X107070000Y-141737560D01*
X106834683Y-141781838D01*
X106618559Y-141920910D01*
X106473569Y-142133110D01*
X106444563Y-142276348D01*
X106176799Y-142165162D01*
X105804833Y-142164838D01*
X105461057Y-142306883D01*
X105197808Y-142569673D01*
X105055162Y-142913201D01*
X105054838Y-143285167D01*
X102679440Y-143285167D01*
X102679440Y-143255000D01*
X102635162Y-143019683D01*
X102496090Y-142803559D01*
X102283890Y-142658569D01*
X102032000Y-142607560D01*
X100508000Y-142607560D01*
X100272683Y-142651838D01*
X100056559Y-142790910D01*
X99911569Y-143003110D01*
X99860560Y-143255000D01*
X99860560Y-144779000D01*
X99904838Y-145014317D01*
X100043910Y-145230441D01*
X100256110Y-145375431D01*
X100508000Y-145426440D01*
X100962646Y-145426440D01*
X100479697Y-145625990D01*
X100086371Y-146018630D01*
X99873243Y-146531900D01*
X99872758Y-147087661D01*
X100021647Y-147448000D01*
X99673531Y-147448000D01*
X99661010Y-147417697D01*
X99268370Y-147024371D01*
X98755100Y-146811243D01*
X98752664Y-146811241D01*
X99266303Y-146599010D01*
X99659629Y-146206370D01*
X99872757Y-145693100D01*
X99873242Y-145137339D01*
X99661010Y-144623697D01*
X99268370Y-144230371D01*
X98755100Y-144017243D01*
X98199339Y-144016758D01*
X97685697Y-144228990D01*
X97292371Y-144621630D01*
X97079243Y-145134900D01*
X97078758Y-145690661D01*
X95710000Y-145690661D01*
X95710000Y-137535021D01*
X97332560Y-137535021D01*
X97718437Y-138468915D01*
X98432327Y-139184052D01*
X99365546Y-139571559D01*
X100376021Y-139572440D01*
X101309915Y-139186563D01*
X102025052Y-138472673D01*
X102412559Y-137539454D01*
X102413221Y-136780000D01*
X106757560Y-136780000D01*
X106757560Y-138780000D01*
X106801838Y-139015317D01*
X106940910Y-139231441D01*
X107153110Y-139376431D01*
X107273094Y-139400728D01*
X107220162Y-139528201D01*
X107219838Y-139900167D01*
X107361883Y-140243943D01*
X107624673Y-140507192D01*
X107968201Y-140649838D01*
X108340167Y-140650162D01*
X108683943Y-140508117D01*
X108947192Y-140245327D01*
X109089838Y-139901799D01*
X109090162Y-139529833D01*
X109047854Y-139427440D01*
X109105000Y-139427440D01*
X109340317Y-139383162D01*
X109556441Y-139244090D01*
X109701431Y-139031890D01*
X109752440Y-138780000D01*
X109752440Y-136780000D01*
X109708162Y-136544683D01*
X109569090Y-136328559D01*
X109356890Y-136183569D01*
X109105000Y-136132560D01*
X107405000Y-136132560D01*
X107169683Y-136176838D01*
X106953559Y-136315910D01*
X106808569Y-136528110D01*
X106757560Y-136780000D01*
X102413221Y-136780000D01*
X102413440Y-136528979D01*
X102027563Y-135595085D01*
X101313673Y-134879948D01*
X100380454Y-134492441D01*
X99369979Y-134491560D01*
X98436085Y-134877437D01*
X97720948Y-135591327D01*
X97333441Y-136524546D01*
X97332560Y-137535021D01*
X95710000Y-137535021D01*
X95710000Y-130475021D01*
X97332560Y-130475021D01*
X97718437Y-131408915D01*
X98432327Y-132124052D01*
X99365546Y-132511559D01*
X100376021Y-132512440D01*
X101309915Y-132126563D01*
X102025052Y-131412673D01*
X102412559Y-130479454D01*
X102413168Y-129780167D01*
X119104838Y-129780167D01*
X119246883Y-130123943D01*
X119509673Y-130387192D01*
X119853201Y-130529838D01*
X120225167Y-130530162D01*
X120568943Y-130388117D01*
X120602118Y-130355000D01*
X120622560Y-130355000D01*
X120622560Y-130395000D01*
X120666838Y-130630317D01*
X120805910Y-130846441D01*
X121018110Y-130991431D01*
X121270000Y-131042440D01*
X123270000Y-131042440D01*
X123505317Y-130998162D01*
X123721441Y-130859090D01*
X123866431Y-130646890D01*
X123917440Y-130395000D01*
X123917440Y-128795000D01*
X123873162Y-128559683D01*
X123734090Y-128343559D01*
X123521890Y-128198569D01*
X123270000Y-128147560D01*
X121270000Y-128147560D01*
X121034683Y-128191838D01*
X120818559Y-128330910D01*
X120673569Y-128543110D01*
X120622560Y-128795000D01*
X120622560Y-128835000D01*
X120602463Y-128835000D01*
X120570327Y-128802808D01*
X120226799Y-128660162D01*
X119854833Y-128659838D01*
X119511057Y-128801883D01*
X119247808Y-129064673D01*
X119105162Y-129408201D01*
X119104838Y-129780167D01*
X102413168Y-129780167D01*
X102413440Y-129468979D01*
X102027563Y-128535085D01*
X101313673Y-127819948D01*
X100380454Y-127432441D01*
X99369979Y-127431560D01*
X98436085Y-127817437D01*
X97720948Y-128531327D01*
X97333441Y-129464546D01*
X97332560Y-130475021D01*
X95710000Y-130475021D01*
X95710000Y-123404350D01*
X95949817Y-91513661D01*
X97078758Y-91513661D01*
X97290990Y-92027303D01*
X97683630Y-92420629D01*
X98196900Y-92633757D01*
X98199336Y-92633759D01*
X97685697Y-92845990D01*
X97292371Y-93238630D01*
X97079243Y-93751900D01*
X97078758Y-94307661D01*
X97290990Y-94821303D01*
X97683630Y-95214629D01*
X98196900Y-95427757D01*
X98199336Y-95427759D01*
X97685697Y-95639990D01*
X97292371Y-96032630D01*
X97079243Y-96545900D01*
X97078758Y-97101661D01*
X97290990Y-97615303D01*
X97683630Y-98008629D01*
X98044815Y-98158606D01*
X97685697Y-98306990D01*
X97292371Y-98699630D01*
X97079243Y-99212900D01*
X97078758Y-99768661D01*
X97290990Y-100282303D01*
X97683630Y-100675629D01*
X98196900Y-100888757D01*
X98199336Y-100888759D01*
X97685697Y-101100990D01*
X97292371Y-101493630D01*
X97079243Y-102006900D01*
X97078758Y-102562661D01*
X97290990Y-103076303D01*
X97683630Y-103469629D01*
X98196900Y-103682757D01*
X98199336Y-103682759D01*
X97685697Y-103894990D01*
X97292371Y-104287630D01*
X97079243Y-104800900D01*
X97078758Y-105356661D01*
X97290990Y-105870303D01*
X97683630Y-106263629D01*
X98196900Y-106476757D01*
X98199336Y-106476759D01*
X97685697Y-106688990D01*
X97292371Y-107081630D01*
X97079243Y-107594900D01*
X97078758Y-108150661D01*
X97290990Y-108664303D01*
X97683630Y-109057629D01*
X98196900Y-109270757D01*
X98199336Y-109270759D01*
X97685697Y-109482990D01*
X97292371Y-109875630D01*
X97079243Y-110388900D01*
X97078758Y-110944661D01*
X97290990Y-111458303D01*
X97683630Y-111851629D01*
X98044815Y-112001606D01*
X97685697Y-112149990D01*
X97292371Y-112542630D01*
X97079243Y-113055900D01*
X97078758Y-113611661D01*
X97290990Y-114125303D01*
X97683630Y-114518629D01*
X98196900Y-114731757D01*
X98199336Y-114731759D01*
X97685697Y-114943990D01*
X97292371Y-115336630D01*
X97079243Y-115849900D01*
X97078758Y-116405661D01*
X97290990Y-116919303D01*
X97683630Y-117312629D01*
X98196900Y-117525757D01*
X98199336Y-117525759D01*
X97685697Y-117737990D01*
X97292371Y-118130630D01*
X97079243Y-118643900D01*
X97078758Y-119199661D01*
X97290990Y-119713303D01*
X97683630Y-120106629D01*
X98196900Y-120319757D01*
X98199336Y-120319759D01*
X97685697Y-120531990D01*
X97292371Y-120924630D01*
X97079243Y-121437900D01*
X97078758Y-121993661D01*
X97290990Y-122507303D01*
X97683630Y-122900629D01*
X98196900Y-123113757D01*
X98752661Y-123114242D01*
X99266303Y-122902010D01*
X99659629Y-122509370D01*
X99872757Y-121996100D01*
X99873242Y-121440339D01*
X99661010Y-120926697D01*
X99268370Y-120533371D01*
X98755100Y-120320243D01*
X98752664Y-120320241D01*
X99266303Y-120108010D01*
X99659629Y-119715370D01*
X99872757Y-119202100D01*
X99873242Y-118646339D01*
X99661010Y-118132697D01*
X99268370Y-117739371D01*
X98755100Y-117526243D01*
X98752664Y-117526241D01*
X99266303Y-117314010D01*
X99659629Y-116921370D01*
X99872757Y-116408100D01*
X99873242Y-115852339D01*
X99661010Y-115338697D01*
X99268370Y-114945371D01*
X98755100Y-114732243D01*
X98752664Y-114732241D01*
X99266303Y-114520010D01*
X99659629Y-114127370D01*
X99872757Y-113614100D01*
X99873242Y-113058339D01*
X99661010Y-112544697D01*
X99268370Y-112151371D01*
X98907185Y-112001394D01*
X99266303Y-111853010D01*
X99659629Y-111460370D01*
X99872757Y-110947100D01*
X99873242Y-110391339D01*
X99661010Y-109877697D01*
X99268370Y-109484371D01*
X98755100Y-109271243D01*
X98752664Y-109271241D01*
X99266303Y-109059010D01*
X99659629Y-108666370D01*
X99872757Y-108153100D01*
X99873242Y-107597339D01*
X99661010Y-107083697D01*
X99268370Y-106690371D01*
X98755100Y-106477243D01*
X98752664Y-106477241D01*
X99266303Y-106265010D01*
X99659629Y-105872370D01*
X99872757Y-105359100D01*
X99873242Y-104803339D01*
X99661010Y-104289697D01*
X99268370Y-103896371D01*
X98755100Y-103683243D01*
X98752664Y-103683241D01*
X99266303Y-103471010D01*
X99659629Y-103078370D01*
X99872757Y-102565100D01*
X99873242Y-102009339D01*
X99661010Y-101495697D01*
X99268370Y-101102371D01*
X98755100Y-100889243D01*
X98752664Y-100889241D01*
X99266303Y-100677010D01*
X99659629Y-100284370D01*
X99872757Y-99771100D01*
X99873242Y-99215339D01*
X99661010Y-98701697D01*
X99268370Y-98308371D01*
X98907185Y-98158394D01*
X99266303Y-98010010D01*
X99659629Y-97617370D01*
X99872757Y-97104100D01*
X99873242Y-96548339D01*
X99661010Y-96034697D01*
X99268370Y-95641371D01*
X98755100Y-95428243D01*
X98752664Y-95428241D01*
X99266303Y-95216010D01*
X99659629Y-94823370D01*
X99872757Y-94310100D01*
X99873242Y-93754339D01*
X99661010Y-93240697D01*
X99268370Y-92847371D01*
X98755100Y-92634243D01*
X98752664Y-92634241D01*
X99266303Y-92422010D01*
X99659629Y-92029370D01*
X99872757Y-91516100D01*
X99873242Y-90960339D01*
X99661010Y-90446697D01*
X99268370Y-90053371D01*
X98755100Y-89840243D01*
X98199339Y-89839758D01*
X97685697Y-90051990D01*
X97292371Y-90444630D01*
X97079243Y-90957900D01*
X97078758Y-91513661D01*
X95949817Y-91513661D01*
X95979332Y-87588691D01*
X106230000Y-87588691D01*
X106230000Y-88429250D01*
X106388750Y-88588000D01*
X107538000Y-88588000D01*
X107538000Y-87238750D01*
X107792000Y-87238750D01*
X107792000Y-88588000D01*
X108941250Y-88588000D01*
X109100000Y-88429250D01*
X109100000Y-87588691D01*
X109003327Y-87355302D01*
X108824699Y-87176673D01*
X108591310Y-87080000D01*
X107950750Y-87080000D01*
X107792000Y-87238750D01*
X107538000Y-87238750D01*
X107379250Y-87080000D01*
X106738690Y-87080000D01*
X106505301Y-87176673D01*
X106326673Y-87355302D01*
X106230000Y-87588691D01*
X95979332Y-87588691D01*
X95983903Y-86980750D01*
X110094800Y-86980750D01*
X110094800Y-88571370D01*
X110191473Y-88804759D01*
X110370102Y-88983387D01*
X110603491Y-89080060D01*
X112194110Y-89080060D01*
X112352860Y-88921310D01*
X112352860Y-86822000D01*
X112606860Y-86822000D01*
X112606860Y-88921310D01*
X112765610Y-89080060D01*
X114356229Y-89080060D01*
X114589618Y-88983387D01*
X114768247Y-88804759D01*
X114864920Y-88571370D01*
X114864920Y-86980750D01*
X114706170Y-86822000D01*
X112606860Y-86822000D01*
X112352860Y-86822000D01*
X110253550Y-86822000D01*
X110094800Y-86980750D01*
X95983903Y-86980750D01*
X96010192Y-83485021D01*
X97332560Y-83485021D01*
X97718437Y-84418915D01*
X98432327Y-85134052D01*
X99365546Y-85521559D01*
X100376021Y-85522440D01*
X101309915Y-85136563D01*
X102025052Y-84422673D01*
X102318903Y-83715000D01*
X106217560Y-83715000D01*
X106217560Y-85715000D01*
X106261838Y-85950317D01*
X106400910Y-86166441D01*
X106613110Y-86311431D01*
X106865000Y-86362440D01*
X108465000Y-86362440D01*
X108700317Y-86318162D01*
X108916441Y-86179090D01*
X109061431Y-85966890D01*
X109112440Y-85715000D01*
X109112440Y-84818630D01*
X110094800Y-84818630D01*
X110094800Y-86409250D01*
X110253550Y-86568000D01*
X112352860Y-86568000D01*
X112352860Y-84468690D01*
X112606860Y-84468690D01*
X112606860Y-86568000D01*
X114706170Y-86568000D01*
X114864920Y-86409250D01*
X114864920Y-84818630D01*
X114768247Y-84585241D01*
X114589618Y-84406613D01*
X114557960Y-84393500D01*
X116413585Y-84393500D01*
X116277839Y-84480850D01*
X116132849Y-84693050D01*
X116081840Y-84944940D01*
X116081840Y-88445060D01*
X116126118Y-88680377D01*
X116265190Y-88896501D01*
X116477390Y-89041491D01*
X116729280Y-89092500D01*
X120229400Y-89092500D01*
X120464717Y-89048222D01*
X120680841Y-88909150D01*
X120825831Y-88696950D01*
X120876840Y-88445060D01*
X120876840Y-84944940D01*
X120832562Y-84709623D01*
X120693490Y-84493499D01*
X120481290Y-84348509D01*
X120229400Y-84297500D01*
X117545355Y-84297500D01*
X117681101Y-84210150D01*
X117826091Y-83997950D01*
X117877100Y-83746060D01*
X117877100Y-80245940D01*
X117832822Y-80010623D01*
X117693750Y-79794499D01*
X117481550Y-79649509D01*
X117229660Y-79598500D01*
X113729540Y-79598500D01*
X113494223Y-79642778D01*
X113278099Y-79781850D01*
X113133109Y-79994050D01*
X113082100Y-80245940D01*
X113082100Y-83746060D01*
X113126378Y-83981377D01*
X113265450Y-84197501D01*
X113430010Y-84309940D01*
X112765610Y-84309940D01*
X112606860Y-84468690D01*
X112352860Y-84468690D01*
X112194110Y-84309940D01*
X110603491Y-84309940D01*
X110370102Y-84406613D01*
X110191473Y-84585241D01*
X110094800Y-84818630D01*
X109112440Y-84818630D01*
X109112440Y-83715000D01*
X109068162Y-83479683D01*
X108929090Y-83263559D01*
X108716890Y-83118569D01*
X108465000Y-83067560D01*
X108425000Y-83067560D01*
X108425000Y-82717463D01*
X108457192Y-82685327D01*
X108599838Y-82341799D01*
X108600162Y-81969833D01*
X108458117Y-81626057D01*
X108195327Y-81362808D01*
X107851799Y-81220162D01*
X107479833Y-81219838D01*
X107136057Y-81361883D01*
X106872808Y-81624673D01*
X106730162Y-81968201D01*
X106729838Y-82340167D01*
X106871883Y-82683943D01*
X106905000Y-82717118D01*
X106905000Y-83067560D01*
X106865000Y-83067560D01*
X106629683Y-83111838D01*
X106413559Y-83250910D01*
X106268569Y-83463110D01*
X106217560Y-83715000D01*
X102318903Y-83715000D01*
X102412559Y-83489454D01*
X102413440Y-82478979D01*
X102027563Y-81545085D01*
X101313673Y-80829948D01*
X100380454Y-80442441D01*
X99369979Y-80441560D01*
X98436085Y-80827437D01*
X97720948Y-81541327D01*
X97333441Y-82474546D01*
X97332560Y-83485021D01*
X96010192Y-83485021D01*
X96041055Y-79381026D01*
X137699313Y-79057978D01*
X137707812Y-79882395D01*
X137707812Y-79882395D01*
G37*
X137707812Y-79882395D02*
X137703015Y-101762711D01*
X130703662Y-106514929D01*
X130668404Y-106550962D01*
X130648000Y-106620000D01*
X130648000Y-112344624D01*
X130583429Y-122184202D01*
X130375000Y-122332549D01*
X130375000Y-122020750D01*
X130216250Y-121862000D01*
X128617000Y-121862000D01*
X128617000Y-123211250D01*
X128775750Y-123370000D01*
X128917370Y-123370000D01*
X125178944Y-126030782D01*
X125213885Y-125978489D01*
X125327959Y-125405000D01*
X125213885Y-124831511D01*
X124889029Y-124345330D01*
X124574248Y-124135000D01*
X124889029Y-123924670D01*
X125213885Y-123438489D01*
X125327959Y-122865000D01*
X125213885Y-122291511D01*
X125032969Y-122020750D01*
X126605000Y-122020750D01*
X126605000Y-122861309D01*
X126701673Y-123094698D01*
X126880301Y-123273327D01*
X127113690Y-123370000D01*
X128204250Y-123370000D01*
X128363000Y-123211250D01*
X128363000Y-121862000D01*
X126763750Y-121862000D01*
X126605000Y-122020750D01*
X125032969Y-122020750D01*
X124889029Y-121805330D01*
X124574248Y-121595000D01*
X124889029Y-121384670D01*
X125213885Y-120898489D01*
X125271529Y-120608691D01*
X126605000Y-120608691D01*
X126605000Y-121449250D01*
X126763750Y-121608000D01*
X128363000Y-121608000D01*
X128363000Y-120258750D01*
X128617000Y-120258750D01*
X128617000Y-121608000D01*
X130216250Y-121608000D01*
X130375000Y-121449250D01*
X130375000Y-120608691D01*
X130278327Y-120375302D01*
X130099699Y-120196673D01*
X129866310Y-120100000D01*
X128775750Y-120100000D01*
X128617000Y-120258750D01*
X128363000Y-120258750D01*
X128204250Y-120100000D01*
X127113690Y-120100000D01*
X126880301Y-120196673D01*
X126701673Y-120375302D01*
X126605000Y-120608691D01*
X125271529Y-120608691D01*
X125327959Y-120325000D01*
X125213885Y-119751511D01*
X124889029Y-119265330D01*
X124574248Y-119055000D01*
X124889029Y-118844670D01*
X125213885Y-118358489D01*
X125327959Y-117785000D01*
X125213885Y-117211511D01*
X124895491Y-116735000D01*
X126592560Y-116735000D01*
X126592560Y-118735000D01*
X126636838Y-118970317D01*
X126775910Y-119186441D01*
X126988110Y-119331431D01*
X127240000Y-119382440D01*
X129740000Y-119382440D01*
X129975317Y-119338162D01*
X130191441Y-119199090D01*
X130336431Y-118986890D01*
X130387440Y-118735000D01*
X130387440Y-116735000D01*
X130343162Y-116499683D01*
X130204090Y-116283559D01*
X129991890Y-116138569D01*
X129740000Y-116087560D01*
X129250000Y-116087560D01*
X129250000Y-115996111D01*
X129334838Y-115791799D01*
X129335162Y-115419833D01*
X129193117Y-115076057D01*
X128930327Y-114812808D01*
X128586799Y-114670162D01*
X128214833Y-114669838D01*
X127871057Y-114811883D01*
X127607808Y-115074673D01*
X127465162Y-115418201D01*
X127464838Y-115790167D01*
X127587718Y-116087560D01*
X127240000Y-116087560D01*
X127004683Y-116131838D01*
X126788559Y-116270910D01*
X126643569Y-116483110D01*
X126592560Y-116735000D01*
X124895491Y-116735000D01*
X124889029Y-116725330D01*
X124402848Y-116400474D01*
X123829359Y-116286400D01*
X123770641Y-116286400D01*
X123209000Y-116398117D01*
X123209000Y-113180000D01*
X123894250Y-113180000D01*
X124053000Y-113021250D01*
X124053000Y-111822000D01*
X124307000Y-111822000D01*
X124307000Y-113021250D01*
X124465750Y-113180000D01*
X125306309Y-113180000D01*
X125539698Y-113083327D01*
X125718327Y-112904699D01*
X125815000Y-112671310D01*
X125815000Y-111980750D01*
X125656250Y-111822000D01*
X124307000Y-111822000D01*
X124053000Y-111822000D01*
X124033000Y-111822000D01*
X124033000Y-111568000D01*
X124053000Y-111568000D01*
X124053000Y-110368750D01*
X124307000Y-110368750D01*
X124307000Y-111568000D01*
X125656250Y-111568000D01*
X125815000Y-111409250D01*
X125815000Y-111160750D01*
X126310000Y-111160750D01*
X126310000Y-112001309D01*
X126406673Y-112234698D01*
X126585301Y-112413327D01*
X126818690Y-112510000D01*
X127909250Y-112510000D01*
X128068000Y-112351250D01*
X128068000Y-111002000D01*
X128322000Y-111002000D01*
X128322000Y-112351250D01*
X128480750Y-112510000D01*
X129571310Y-112510000D01*
X129804699Y-112413327D01*
X129983327Y-112234698D01*
X130080000Y-112001309D01*
X130080000Y-111160750D01*
X129921250Y-111002000D01*
X128322000Y-111002000D01*
X128068000Y-111002000D01*
X126468750Y-111002000D01*
X126310000Y-111160750D01*
X125815000Y-111160750D01*
X125815000Y-110718690D01*
X125718327Y-110485301D01*
X125539698Y-110306673D01*
X125306309Y-110210000D01*
X124465750Y-110210000D01*
X124307000Y-110368750D01*
X124053000Y-110368750D01*
X123894250Y-110210000D01*
X123053691Y-110210000D01*
X122994760Y-110234410D01*
X122986401Y-110221899D01*
X122513193Y-109748691D01*
X126310000Y-109748691D01*
X126310000Y-110589250D01*
X126468750Y-110748000D01*
X128068000Y-110748000D01*
X128068000Y-109398750D01*
X128322000Y-109398750D01*
X128322000Y-110748000D01*
X129921250Y-110748000D01*
X130080000Y-110589250D01*
X130080000Y-109748691D01*
X129983327Y-109515302D01*
X129804699Y-109336673D01*
X129571310Y-109240000D01*
X128480750Y-109240000D01*
X128322000Y-109398750D01*
X128068000Y-109398750D01*
X127909250Y-109240000D01*
X126818690Y-109240000D01*
X126585301Y-109336673D01*
X126406673Y-109515302D01*
X126310000Y-109748691D01*
X122513193Y-109748691D01*
X121296718Y-108532216D01*
X121441441Y-108439090D01*
X121586431Y-108226890D01*
X121637440Y-107975000D01*
X121637440Y-107410750D01*
X122355000Y-107410750D01*
X122355000Y-108101310D01*
X122451673Y-108334699D01*
X122630302Y-108513327D01*
X122863691Y-108610000D01*
X123704250Y-108610000D01*
X123863000Y-108451250D01*
X123863000Y-107252000D01*
X124117000Y-107252000D01*
X124117000Y-108451250D01*
X124275750Y-108610000D01*
X125116309Y-108610000D01*
X125349698Y-108513327D01*
X125528327Y-108334699D01*
X125625000Y-108101310D01*
X125625000Y-107410750D01*
X125466250Y-107252000D01*
X124117000Y-107252000D01*
X123863000Y-107252000D01*
X122513750Y-107252000D01*
X122355000Y-107410750D01*
X121637440Y-107410750D01*
X121637440Y-106275000D01*
X121613674Y-106148690D01*
X122355000Y-106148690D01*
X122355000Y-106839250D01*
X122513750Y-106998000D01*
X123863000Y-106998000D01*
X123863000Y-105798750D01*
X124117000Y-105798750D01*
X124117000Y-106998000D01*
X125466250Y-106998000D01*
X125625000Y-106839250D01*
X125625000Y-106148690D01*
X125528327Y-105915301D01*
X125488026Y-105875000D01*
X126297560Y-105875000D01*
X126297560Y-107875000D01*
X126341838Y-108110317D01*
X126480910Y-108326441D01*
X126693110Y-108471431D01*
X126945000Y-108522440D01*
X129445000Y-108522440D01*
X129680317Y-108478162D01*
X129896441Y-108339090D01*
X130041431Y-108126890D01*
X130092440Y-107875000D01*
X130092440Y-105875000D01*
X130048162Y-105639683D01*
X129909090Y-105423559D01*
X129696890Y-105278569D01*
X129445000Y-105227560D01*
X128955000Y-105227560D01*
X128955000Y-104827463D01*
X128987192Y-104795327D01*
X129129838Y-104451799D01*
X129130162Y-104079833D01*
X128988117Y-103736057D01*
X128725327Y-103472808D01*
X128381799Y-103330162D01*
X128009833Y-103329838D01*
X127666057Y-103471883D01*
X127402808Y-103734673D01*
X127260162Y-104078201D01*
X127259838Y-104450167D01*
X127401883Y-104793943D01*
X127435000Y-104827118D01*
X127435000Y-105227560D01*
X126945000Y-105227560D01*
X126709683Y-105271838D01*
X126493559Y-105410910D01*
X126348569Y-105623110D01*
X126297560Y-105875000D01*
X125488026Y-105875000D01*
X125349698Y-105736673D01*
X125116309Y-105640000D01*
X124275750Y-105640000D01*
X124117000Y-105798750D01*
X123863000Y-105798750D01*
X123704250Y-105640000D01*
X122863691Y-105640000D01*
X122630302Y-105736673D01*
X122451673Y-105915301D01*
X122355000Y-106148690D01*
X121613674Y-106148690D01*
X121593162Y-106039683D01*
X121454090Y-105823559D01*
X121241890Y-105678569D01*
X120990000Y-105627560D01*
X118990000Y-105627560D01*
X118754683Y-105671838D01*
X118538559Y-105810910D01*
X118492631Y-105878129D01*
X118187101Y-105572599D01*
X117940539Y-105407852D01*
X117649700Y-105350000D01*
X114554262Y-105350000D01*
X114354029Y-105050330D01*
X114039248Y-104840000D01*
X114354029Y-104629670D01*
X114569646Y-104306976D01*
X114744739Y-104272148D01*
X114991301Y-104107401D01*
X116038702Y-103060000D01*
X118467560Y-103060000D01*
X118467560Y-103150000D01*
X118511838Y-103385317D01*
X118650910Y-103601441D01*
X118863110Y-103746431D01*
X119115000Y-103797440D01*
X121115000Y-103797440D01*
X121350317Y-103753162D01*
X121566441Y-103614090D01*
X121711431Y-103401890D01*
X121762440Y-103150000D01*
X121762440Y-102585750D01*
X122480000Y-102585750D01*
X122480000Y-103276310D01*
X122576673Y-103509699D01*
X122755302Y-103688327D01*
X122988691Y-103785000D01*
X123829250Y-103785000D01*
X123988000Y-103626250D01*
X123988000Y-102427000D01*
X124242000Y-102427000D01*
X124242000Y-103626250D01*
X124400750Y-103785000D01*
X125241309Y-103785000D01*
X125474698Y-103688327D01*
X125653327Y-103509699D01*
X125750000Y-103276310D01*
X125750000Y-102585750D01*
X125591250Y-102427000D01*
X124242000Y-102427000D01*
X123988000Y-102427000D01*
X122638750Y-102427000D01*
X122480000Y-102585750D01*
X121762440Y-102585750D01*
X121762440Y-101450000D01*
X121738674Y-101323690D01*
X122480000Y-101323690D01*
X122480000Y-102014250D01*
X122638750Y-102173000D01*
X123988000Y-102173000D01*
X123988000Y-100973750D01*
X124242000Y-100973750D01*
X124242000Y-102173000D01*
X125591250Y-102173000D01*
X125750000Y-102014250D01*
X125750000Y-101323690D01*
X125653327Y-101090301D01*
X125474698Y-100911673D01*
X125241309Y-100815000D01*
X124400750Y-100815000D01*
X124242000Y-100973750D01*
X123988000Y-100973750D01*
X123829250Y-100815000D01*
X122988691Y-100815000D01*
X122755302Y-100911673D01*
X122576673Y-101090301D01*
X122480000Y-101323690D01*
X121738674Y-101323690D01*
X121718162Y-101214683D01*
X121579090Y-100998559D01*
X121366890Y-100853569D01*
X121115000Y-100802560D01*
X119115000Y-100802560D01*
X118879683Y-100846838D01*
X118663559Y-100985910D01*
X118518569Y-101198110D01*
X118467560Y-101450000D01*
X118467560Y-101540000D01*
X115723900Y-101540000D01*
X115433060Y-101597852D01*
X115186499Y-101762599D01*
X114387971Y-102561127D01*
X114354029Y-102510330D01*
X114039248Y-102300000D01*
X114354029Y-102089670D01*
X114569646Y-101766976D01*
X114744739Y-101732148D01*
X114991301Y-101567401D01*
X118193702Y-98365000D01*
X118467560Y-98365000D01*
X118467560Y-98455000D01*
X118511838Y-98690317D01*
X118650910Y-98906441D01*
X118863110Y-99051431D01*
X119115000Y-99102440D01*
X121115000Y-99102440D01*
X121350317Y-99058162D01*
X121566441Y-98919090D01*
X121711431Y-98706890D01*
X121762440Y-98455000D01*
X121762440Y-97890750D01*
X122480000Y-97890750D01*
X122480000Y-98581310D01*
X122576673Y-98814699D01*
X122755302Y-98993327D01*
X122988691Y-99090000D01*
X123829250Y-99090000D01*
X123988000Y-98931250D01*
X123988000Y-97732000D01*
X124242000Y-97732000D01*
X124242000Y-98931250D01*
X124400750Y-99090000D01*
X125241309Y-99090000D01*
X125474698Y-98993327D01*
X125653327Y-98814699D01*
X125679815Y-98750750D01*
X125865000Y-98750750D01*
X125865000Y-99591309D01*
X125961673Y-99824698D01*
X126140301Y-100003327D01*
X126373690Y-100100000D01*
X127464250Y-100100000D01*
X127623000Y-99941250D01*
X127623000Y-98592000D01*
X127877000Y-98592000D01*
X127877000Y-99941250D01*
X128035750Y-100100000D01*
X129126310Y-100100000D01*
X129359699Y-100003327D01*
X129538327Y-99824698D01*
X129635000Y-99591309D01*
X129635000Y-99525750D01*
X132674000Y-99525750D01*
X132674000Y-100229910D01*
X132770673Y-100463299D01*
X132949302Y-100641927D01*
X133182691Y-100738600D01*
X134039250Y-100738600D01*
X134198000Y-100579850D01*
X134198000Y-99367000D01*
X134452000Y-99367000D01*
X134452000Y-100579850D01*
X134610750Y-100738600D01*
X135467309Y-100738600D01*
X135700698Y-100641927D01*
X135879327Y-100463299D01*
X135976000Y-100229910D01*
X135976000Y-99525750D01*
X135817250Y-99367000D01*
X134452000Y-99367000D01*
X134198000Y-99367000D01*
X132832750Y-99367000D01*
X132674000Y-99525750D01*
X129635000Y-99525750D01*
X129635000Y-98750750D01*
X129476250Y-98592000D01*
X127877000Y-98592000D01*
X127623000Y-98592000D01*
X126023750Y-98592000D01*
X125865000Y-98750750D01*
X125679815Y-98750750D01*
X125750000Y-98581310D01*
X125750000Y-97890750D01*
X125591250Y-97732000D01*
X124242000Y-97732000D01*
X123988000Y-97732000D01*
X122638750Y-97732000D01*
X122480000Y-97890750D01*
X121762440Y-97890750D01*
X121762440Y-96755000D01*
X121738674Y-96628690D01*
X122480000Y-96628690D01*
X122480000Y-97319250D01*
X122638750Y-97478000D01*
X123988000Y-97478000D01*
X123988000Y-96278750D01*
X124242000Y-96278750D01*
X124242000Y-97478000D01*
X125591250Y-97478000D01*
X125730559Y-97338691D01*
X125865000Y-97338691D01*
X125865000Y-98179250D01*
X126023750Y-98338000D01*
X127623000Y-98338000D01*
X127623000Y-96988750D01*
X127877000Y-96988750D01*
X127877000Y-98338000D01*
X129476250Y-98338000D01*
X129635000Y-98179250D01*
X129635000Y-97338691D01*
X129538327Y-97105302D01*
X129359699Y-96926673D01*
X129126310Y-96830000D01*
X128035750Y-96830000D01*
X127877000Y-96988750D01*
X127623000Y-96988750D01*
X127464250Y-96830000D01*
X126373690Y-96830000D01*
X126140301Y-96926673D01*
X125961673Y-97105302D01*
X125865000Y-97338691D01*
X125730559Y-97338691D01*
X125750000Y-97319250D01*
X125750000Y-96628690D01*
X125653327Y-96395301D01*
X125474698Y-96216673D01*
X125241309Y-96120000D01*
X124400750Y-96120000D01*
X124242000Y-96278750D01*
X123988000Y-96278750D01*
X123829250Y-96120000D01*
X122988691Y-96120000D01*
X122755302Y-96216673D01*
X122576673Y-96395301D01*
X122480000Y-96628690D01*
X121738674Y-96628690D01*
X121718162Y-96519683D01*
X121579090Y-96303559D01*
X121366890Y-96158569D01*
X121115000Y-96107560D01*
X119115000Y-96107560D01*
X118879683Y-96151838D01*
X118663559Y-96290910D01*
X118518569Y-96503110D01*
X118467560Y-96755000D01*
X118467560Y-96845000D01*
X117878900Y-96845000D01*
X117636314Y-96893254D01*
X117588060Y-96902852D01*
X117341499Y-97067599D01*
X114387971Y-100021127D01*
X114354029Y-99970330D01*
X113867848Y-99645474D01*
X113294359Y-99531400D01*
X113235641Y-99531400D01*
X112662152Y-99645474D01*
X112196558Y-99956574D01*
X112191762Y-99931083D01*
X112052690Y-99714959D01*
X111840490Y-99569969D01*
X111588600Y-99518960D01*
X109861400Y-99518960D01*
X109626083Y-99563238D01*
X109409959Y-99702310D01*
X109264969Y-99914510D01*
X109213960Y-100166400D01*
X109213960Y-100686958D01*
X103642752Y-95115750D01*
X108875000Y-95115750D01*
X108875000Y-96206310D01*
X108971673Y-96439699D01*
X109150302Y-96618327D01*
X109383691Y-96715000D01*
X110224250Y-96715000D01*
X110383000Y-96556250D01*
X110383000Y-94957000D01*
X110637000Y-94957000D01*
X110637000Y-96556250D01*
X110795750Y-96715000D01*
X111636309Y-96715000D01*
X111869698Y-96618327D01*
X112048327Y-96439699D01*
X112145000Y-96206310D01*
X112145000Y-95115750D01*
X111986250Y-94957000D01*
X110637000Y-94957000D01*
X110383000Y-94957000D01*
X109033750Y-94957000D01*
X108875000Y-95115750D01*
X103642752Y-95115750D01*
X103117300Y-94590298D01*
X103117300Y-93453690D01*
X108875000Y-93453690D01*
X108875000Y-94544250D01*
X109033750Y-94703000D01*
X110383000Y-94703000D01*
X110383000Y-93103750D01*
X110637000Y-93103750D01*
X110637000Y-94703000D01*
X111986250Y-94703000D01*
X112145000Y-94544250D01*
X112145000Y-93580000D01*
X112862560Y-93580000D01*
X112862560Y-96080000D01*
X112906838Y-96315317D01*
X113045910Y-96531441D01*
X113258110Y-96676431D01*
X113510000Y-96727440D01*
X115510000Y-96727440D01*
X115745317Y-96683162D01*
X115961441Y-96544090D01*
X116106431Y-96331890D01*
X116157440Y-96080000D01*
X116157440Y-95576770D01*
X116273201Y-95624838D01*
X116645167Y-95625162D01*
X116988943Y-95483117D01*
X117252192Y-95220327D01*
X117394838Y-94876799D01*
X117395162Y-94504833D01*
X117253117Y-94161057D01*
X116990327Y-93897808D01*
X116646799Y-93755162D01*
X116274833Y-93754838D01*
X116157440Y-93803344D01*
X116157440Y-93580000D01*
X116135802Y-93465000D01*
X125852560Y-93465000D01*
X125852560Y-95465000D01*
X125896838Y-95700317D01*
X126035910Y-95916441D01*
X126248110Y-96061431D01*
X126500000Y-96112440D01*
X129000000Y-96112440D01*
X129235317Y-96068162D01*
X129451441Y-95929090D01*
X129596431Y-95716890D01*
X129647440Y-95465000D01*
X129647440Y-94160000D01*
X132641655Y-94160000D01*
X132755729Y-94733489D01*
X133080585Y-95219670D01*
X133395366Y-95430000D01*
X133080585Y-95640330D01*
X132755729Y-96126511D01*
X132641655Y-96700000D01*
X132755729Y-97273489D01*
X133080585Y-97759670D01*
X133102780Y-97774500D01*
X132949302Y-97838073D01*
X132770673Y-98016701D01*
X132674000Y-98250090D01*
X132674000Y-98954250D01*
X132832750Y-99113000D01*
X134198000Y-99113000D01*
X134198000Y-99093000D01*
X134452000Y-99093000D01*
X134452000Y-99113000D01*
X135817250Y-99113000D01*
X135976000Y-98954250D01*
X135976000Y-98250090D01*
X135879327Y-98016701D01*
X135700698Y-97838073D01*
X135547220Y-97774500D01*
X135569415Y-97759670D01*
X135894271Y-97273489D01*
X136008345Y-96700000D01*
X135894271Y-96126511D01*
X135569415Y-95640330D01*
X135254634Y-95430000D01*
X135569415Y-95219670D01*
X135894271Y-94733489D01*
X136008345Y-94160000D01*
X135894271Y-93586511D01*
X135569415Y-93100330D01*
X135083234Y-92775474D01*
X134509745Y-92661400D01*
X134140255Y-92661400D01*
X133566766Y-92775474D01*
X133080585Y-93100330D01*
X132755729Y-93586511D01*
X132641655Y-94160000D01*
X129647440Y-94160000D01*
X129647440Y-93465000D01*
X129603162Y-93229683D01*
X129464090Y-93013559D01*
X129251890Y-92868569D01*
X129000000Y-92817560D01*
X128510000Y-92817560D01*
X128510000Y-92497463D01*
X128542192Y-92465327D01*
X128684838Y-92121799D01*
X128685162Y-91749833D01*
X128543117Y-91406057D01*
X128280327Y-91142808D01*
X127936799Y-91000162D01*
X127564833Y-90999838D01*
X127221057Y-91141883D01*
X126957808Y-91404673D01*
X126815162Y-91748201D01*
X126814838Y-92120167D01*
X126956883Y-92463943D01*
X126990000Y-92497118D01*
X126990000Y-92817560D01*
X126500000Y-92817560D01*
X126264683Y-92861838D01*
X126048559Y-93000910D01*
X125903569Y-93213110D01*
X125852560Y-93465000D01*
X116135802Y-93465000D01*
X116113162Y-93344683D01*
X115974090Y-93128559D01*
X115761890Y-92983569D01*
X115510000Y-92932560D01*
X113510000Y-92932560D01*
X113274683Y-92976838D01*
X113058559Y-93115910D01*
X112913569Y-93328110D01*
X112862560Y-93580000D01*
X112145000Y-93580000D01*
X112145000Y-93453690D01*
X112048327Y-93220301D01*
X111869698Y-93041673D01*
X111636309Y-92945000D01*
X110795750Y-92945000D01*
X110637000Y-93103750D01*
X110383000Y-93103750D01*
X110224250Y-92945000D01*
X109383691Y-92945000D01*
X109150302Y-93041673D01*
X108971673Y-93220301D01*
X108875000Y-93453690D01*
X103117300Y-93453690D01*
X103117300Y-92014600D01*
X103064634Y-91749833D01*
X103059448Y-91723760D01*
X102894701Y-91477199D01*
X102483502Y-91066000D01*
X102628431Y-90853890D01*
X102679440Y-90602000D01*
X102679440Y-89078000D01*
X102664905Y-89000750D01*
X106230000Y-89000750D01*
X106230000Y-89841309D01*
X106326673Y-90074698D01*
X106505301Y-90253327D01*
X106738690Y-90350000D01*
X107379250Y-90350000D01*
X107538000Y-90191250D01*
X107538000Y-88842000D01*
X107792000Y-88842000D01*
X107792000Y-90191250D01*
X107950750Y-90350000D01*
X108591310Y-90350000D01*
X108824699Y-90253327D01*
X109003327Y-90074698D01*
X109100000Y-89841309D01*
X109100000Y-89000750D01*
X108941250Y-88842000D01*
X107792000Y-88842000D01*
X107538000Y-88842000D01*
X106388750Y-88842000D01*
X106230000Y-89000750D01*
X102664905Y-89000750D01*
X102635162Y-88842683D01*
X102496090Y-88626559D01*
X102283890Y-88481569D01*
X102032000Y-88430560D01*
X100508000Y-88430560D01*
X100272683Y-88474838D01*
X100056559Y-88613910D01*
X99911569Y-88826110D01*
X99860560Y-89078000D01*
X99860560Y-90602000D01*
X99904838Y-90837317D01*
X100043910Y-91053441D01*
X100256110Y-91198431D01*
X100508000Y-91249440D01*
X100588767Y-91249440D01*
X100669656Y-91370501D01*
X100479697Y-91448990D01*
X100086371Y-91841630D01*
X99873243Y-92354900D01*
X99872758Y-92910661D01*
X100084990Y-93424303D01*
X100477630Y-93817629D01*
X100990900Y-94030757D01*
X100993336Y-94030759D01*
X100479697Y-94242990D01*
X100086371Y-94635630D01*
X99873243Y-95148900D01*
X99872758Y-95704661D01*
X100084990Y-96218303D01*
X100477630Y-96611629D01*
X100990900Y-96824757D01*
X100993336Y-96824759D01*
X100479697Y-97036990D01*
X100086371Y-97429630D01*
X99873243Y-97942900D01*
X99872758Y-98498661D01*
X100084990Y-99012303D01*
X100477630Y-99405629D01*
X100990900Y-99618757D01*
X100993336Y-99618759D01*
X100479697Y-99830990D01*
X100086371Y-100223630D01*
X99873243Y-100736900D01*
X99872758Y-101292661D01*
X100084990Y-101806303D01*
X100477630Y-102199629D01*
X100838815Y-102349606D01*
X100479697Y-102497990D01*
X100086371Y-102890630D01*
X99873243Y-103403900D01*
X99872758Y-103959661D01*
X100084990Y-104473303D01*
X100477630Y-104866629D01*
X100990900Y-105079757D01*
X100993336Y-105079759D01*
X100479697Y-105291990D01*
X100086371Y-105684630D01*
X99873243Y-106197900D01*
X99872758Y-106753661D01*
X100084990Y-107267303D01*
X100477630Y-107660629D01*
X100990900Y-107873757D01*
X100993336Y-107873759D01*
X100479697Y-108085990D01*
X100086371Y-108478630D01*
X99873243Y-108991900D01*
X99872758Y-109547661D01*
X100084990Y-110061303D01*
X100477630Y-110454629D01*
X100990900Y-110667757D01*
X100993336Y-110667759D01*
X100479697Y-110879990D01*
X100086371Y-111272630D01*
X99873243Y-111785900D01*
X99872758Y-112341661D01*
X100084990Y-112855303D01*
X100477630Y-113248629D01*
X100990900Y-113461757D01*
X100993336Y-113461759D01*
X100479697Y-113673990D01*
X100086371Y-114066630D01*
X99873243Y-114579900D01*
X99872758Y-115135661D01*
X100084990Y-115649303D01*
X100477630Y-116042629D01*
X100838815Y-116192606D01*
X100479697Y-116340990D01*
X100086371Y-116733630D01*
X99873243Y-117246900D01*
X99872758Y-117802661D01*
X100084990Y-118316303D01*
X100477630Y-118709629D01*
X100990900Y-118922757D01*
X100993336Y-118922759D01*
X100479697Y-119134990D01*
X100086371Y-119527630D01*
X99873243Y-120040900D01*
X99872758Y-120596661D01*
X100084990Y-121110303D01*
X100477630Y-121503629D01*
X100990900Y-121716757D01*
X100993336Y-121716759D01*
X100479697Y-121928990D01*
X100086371Y-122321630D01*
X99873243Y-122834900D01*
X99872758Y-123390661D01*
X100084990Y-123904303D01*
X100477630Y-124297629D01*
X100990900Y-124510757D01*
X101546661Y-124511242D01*
X102060303Y-124299010D01*
X102453629Y-123906370D01*
X102666757Y-123393100D01*
X102667242Y-122837339D01*
X102455010Y-122323697D01*
X102062370Y-121930371D01*
X101549100Y-121717243D01*
X101546664Y-121717241D01*
X102060303Y-121505010D01*
X102453629Y-121112370D01*
X102666757Y-120599100D01*
X102667242Y-120043339D01*
X102455010Y-119529697D01*
X102062370Y-119136371D01*
X101549100Y-118923243D01*
X101546664Y-118923241D01*
X102060303Y-118711010D01*
X102453629Y-118318370D01*
X102666757Y-117805100D01*
X102667242Y-117249339D01*
X102455010Y-116735697D01*
X102062370Y-116342371D01*
X101701185Y-116192394D01*
X102060303Y-116044010D01*
X102453629Y-115651370D01*
X102666757Y-115138100D01*
X102667242Y-114582339D01*
X102455010Y-114068697D01*
X102062370Y-113675371D01*
X101549100Y-113462243D01*
X101546664Y-113462241D01*
X102060303Y-113250010D01*
X102453629Y-112857370D01*
X102666757Y-112344100D01*
X102667242Y-111788339D01*
X102455010Y-111274697D01*
X102062370Y-110881371D01*
X101549100Y-110668243D01*
X101546664Y-110668241D01*
X102060303Y-110456010D01*
X102453629Y-110063370D01*
X102666757Y-109550100D01*
X102667242Y-108994339D01*
X102455010Y-108480697D01*
X102062370Y-108087371D01*
X101549100Y-107874243D01*
X101546664Y-107874241D01*
X102060303Y-107662010D01*
X102453629Y-107269370D01*
X102666757Y-106756100D01*
X102667242Y-106200339D01*
X102455010Y-105686697D01*
X102062370Y-105293371D01*
X101549100Y-105080243D01*
X101546664Y-105080241D01*
X102060303Y-104868010D01*
X102453629Y-104475370D01*
X102666757Y-103962100D01*
X102667242Y-103406339D01*
X102455010Y-102892697D01*
X102062370Y-102499371D01*
X101701185Y-102349394D01*
X102060303Y-102201010D01*
X102453629Y-101808370D01*
X102666757Y-101295100D01*
X102667242Y-100739339D01*
X102455010Y-100225697D01*
X102062370Y-99832371D01*
X101549100Y-99619243D01*
X101546664Y-99619241D01*
X102060303Y-99407010D01*
X102453629Y-99014370D01*
X102666757Y-98501100D01*
X102667242Y-97945339D01*
X102455010Y-97431697D01*
X102062370Y-97038371D01*
X101549100Y-96825243D01*
X101546664Y-96825241D01*
X102060303Y-96613010D01*
X102453629Y-96220370D01*
X102495920Y-96118522D01*
X109295899Y-102918501D01*
X109342454Y-102949608D01*
X109311115Y-102996511D01*
X109197041Y-103570000D01*
X109311115Y-104143489D01*
X109635971Y-104629670D01*
X109950752Y-104840000D01*
X109635971Y-105050330D01*
X109311115Y-105536511D01*
X109197041Y-106110000D01*
X109311115Y-106683489D01*
X109635971Y-107169670D01*
X109950752Y-107380000D01*
X109635971Y-107590330D01*
X109311115Y-108076511D01*
X109197041Y-108650000D01*
X109311115Y-109223489D01*
X109635971Y-109709670D01*
X109965000Y-109929520D01*
X109965000Y-115706100D01*
X110022852Y-115996939D01*
X110187599Y-116243501D01*
X112641967Y-118697869D01*
X112576558Y-118741574D01*
X112571762Y-118716083D01*
X112432690Y-118499959D01*
X112220490Y-118354969D01*
X111968600Y-118303960D01*
X110241400Y-118303960D01*
X110006083Y-118348238D01*
X109789959Y-118487310D01*
X109644969Y-118699510D01*
X109593960Y-118951400D01*
X109593960Y-120678600D01*
X109638238Y-120913917D01*
X109777310Y-121130041D01*
X109989510Y-121275031D01*
X110033131Y-121283864D01*
X110015971Y-121295330D01*
X109691115Y-121781511D01*
X109577041Y-122355000D01*
X109691115Y-122928489D01*
X110015971Y-123414670D01*
X110330752Y-123625000D01*
X110015971Y-123835330D01*
X109691115Y-124321511D01*
X109577041Y-124895000D01*
X109691115Y-125468489D01*
X110015971Y-125954670D01*
X110330752Y-126165000D01*
X110015971Y-126375330D01*
X109691115Y-126861511D01*
X109577041Y-127435000D01*
X109691115Y-128008489D01*
X110015971Y-128494670D01*
X110502152Y-128819526D01*
X111075641Y-128933600D01*
X111134359Y-128933600D01*
X111707848Y-128819526D01*
X112194029Y-128494670D01*
X112375000Y-128223828D01*
X112555971Y-128494670D01*
X113042152Y-128819526D01*
X113615641Y-128933600D01*
X113674359Y-128933600D01*
X114247848Y-128819526D01*
X114734029Y-128494670D01*
X115058885Y-128008489D01*
X115172959Y-127435000D01*
X115058885Y-126861511D01*
X114734029Y-126375330D01*
X114419248Y-126165000D01*
X114734029Y-125954670D01*
X114949646Y-125631976D01*
X115124739Y-125597148D01*
X115371301Y-125432401D01*
X119869786Y-120933916D01*
X120170971Y-121384670D01*
X120485752Y-121595000D01*
X120170971Y-121805330D01*
X119846115Y-122291511D01*
X119732041Y-122865000D01*
X119846115Y-123438489D01*
X120170971Y-123924670D01*
X120485752Y-124135000D01*
X120170971Y-124345330D01*
X119846115Y-124831511D01*
X119732041Y-125405000D01*
X119846115Y-125978489D01*
X120170971Y-126464670D01*
X120657152Y-126789526D01*
X121230641Y-126903600D01*
X121289359Y-126903600D01*
X121862848Y-126789526D01*
X122349029Y-126464670D01*
X122530000Y-126193828D01*
X122710971Y-126464670D01*
X123197152Y-126789526D01*
X123770641Y-126903600D01*
X123829359Y-126903600D01*
X124000437Y-126869570D01*
X123906357Y-126936531D01*
X123871904Y-126973334D01*
X123853103Y-127045124D01*
X124062062Y-132220185D01*
X124001799Y-132195162D01*
X123629833Y-132194838D01*
X123286057Y-132336883D01*
X123022808Y-132599673D01*
X122880162Y-132943201D01*
X122879838Y-133315167D01*
X122961399Y-133512560D01*
X122580000Y-133512560D01*
X122344683Y-133556838D01*
X122128559Y-133695910D01*
X121983569Y-133908110D01*
X121932560Y-134160000D01*
X121932560Y-136160000D01*
X121976838Y-136395317D01*
X122115910Y-136611441D01*
X122328110Y-136756431D01*
X122580000Y-136807440D01*
X125080000Y-136807440D01*
X125315317Y-136763162D01*
X125531441Y-136624090D01*
X125676431Y-136411890D01*
X125727440Y-136160000D01*
X125727440Y-134160000D01*
X125683162Y-133924683D01*
X125544090Y-133708559D01*
X125331890Y-133563569D01*
X125080000Y-133512560D01*
X124668551Y-133512560D01*
X124749838Y-133316799D01*
X124750127Y-132984621D01*
X129200353Y-132964820D01*
X129070345Y-133018538D01*
X128610154Y-133477927D01*
X128360794Y-134078453D01*
X128360226Y-134728694D01*
X128608538Y-135329655D01*
X129067927Y-135789846D01*
X129668453Y-136039206D01*
X130318694Y-136039774D01*
X130919655Y-135791462D01*
X131379846Y-135332073D01*
X131629206Y-134731547D01*
X131629774Y-134081306D01*
X131381462Y-133480345D01*
X130922073Y-133020154D01*
X130771973Y-132957827D01*
X134786291Y-132939966D01*
X134797668Y-133000427D01*
X134936740Y-133216551D01*
X135148940Y-133361541D01*
X135400830Y-133412550D01*
X135490500Y-133412550D01*
X135490500Y-141609797D01*
X130461000Y-146639298D01*
X130461000Y-146305750D01*
X130302250Y-146147000D01*
X128937000Y-146147000D01*
X128937000Y-147359850D01*
X129095750Y-147518600D01*
X129581698Y-147518600D01*
X125287599Y-151812699D01*
X125122852Y-152059261D01*
X125065000Y-152350100D01*
X125065000Y-161972469D01*
X125034697Y-161984990D01*
X124641371Y-162377630D01*
X124428243Y-162890900D01*
X124427758Y-163446661D01*
X124639990Y-163960303D01*
X125032630Y-164353629D01*
X125545900Y-164566757D01*
X126101661Y-164567242D01*
X126615303Y-164355010D01*
X127008629Y-163962370D01*
X127221757Y-163449100D01*
X127222242Y-162893339D01*
X127010010Y-162379697D01*
X126617370Y-161986371D01*
X126585000Y-161972930D01*
X126585000Y-152664902D01*
X130044902Y-149205000D01*
X131732560Y-149205000D01*
X131732560Y-151205000D01*
X131776838Y-151440317D01*
X131915910Y-151656441D01*
X132128110Y-151801431D01*
X132380000Y-151852440D01*
X133980000Y-151852440D01*
X134215317Y-151808162D01*
X134431441Y-151669090D01*
X134576431Y-151456890D01*
X134627440Y-151205000D01*
X134627440Y-149205000D01*
X134583162Y-148969683D01*
X134444090Y-148753559D01*
X134231890Y-148608569D01*
X133980000Y-148557560D01*
X133975417Y-148557560D01*
X134114838Y-148221799D01*
X134115162Y-147849833D01*
X133973117Y-147506057D01*
X133710327Y-147242808D01*
X133366799Y-147100162D01*
X132994833Y-147099838D01*
X132651057Y-147241883D01*
X132387808Y-147504673D01*
X132245162Y-147848201D01*
X132244838Y-148220167D01*
X132384246Y-148557560D01*
X132380000Y-148557560D01*
X132144683Y-148601838D01*
X131928559Y-148740910D01*
X131783569Y-148953110D01*
X131732560Y-149205000D01*
X130044902Y-149205000D01*
X136787901Y-142462002D01*
X136928405Y-142251721D01*
X136952648Y-142215439D01*
X137010500Y-141924600D01*
X137010500Y-133412550D01*
X137100090Y-133412550D01*
X137335407Y-133368272D01*
X137551531Y-133229200D01*
X137570434Y-133201534D01*
X137313806Y-173403418D01*
X95710000Y-173541325D01*
X95710000Y-170809021D01*
X97332560Y-170809021D01*
X97718437Y-171742915D01*
X98432327Y-172458052D01*
X99365546Y-172845559D01*
X100376021Y-172846440D01*
X101309915Y-172460563D01*
X102025052Y-171746673D01*
X102412559Y-170813454D01*
X102413440Y-169802979D01*
X102027563Y-168869085D01*
X101313673Y-168153948D01*
X100380454Y-167766441D01*
X99369979Y-167765560D01*
X98436085Y-168151437D01*
X97720948Y-168865327D01*
X97333441Y-169798546D01*
X97332560Y-170809021D01*
X95710000Y-170809021D01*
X95710000Y-145690661D01*
X97078758Y-145690661D01*
X97290990Y-146204303D01*
X97683630Y-146597629D01*
X98196900Y-146810757D01*
X98199336Y-146810759D01*
X97685697Y-147022990D01*
X97292371Y-147415630D01*
X97079243Y-147928900D01*
X97078758Y-148484661D01*
X97290990Y-148998303D01*
X97683630Y-149391629D01*
X98044815Y-149541606D01*
X97685697Y-149689990D01*
X97292371Y-150082630D01*
X97079243Y-150595900D01*
X97078758Y-151151661D01*
X97290990Y-151665303D01*
X97683630Y-152058629D01*
X98196900Y-152271757D01*
X98199336Y-152271759D01*
X97685697Y-152483990D01*
X97292371Y-152876630D01*
X97079243Y-153389900D01*
X97078758Y-153945661D01*
X97290990Y-154459303D01*
X97683630Y-154852629D01*
X98044815Y-155002606D01*
X97685697Y-155150990D01*
X97292371Y-155543630D01*
X97079243Y-156056900D01*
X97078758Y-156612661D01*
X97290990Y-157126303D01*
X97683630Y-157519629D01*
X98196900Y-157732757D01*
X98199336Y-157732759D01*
X97685697Y-157944990D01*
X97292371Y-158337630D01*
X97079243Y-158850900D01*
X97078758Y-159406661D01*
X97290990Y-159920303D01*
X97683630Y-160313629D01*
X98196900Y-160526757D01*
X98199336Y-160526759D01*
X97685697Y-160738990D01*
X97292371Y-161131630D01*
X97079243Y-161644900D01*
X97078758Y-162200661D01*
X97290990Y-162714303D01*
X97683630Y-163107629D01*
X98196900Y-163320757D01*
X98752661Y-163321242D01*
X99266303Y-163109010D01*
X99659629Y-162716370D01*
X99872757Y-162203100D01*
X99873242Y-161647339D01*
X99661010Y-161133697D01*
X99268370Y-160740371D01*
X98755100Y-160527243D01*
X98752664Y-160527241D01*
X99266303Y-160315010D01*
X99659629Y-159922370D01*
X99673070Y-159890000D01*
X100021856Y-159890000D01*
X99873243Y-160247900D01*
X99872758Y-160803661D01*
X100084990Y-161317303D01*
X100477630Y-161710629D01*
X100838815Y-161860606D01*
X100479697Y-162008990D01*
X100086371Y-162401630D01*
X99873243Y-162914900D01*
X99872758Y-163470661D01*
X100084990Y-163984303D01*
X100477630Y-164377629D01*
X100990900Y-164590757D01*
X101546661Y-164591242D01*
X102060303Y-164379010D01*
X102453629Y-163986370D01*
X102620793Y-163583795D01*
X104261699Y-165224701D01*
X104508261Y-165389448D01*
X104799100Y-165447300D01*
X112702498Y-165447300D01*
X112920817Y-165665619D01*
X112908243Y-165695900D01*
X112907758Y-166251661D01*
X113119990Y-166765303D01*
X113512630Y-167158629D01*
X114025900Y-167371757D01*
X114581661Y-167372242D01*
X115095303Y-167160010D01*
X115488629Y-166767370D01*
X115701757Y-166254100D01*
X115701990Y-165986661D01*
X126967758Y-165986661D01*
X127179990Y-166500303D01*
X127572630Y-166893629D01*
X128085900Y-167106757D01*
X128641661Y-167107242D01*
X129155303Y-166895010D01*
X129548629Y-166502370D01*
X129761757Y-165989100D01*
X129762242Y-165433339D01*
X129550010Y-164919697D01*
X129157370Y-164526371D01*
X129125000Y-164512930D01*
X129125000Y-163446661D01*
X129507758Y-163446661D01*
X129719990Y-163960303D01*
X130112630Y-164353629D01*
X130625900Y-164566757D01*
X131181661Y-164567242D01*
X131695303Y-164355010D01*
X132088629Y-163962370D01*
X132301757Y-163449100D01*
X132302242Y-162893339D01*
X132090010Y-162379697D01*
X131697370Y-161986371D01*
X131184100Y-161773243D01*
X130628339Y-161772758D01*
X130114697Y-161984990D01*
X129721371Y-162377630D01*
X129508243Y-162890900D01*
X129507758Y-163446661D01*
X129125000Y-163446661D01*
X129125000Y-158209502D01*
X131822784Y-155511718D01*
X131915910Y-155656441D01*
X132128110Y-155801431D01*
X132380000Y-155852440D01*
X133980000Y-155852440D01*
X134215317Y-155808162D01*
X134431441Y-155669090D01*
X134576431Y-155456890D01*
X134627440Y-155205000D01*
X134627440Y-153205000D01*
X134583162Y-152969683D01*
X134444090Y-152753559D01*
X134231890Y-152608569D01*
X133980000Y-152557560D01*
X132380000Y-152557560D01*
X132144683Y-152601838D01*
X131928559Y-152740910D01*
X131783569Y-152953110D01*
X131732560Y-153205000D01*
X131732560Y-153523767D01*
X131517299Y-153667599D01*
X127827599Y-157357299D01*
X127662852Y-157603861D01*
X127605000Y-157894700D01*
X127605000Y-164512469D01*
X127574697Y-164524990D01*
X127181371Y-164917630D01*
X126968243Y-165430900D01*
X126967758Y-165986661D01*
X115701990Y-165986661D01*
X115702242Y-165698339D01*
X115490010Y-165184697D01*
X115097370Y-164791371D01*
X114584100Y-164578243D01*
X114028339Y-164577758D01*
X113995945Y-164591143D01*
X113554701Y-164149899D01*
X113308139Y-163985152D01*
X113068962Y-163937576D01*
X113161757Y-163714100D01*
X113161759Y-163711661D01*
X115447758Y-163711661D01*
X115659990Y-164225303D01*
X116052630Y-164618629D01*
X116565900Y-164831757D01*
X117121661Y-164832242D01*
X117635303Y-164620010D01*
X118028629Y-164227370D01*
X118241757Y-163714100D01*
X118242242Y-163158339D01*
X118030010Y-162644697D01*
X117637370Y-162251371D01*
X117124100Y-162038243D01*
X116568339Y-162037758D01*
X116054697Y-162249990D01*
X115661371Y-162642630D01*
X115448243Y-163155900D01*
X115447758Y-163711661D01*
X113161759Y-163711661D01*
X113162242Y-163158339D01*
X112950010Y-162644697D01*
X112557370Y-162251371D01*
X112044100Y-162038243D01*
X111488339Y-162037758D01*
X111145000Y-162179622D01*
X111145000Y-154807440D01*
X111385000Y-154807440D01*
X111620317Y-154763162D01*
X111836441Y-154624090D01*
X111981431Y-154411890D01*
X112032440Y-154160000D01*
X112032440Y-154110750D01*
X115780000Y-154110750D01*
X115780000Y-154751310D01*
X115876673Y-154984699D01*
X116055302Y-155163327D01*
X116288691Y-155260000D01*
X116629250Y-155260000D01*
X116788000Y-155101250D01*
X116788000Y-153952000D01*
X117042000Y-153952000D01*
X117042000Y-155101250D01*
X117200750Y-155260000D01*
X117541309Y-155260000D01*
X117774698Y-155163327D01*
X117953327Y-154984699D01*
X118050000Y-154751310D01*
X118050000Y-154110750D01*
X117891250Y-153952000D01*
X117042000Y-153952000D01*
X116788000Y-153952000D01*
X115938750Y-153952000D01*
X115780000Y-154110750D01*
X112032440Y-154110750D01*
X112032440Y-152898690D01*
X115780000Y-152898690D01*
X115780000Y-153539250D01*
X115938750Y-153698000D01*
X116788000Y-153698000D01*
X116788000Y-152548750D01*
X117042000Y-152548750D01*
X117042000Y-153698000D01*
X117891250Y-153698000D01*
X118050000Y-153539250D01*
X118050000Y-153025000D01*
X118767560Y-153025000D01*
X118767560Y-154625000D01*
X118811838Y-154860317D01*
X118950910Y-155076441D01*
X119163110Y-155221431D01*
X119415000Y-155272440D01*
X120415000Y-155272440D01*
X120650317Y-155228162D01*
X120866441Y-155089090D01*
X121011431Y-154876890D01*
X121035372Y-154758663D01*
X121038201Y-154759838D01*
X121410167Y-154760162D01*
X121753943Y-154618117D01*
X122017192Y-154355327D01*
X122159838Y-154011799D01*
X122160162Y-153639833D01*
X122018117Y-153296057D01*
X121755327Y-153032808D01*
X121411799Y-152890162D01*
X121039833Y-152889838D01*
X121037211Y-152890921D01*
X121018162Y-152789683D01*
X120879090Y-152573559D01*
X120666890Y-152428569D01*
X120415000Y-152377560D01*
X119415000Y-152377560D01*
X119179683Y-152421838D01*
X118963559Y-152560910D01*
X118818569Y-152773110D01*
X118767560Y-153025000D01*
X118050000Y-153025000D01*
X118050000Y-152898690D01*
X117953327Y-152665301D01*
X117774698Y-152486673D01*
X117541309Y-152390000D01*
X117200750Y-152390000D01*
X117042000Y-152548750D01*
X116788000Y-152548750D01*
X116629250Y-152390000D01*
X116288691Y-152390000D01*
X116055302Y-152486673D01*
X115876673Y-152665301D01*
X115780000Y-152898690D01*
X112032440Y-152898690D01*
X112032440Y-152560000D01*
X111988162Y-152324683D01*
X111849090Y-152108559D01*
X111636890Y-151963569D01*
X111385000Y-151912560D01*
X109385000Y-151912560D01*
X109149683Y-151956838D01*
X108933559Y-152095910D01*
X108788569Y-152308110D01*
X108737560Y-152560000D01*
X108737560Y-154160000D01*
X108781838Y-154395317D01*
X108920910Y-154611441D01*
X109133110Y-154756431D01*
X109385000Y-154807440D01*
X109625000Y-154807440D01*
X109625000Y-163927300D01*
X108065000Y-163927300D01*
X108065000Y-163635750D01*
X107906250Y-163477000D01*
X106307000Y-163477000D01*
X106307000Y-163497000D01*
X106053000Y-163497000D01*
X106053000Y-163477000D01*
X106033000Y-163477000D01*
X106033000Y-163223000D01*
X106053000Y-163223000D01*
X106053000Y-161873750D01*
X106307000Y-161873750D01*
X106307000Y-163223000D01*
X107906250Y-163223000D01*
X108065000Y-163064250D01*
X108065000Y-162223691D01*
X107968327Y-161990302D01*
X107789699Y-161811673D01*
X107556310Y-161715000D01*
X106465750Y-161715000D01*
X106307000Y-161873750D01*
X106053000Y-161873750D01*
X105894250Y-161715000D01*
X104803690Y-161715000D01*
X104570301Y-161811673D01*
X104391673Y-161990302D01*
X104295000Y-162223691D01*
X104295000Y-163064250D01*
X104453748Y-163222998D01*
X104409600Y-163222998D01*
X103283200Y-162096598D01*
X103283200Y-160241800D01*
X103225348Y-159950961D01*
X103060601Y-159704399D01*
X102167351Y-158811149D01*
X102453629Y-158525370D01*
X102526448Y-158350000D01*
X104282560Y-158350000D01*
X104282560Y-160350000D01*
X104326838Y-160585317D01*
X104465910Y-160801441D01*
X104678110Y-160946431D01*
X104930000Y-160997440D01*
X107430000Y-160997440D01*
X107665317Y-160953162D01*
X107881441Y-160814090D01*
X108026431Y-160601890D01*
X108077440Y-160350000D01*
X108077440Y-158350000D01*
X108033162Y-158114683D01*
X107894090Y-157898559D01*
X107681890Y-157753569D01*
X107430000Y-157702560D01*
X107023170Y-157702560D01*
X107114838Y-157481799D01*
X107115162Y-157109833D01*
X106973117Y-156766057D01*
X106710327Y-156502808D01*
X106366799Y-156360162D01*
X105994833Y-156359838D01*
X105651057Y-156501883D01*
X105387808Y-156764673D01*
X105245162Y-157108201D01*
X105244838Y-157480167D01*
X105336729Y-157702560D01*
X104930000Y-157702560D01*
X104694683Y-157746838D01*
X104478559Y-157885910D01*
X104333569Y-158098110D01*
X104282560Y-158350000D01*
X102526448Y-158350000D01*
X102666757Y-158012100D01*
X102667242Y-157456339D01*
X102455010Y-156942697D01*
X102062370Y-156549371D01*
X101717159Y-156406027D01*
X102001143Y-156288397D01*
X102070608Y-156046213D01*
X101270000Y-155245605D01*
X100469392Y-156046213D01*
X100538857Y-156288397D01*
X100844262Y-156397355D01*
X100479697Y-156547990D01*
X100086371Y-156940630D01*
X99873243Y-157453900D01*
X99872758Y-158009661D01*
X100021647Y-158370000D01*
X99673531Y-158370000D01*
X99661010Y-158339697D01*
X99268370Y-157946371D01*
X98755100Y-157733243D01*
X98752664Y-157733241D01*
X99266303Y-157521010D01*
X99659629Y-157128370D01*
X99872757Y-156615100D01*
X99873242Y-156059339D01*
X99661010Y-155545697D01*
X99268370Y-155152371D01*
X98907185Y-155002394D01*
X99255915Y-154858302D01*
X99860856Y-154858302D01*
X99888638Y-155413368D01*
X100047603Y-155797143D01*
X100289787Y-155866608D01*
X101090395Y-155066000D01*
X101449605Y-155066000D01*
X102250213Y-155866608D01*
X102492397Y-155797143D01*
X102679144Y-155273698D01*
X102651362Y-154718632D01*
X102492397Y-154334857D01*
X102250213Y-154265392D01*
X101449605Y-155066000D01*
X101090395Y-155066000D01*
X100289787Y-154265392D01*
X100047603Y-154334857D01*
X99860856Y-154858302D01*
X99255915Y-154858302D01*
X99266303Y-154854010D01*
X99659629Y-154461370D01*
X99872757Y-153948100D01*
X99873242Y-153392339D01*
X99661010Y-152878697D01*
X99268370Y-152485371D01*
X98755100Y-152272243D01*
X98752664Y-152272241D01*
X99266303Y-152060010D01*
X99659629Y-151667370D01*
X99872757Y-151154100D01*
X99873242Y-150598339D01*
X99661010Y-150084697D01*
X99268370Y-149691371D01*
X98907185Y-149541394D01*
X99266303Y-149393010D01*
X99659629Y-149000370D01*
X99673070Y-148968000D01*
X99969121Y-148968000D01*
X99873243Y-149198900D01*
X99872758Y-149754661D01*
X100084990Y-150268303D01*
X100477630Y-150661629D01*
X100990900Y-150874757D01*
X100993336Y-150874759D01*
X100479697Y-151086990D01*
X100086371Y-151479630D01*
X99873243Y-151992900D01*
X99872758Y-152548661D01*
X100084990Y-153062303D01*
X100477630Y-153455629D01*
X100990900Y-153668757D01*
X101235656Y-153668971D01*
X100922632Y-153684638D01*
X100538857Y-153843603D01*
X100469392Y-154085787D01*
X101270000Y-154886395D01*
X102070608Y-154085787D01*
X102001143Y-153843603D01*
X101512332Y-153669212D01*
X101546661Y-153669242D01*
X101846946Y-153545167D01*
X103559838Y-153545167D01*
X103701883Y-153888943D01*
X103964673Y-154152192D01*
X104308201Y-154294838D01*
X104680167Y-154295162D01*
X104757018Y-154263408D01*
X104781838Y-154395317D01*
X104920910Y-154611441D01*
X105133110Y-154756431D01*
X105385000Y-154807440D01*
X107385000Y-154807440D01*
X107620317Y-154763162D01*
X107836441Y-154624090D01*
X107981431Y-154411890D01*
X108032440Y-154160000D01*
X108032440Y-152560000D01*
X107988162Y-152324683D01*
X107849090Y-152108559D01*
X107636890Y-151963569D01*
X107385000Y-151912560D01*
X105385000Y-151912560D01*
X105149683Y-151956838D01*
X104933559Y-152095910D01*
X104788569Y-152308110D01*
X104758422Y-152456979D01*
X104681799Y-152425162D01*
X104309833Y-152424838D01*
X103966057Y-152566883D01*
X103702808Y-152829673D01*
X103560162Y-153173201D01*
X103559838Y-153545167D01*
X101846946Y-153545167D01*
X102060303Y-153457010D01*
X102453629Y-153064370D01*
X102666757Y-152551100D01*
X102667242Y-151995339D01*
X102455010Y-151481697D01*
X102062370Y-151088371D01*
X101549100Y-150875243D01*
X101546664Y-150875241D01*
X102060303Y-150663010D01*
X102453629Y-150270370D01*
X102666757Y-149757100D01*
X102667242Y-149201339D01*
X102570829Y-148968000D01*
X105921700Y-148968000D01*
X106212539Y-148910148D01*
X106459101Y-148745401D01*
X106512784Y-148691718D01*
X106605910Y-148836441D01*
X106818110Y-148981431D01*
X107070000Y-149032440D01*
X108770000Y-149032440D01*
X109005317Y-148988162D01*
X109221441Y-148849090D01*
X109366431Y-148636890D01*
X109417440Y-148385000D01*
X109417440Y-148066233D01*
X109632701Y-147922401D01*
X109797448Y-147675839D01*
X109855300Y-147385000D01*
X109855300Y-146721302D01*
X112863567Y-143713035D01*
X112896788Y-143889587D01*
X113035860Y-144105711D01*
X113185411Y-144207895D01*
X113197852Y-144270439D01*
X113362599Y-144517001D01*
X113565000Y-144719402D01*
X113565000Y-146451560D01*
X113461400Y-146451560D01*
X113226083Y-146495838D01*
X113009959Y-146634910D01*
X112864969Y-146847110D01*
X112813960Y-147099000D01*
X112813960Y-149131000D01*
X112858238Y-149366317D01*
X112997310Y-149582441D01*
X113209510Y-149727431D01*
X113461400Y-149778440D01*
X115188600Y-149778440D01*
X115423917Y-149734162D01*
X115640041Y-149595090D01*
X115785031Y-149382890D01*
X115793400Y-149341561D01*
X115805330Y-149359415D01*
X116291511Y-149684271D01*
X116865000Y-149798345D01*
X117438489Y-149684271D01*
X117924670Y-149359415D01*
X118135000Y-149044634D01*
X118345330Y-149359415D01*
X118831511Y-149684271D01*
X119405000Y-149798345D01*
X119978489Y-149684271D01*
X120464670Y-149359415D01*
X120789526Y-148873234D01*
X120903600Y-148299745D01*
X120903600Y-147930255D01*
X120789526Y-147356766D01*
X120464670Y-146870585D01*
X119978489Y-146545729D01*
X119405000Y-146431655D01*
X118831511Y-146545729D01*
X118345330Y-146870585D01*
X118135000Y-147185366D01*
X117924670Y-146870585D01*
X117438489Y-146545729D01*
X116865000Y-146431655D01*
X116291511Y-146545729D01*
X115805330Y-146870585D01*
X115795757Y-146884913D01*
X115791762Y-146863683D01*
X115652690Y-146647559D01*
X115440490Y-146502569D01*
X115188600Y-146451560D01*
X115085000Y-146451560D01*
X115085000Y-146305750D01*
X127159000Y-146305750D01*
X127159000Y-147009910D01*
X127255673Y-147243299D01*
X127434302Y-147421927D01*
X127667691Y-147518600D01*
X128524250Y-147518600D01*
X128683000Y-147359850D01*
X128683000Y-146147000D01*
X127317750Y-146147000D01*
X127159000Y-146305750D01*
X115085000Y-146305750D01*
X115085000Y-144404600D01*
X115027148Y-144113761D01*
X114892412Y-143912114D01*
X114896481Y-143906160D01*
X114947490Y-143654270D01*
X114947490Y-143640750D01*
X117040000Y-143640750D01*
X117040000Y-144281310D01*
X117136673Y-144514699D01*
X117315302Y-144693327D01*
X117548691Y-144790000D01*
X118389250Y-144790000D01*
X118548000Y-144631250D01*
X118548000Y-143482000D01*
X118802000Y-143482000D01*
X118802000Y-144631250D01*
X118960750Y-144790000D01*
X119801309Y-144790000D01*
X120034698Y-144693327D01*
X120213327Y-144514699D01*
X120310000Y-144281310D01*
X120310000Y-143640750D01*
X120151250Y-143482000D01*
X118802000Y-143482000D01*
X118548000Y-143482000D01*
X117198750Y-143482000D01*
X117040000Y-143640750D01*
X114947490Y-143640750D01*
X114947490Y-142854170D01*
X114903212Y-142618853D01*
X114780846Y-142428690D01*
X117040000Y-142428690D01*
X117040000Y-143069250D01*
X117198750Y-143228000D01*
X118548000Y-143228000D01*
X118548000Y-142078750D01*
X118802000Y-142078750D01*
X118802000Y-143228000D01*
X120151250Y-143228000D01*
X120310000Y-143069250D01*
X120310000Y-142555000D01*
X121027560Y-142555000D01*
X121027560Y-144155000D01*
X121071838Y-144390317D01*
X121210910Y-144606441D01*
X121423110Y-144751431D01*
X121675000Y-144802440D01*
X123675000Y-144802440D01*
X123910317Y-144758162D01*
X124126441Y-144619090D01*
X124271431Y-144406890D01*
X124300715Y-144262282D01*
X124403201Y-144304838D01*
X124775167Y-144305162D01*
X125118943Y-144163117D01*
X125382192Y-143900327D01*
X125524838Y-143556799D01*
X125525162Y-143184833D01*
X125383117Y-142841057D01*
X125120327Y-142577808D01*
X124776799Y-142435162D01*
X124404833Y-142434838D01*
X124307405Y-142475094D01*
X124278162Y-142319683D01*
X124139090Y-142103559D01*
X123926890Y-141958569D01*
X123675000Y-141907560D01*
X121675000Y-141907560D01*
X121439683Y-141951838D01*
X121223559Y-142090910D01*
X121078569Y-142303110D01*
X121027560Y-142555000D01*
X120310000Y-142555000D01*
X120310000Y-142428690D01*
X120213327Y-142195301D01*
X120034698Y-142016673D01*
X119801309Y-141920000D01*
X118960750Y-141920000D01*
X118802000Y-142078750D01*
X118548000Y-142078750D01*
X118389250Y-141920000D01*
X117548691Y-141920000D01*
X117315302Y-142016673D01*
X117136673Y-142195301D01*
X117040000Y-142428690D01*
X114780846Y-142428690D01*
X114764140Y-142402729D01*
X114617787Y-142302730D01*
X115250050Y-142302730D01*
X115485367Y-142258452D01*
X115701491Y-142119380D01*
X115846481Y-141907180D01*
X115897490Y-141655290D01*
X115897490Y-140940000D01*
X127126655Y-140940000D01*
X127240729Y-141513489D01*
X127565585Y-141999670D01*
X127880366Y-142210000D01*
X127565585Y-142420330D01*
X127240729Y-142906511D01*
X127126655Y-143480000D01*
X127240729Y-144053489D01*
X127565585Y-144539670D01*
X127587780Y-144554500D01*
X127434302Y-144618073D01*
X127255673Y-144796701D01*
X127159000Y-145030090D01*
X127159000Y-145734250D01*
X127317750Y-145893000D01*
X128683000Y-145893000D01*
X128683000Y-145873000D01*
X128937000Y-145873000D01*
X128937000Y-145893000D01*
X130302250Y-145893000D01*
X130461000Y-145734250D01*
X130461000Y-145030090D01*
X130364327Y-144796701D01*
X130185698Y-144618073D01*
X130032220Y-144554500D01*
X130054415Y-144539670D01*
X130379271Y-144053489D01*
X130493345Y-143480000D01*
X130379271Y-142906511D01*
X130054415Y-142420330D01*
X129739634Y-142210000D01*
X130054415Y-141999670D01*
X130379271Y-141513489D01*
X130493345Y-140940000D01*
X130379271Y-140366511D01*
X130054415Y-139880330D01*
X129568234Y-139555474D01*
X128994745Y-139441400D01*
X128625255Y-139441400D01*
X128051766Y-139555474D01*
X127565585Y-139880330D01*
X127240729Y-140366511D01*
X127126655Y-140940000D01*
X115897490Y-140940000D01*
X115897490Y-140855190D01*
X115853212Y-140619873D01*
X115714140Y-140403749D01*
X115501940Y-140258759D01*
X115250050Y-140207750D01*
X115247300Y-140207750D01*
X115247300Y-138023300D01*
X115189448Y-137732461D01*
X115189448Y-137732460D01*
X115024701Y-137485899D01*
X114024412Y-136485610D01*
X114159101Y-136541538D01*
X114531067Y-136541862D01*
X114874843Y-136399817D01*
X115138092Y-136137027D01*
X115280738Y-135793499D01*
X115280793Y-135729919D01*
X115296148Y-135706939D01*
X115308908Y-135642788D01*
X115445491Y-135554900D01*
X115590481Y-135342700D01*
X115641490Y-135090810D01*
X115641490Y-134290710D01*
X115597212Y-134055393D01*
X115458140Y-133839269D01*
X115245940Y-133694279D01*
X114994050Y-133643270D01*
X114359745Y-133643270D01*
X114495491Y-133555920D01*
X114566633Y-133451800D01*
X117661560Y-133451800D01*
X117661560Y-135023600D01*
X117705838Y-135258917D01*
X117844910Y-135475041D01*
X118057110Y-135620031D01*
X118098439Y-135628400D01*
X118080585Y-135640330D01*
X117755729Y-136126511D01*
X117641655Y-136700000D01*
X117755729Y-137273489D01*
X118080585Y-137759670D01*
X118395366Y-137970000D01*
X118080585Y-138180330D01*
X117755729Y-138666511D01*
X117641655Y-139240000D01*
X117755729Y-139813489D01*
X118080585Y-140299670D01*
X118566766Y-140624526D01*
X119140255Y-140738600D01*
X119509745Y-140738600D01*
X120083234Y-140624526D01*
X120569415Y-140299670D01*
X120894271Y-139813489D01*
X120967418Y-139445750D01*
X121945000Y-139445750D01*
X121945000Y-140286309D01*
X122041673Y-140519698D01*
X122220301Y-140698327D01*
X122453690Y-140795000D01*
X123544250Y-140795000D01*
X123703000Y-140636250D01*
X123703000Y-139287000D01*
X123957000Y-139287000D01*
X123957000Y-140636250D01*
X124115750Y-140795000D01*
X125206310Y-140795000D01*
X125439699Y-140698327D01*
X125618327Y-140519698D01*
X125715000Y-140286309D01*
X125715000Y-139445750D01*
X125556250Y-139287000D01*
X123957000Y-139287000D01*
X123703000Y-139287000D01*
X122103750Y-139287000D01*
X121945000Y-139445750D01*
X120967418Y-139445750D01*
X121008345Y-139240000D01*
X120894271Y-138666511D01*
X120569415Y-138180330D01*
X120349955Y-138033691D01*
X121945000Y-138033691D01*
X121945000Y-138874250D01*
X122103750Y-139033000D01*
X123703000Y-139033000D01*
X123703000Y-137683750D01*
X123957000Y-137683750D01*
X123957000Y-139033000D01*
X125556250Y-139033000D01*
X125715000Y-138874250D01*
X125715000Y-138033691D01*
X125618327Y-137800302D01*
X125439699Y-137621673D01*
X125206310Y-137525000D01*
X124115750Y-137525000D01*
X123957000Y-137683750D01*
X123703000Y-137683750D01*
X123544250Y-137525000D01*
X122453690Y-137525000D01*
X122220301Y-137621673D01*
X122041673Y-137800302D01*
X121945000Y-138033691D01*
X120349955Y-138033691D01*
X120254634Y-137970000D01*
X120569415Y-137759670D01*
X120894271Y-137273489D01*
X121008345Y-136700000D01*
X120894271Y-136126511D01*
X120569415Y-135640330D01*
X120555087Y-135630757D01*
X120576317Y-135626762D01*
X120792441Y-135487690D01*
X120937431Y-135275490D01*
X120988440Y-135023600D01*
X120988440Y-133296400D01*
X120944162Y-133061083D01*
X120805090Y-132844959D01*
X120592890Y-132699969D01*
X120341000Y-132648960D01*
X120006233Y-132648960D01*
X119862401Y-132433699D01*
X119583101Y-132154399D01*
X119336539Y-131989652D01*
X119045700Y-131931800D01*
X114567026Y-131931800D01*
X114508140Y-131840289D01*
X114295940Y-131695299D01*
X114044050Y-131644290D01*
X113243950Y-131644290D01*
X113008633Y-131688568D01*
X112792509Y-131827640D01*
X112647519Y-132039840D01*
X112596510Y-132291730D01*
X112596510Y-133091830D01*
X112640788Y-133327147D01*
X112779860Y-133543271D01*
X112926213Y-133643270D01*
X112293950Y-133643270D01*
X112058633Y-133687548D01*
X111842509Y-133826620D01*
X111771326Y-133930800D01*
X110655902Y-133930800D01*
X109967701Y-133242599D01*
X109752440Y-133098767D01*
X109752440Y-132780000D01*
X109708162Y-132544683D01*
X109569090Y-132328559D01*
X109356890Y-132183569D01*
X109105000Y-132132560D01*
X107405000Y-132132560D01*
X107169683Y-132176838D01*
X106953559Y-132315910D01*
X106808569Y-132528110D01*
X106757560Y-132780000D01*
X106757560Y-134780000D01*
X106801838Y-135015317D01*
X106940910Y-135231441D01*
X107153110Y-135376431D01*
X107405000Y-135427440D01*
X109105000Y-135427440D01*
X109340317Y-135383162D01*
X109556441Y-135244090D01*
X109663257Y-135087759D01*
X109803699Y-135228201D01*
X110050261Y-135392948D01*
X110341100Y-135450800D01*
X111771013Y-135450800D01*
X111829860Y-135542251D01*
X111934000Y-135613407D01*
X111934000Y-136230000D01*
X111991852Y-136520839D01*
X112156599Y-136767401D01*
X113727300Y-138338102D01*
X113727300Y-139180230D01*
X113470327Y-138922808D01*
X113126799Y-138780162D01*
X112754833Y-138779838D01*
X112411057Y-138921883D01*
X112147808Y-139184673D01*
X112005162Y-139528201D01*
X112004838Y-139900167D01*
X112146883Y-140243943D01*
X112180000Y-140277118D01*
X112180000Y-140338662D01*
X112098509Y-140391100D01*
X111953519Y-140603300D01*
X111902510Y-140855190D01*
X111902510Y-141655290D01*
X111946788Y-141890607D01*
X112085860Y-142106731D01*
X112225117Y-142201881D01*
X108689438Y-145737560D01*
X107070000Y-145737560D01*
X106834683Y-145781838D01*
X106618559Y-145920910D01*
X106473569Y-146133110D01*
X106422560Y-146385000D01*
X106422560Y-146703767D01*
X106207299Y-146847599D01*
X105606898Y-147448000D01*
X102518144Y-147448000D01*
X102666757Y-147090100D01*
X102667242Y-146534339D01*
X102455010Y-146020697D01*
X102062370Y-145627371D01*
X101578474Y-145426440D01*
X102032000Y-145426440D01*
X102267317Y-145382162D01*
X102483441Y-145243090D01*
X102628431Y-145030890D01*
X102679440Y-144779000D01*
X102679440Y-143285167D01*
X105054838Y-143285167D01*
X105196883Y-143628943D01*
X105459673Y-143892192D01*
X105803201Y-144034838D01*
X106175167Y-144035162D01*
X106345826Y-143964648D01*
X106422560Y-144015920D01*
X106422560Y-144385000D01*
X106466838Y-144620317D01*
X106605910Y-144836441D01*
X106818110Y-144981431D01*
X107070000Y-145032440D01*
X108770000Y-145032440D01*
X109005317Y-144988162D01*
X109221441Y-144849090D01*
X109366431Y-144636890D01*
X109417440Y-144385000D01*
X109417440Y-142385000D01*
X109373162Y-142149683D01*
X109234090Y-141933559D01*
X109021890Y-141788569D01*
X108770000Y-141737560D01*
X107070000Y-141737560D01*
X106834683Y-141781838D01*
X106618559Y-141920910D01*
X106473569Y-142133110D01*
X106444563Y-142276348D01*
X106176799Y-142165162D01*
X105804833Y-142164838D01*
X105461057Y-142306883D01*
X105197808Y-142569673D01*
X105055162Y-142913201D01*
X105054838Y-143285167D01*
X102679440Y-143285167D01*
X102679440Y-143255000D01*
X102635162Y-143019683D01*
X102496090Y-142803559D01*
X102283890Y-142658569D01*
X102032000Y-142607560D01*
X100508000Y-142607560D01*
X100272683Y-142651838D01*
X100056559Y-142790910D01*
X99911569Y-143003110D01*
X99860560Y-143255000D01*
X99860560Y-144779000D01*
X99904838Y-145014317D01*
X100043910Y-145230441D01*
X100256110Y-145375431D01*
X100508000Y-145426440D01*
X100962646Y-145426440D01*
X100479697Y-145625990D01*
X100086371Y-146018630D01*
X99873243Y-146531900D01*
X99872758Y-147087661D01*
X100021647Y-147448000D01*
X99673531Y-147448000D01*
X99661010Y-147417697D01*
X99268370Y-147024371D01*
X98755100Y-146811243D01*
X98752664Y-146811241D01*
X99266303Y-146599010D01*
X99659629Y-146206370D01*
X99872757Y-145693100D01*
X99873242Y-145137339D01*
X99661010Y-144623697D01*
X99268370Y-144230371D01*
X98755100Y-144017243D01*
X98199339Y-144016758D01*
X97685697Y-144228990D01*
X97292371Y-144621630D01*
X97079243Y-145134900D01*
X97078758Y-145690661D01*
X95710000Y-145690661D01*
X95710000Y-137535021D01*
X97332560Y-137535021D01*
X97718437Y-138468915D01*
X98432327Y-139184052D01*
X99365546Y-139571559D01*
X100376021Y-139572440D01*
X101309915Y-139186563D01*
X102025052Y-138472673D01*
X102412559Y-137539454D01*
X102413221Y-136780000D01*
X106757560Y-136780000D01*
X106757560Y-138780000D01*
X106801838Y-139015317D01*
X106940910Y-139231441D01*
X107153110Y-139376431D01*
X107273094Y-139400728D01*
X107220162Y-139528201D01*
X107219838Y-139900167D01*
X107361883Y-140243943D01*
X107624673Y-140507192D01*
X107968201Y-140649838D01*
X108340167Y-140650162D01*
X108683943Y-140508117D01*
X108947192Y-140245327D01*
X109089838Y-139901799D01*
X109090162Y-139529833D01*
X109047854Y-139427440D01*
X109105000Y-139427440D01*
X109340317Y-139383162D01*
X109556441Y-139244090D01*
X109701431Y-139031890D01*
X109752440Y-138780000D01*
X109752440Y-136780000D01*
X109708162Y-136544683D01*
X109569090Y-136328559D01*
X109356890Y-136183569D01*
X109105000Y-136132560D01*
X107405000Y-136132560D01*
X107169683Y-136176838D01*
X106953559Y-136315910D01*
X106808569Y-136528110D01*
X106757560Y-136780000D01*
X102413221Y-136780000D01*
X102413440Y-136528979D01*
X102027563Y-135595085D01*
X101313673Y-134879948D01*
X100380454Y-134492441D01*
X99369979Y-134491560D01*
X98436085Y-134877437D01*
X97720948Y-135591327D01*
X97333441Y-136524546D01*
X97332560Y-137535021D01*
X95710000Y-137535021D01*
X95710000Y-130475021D01*
X97332560Y-130475021D01*
X97718437Y-131408915D01*
X98432327Y-132124052D01*
X99365546Y-132511559D01*
X100376021Y-132512440D01*
X101309915Y-132126563D01*
X102025052Y-131412673D01*
X102412559Y-130479454D01*
X102413168Y-129780167D01*
X119104838Y-129780167D01*
X119246883Y-130123943D01*
X119509673Y-130387192D01*
X119853201Y-130529838D01*
X120225167Y-130530162D01*
X120568943Y-130388117D01*
X120602118Y-130355000D01*
X120622560Y-130355000D01*
X120622560Y-130395000D01*
X120666838Y-130630317D01*
X120805910Y-130846441D01*
X121018110Y-130991431D01*
X121270000Y-131042440D01*
X123270000Y-131042440D01*
X123505317Y-130998162D01*
X123721441Y-130859090D01*
X123866431Y-130646890D01*
X123917440Y-130395000D01*
X123917440Y-128795000D01*
X123873162Y-128559683D01*
X123734090Y-128343559D01*
X123521890Y-128198569D01*
X123270000Y-128147560D01*
X121270000Y-128147560D01*
X121034683Y-128191838D01*
X120818559Y-128330910D01*
X120673569Y-128543110D01*
X120622560Y-128795000D01*
X120622560Y-128835000D01*
X120602463Y-128835000D01*
X120570327Y-128802808D01*
X120226799Y-128660162D01*
X119854833Y-128659838D01*
X119511057Y-128801883D01*
X119247808Y-129064673D01*
X119105162Y-129408201D01*
X119104838Y-129780167D01*
X102413168Y-129780167D01*
X102413440Y-129468979D01*
X102027563Y-128535085D01*
X101313673Y-127819948D01*
X100380454Y-127432441D01*
X99369979Y-127431560D01*
X98436085Y-127817437D01*
X97720948Y-128531327D01*
X97333441Y-129464546D01*
X97332560Y-130475021D01*
X95710000Y-130475021D01*
X95710000Y-123404350D01*
X95949817Y-91513661D01*
X97078758Y-91513661D01*
X97290990Y-92027303D01*
X97683630Y-92420629D01*
X98196900Y-92633757D01*
X98199336Y-92633759D01*
X97685697Y-92845990D01*
X97292371Y-93238630D01*
X97079243Y-93751900D01*
X97078758Y-94307661D01*
X97290990Y-94821303D01*
X97683630Y-95214629D01*
X98196900Y-95427757D01*
X98199336Y-95427759D01*
X97685697Y-95639990D01*
X97292371Y-96032630D01*
X97079243Y-96545900D01*
X97078758Y-97101661D01*
X97290990Y-97615303D01*
X97683630Y-98008629D01*
X98044815Y-98158606D01*
X97685697Y-98306990D01*
X97292371Y-98699630D01*
X97079243Y-99212900D01*
X97078758Y-99768661D01*
X97290990Y-100282303D01*
X97683630Y-100675629D01*
X98196900Y-100888757D01*
X98199336Y-100888759D01*
X97685697Y-101100990D01*
X97292371Y-101493630D01*
X97079243Y-102006900D01*
X97078758Y-102562661D01*
X97290990Y-103076303D01*
X97683630Y-103469629D01*
X98196900Y-103682757D01*
X98199336Y-103682759D01*
X97685697Y-103894990D01*
X97292371Y-104287630D01*
X97079243Y-104800900D01*
X97078758Y-105356661D01*
X97290990Y-105870303D01*
X97683630Y-106263629D01*
X98196900Y-106476757D01*
X98199336Y-106476759D01*
X97685697Y-106688990D01*
X97292371Y-107081630D01*
X97079243Y-107594900D01*
X97078758Y-108150661D01*
X97290990Y-108664303D01*
X97683630Y-109057629D01*
X98196900Y-109270757D01*
X98199336Y-109270759D01*
X97685697Y-109482990D01*
X97292371Y-109875630D01*
X97079243Y-110388900D01*
X97078758Y-110944661D01*
X97290990Y-111458303D01*
X97683630Y-111851629D01*
X98044815Y-112001606D01*
X97685697Y-112149990D01*
X97292371Y-112542630D01*
X97079243Y-113055900D01*
X97078758Y-113611661D01*
X97290990Y-114125303D01*
X97683630Y-114518629D01*
X98196900Y-114731757D01*
X98199336Y-114731759D01*
X97685697Y-114943990D01*
X97292371Y-115336630D01*
X97079243Y-115849900D01*
X97078758Y-116405661D01*
X97290990Y-116919303D01*
X97683630Y-117312629D01*
X98196900Y-117525757D01*
X98199336Y-117525759D01*
X97685697Y-117737990D01*
X97292371Y-118130630D01*
X97079243Y-118643900D01*
X97078758Y-119199661D01*
X97290990Y-119713303D01*
X97683630Y-120106629D01*
X98196900Y-120319757D01*
X98199336Y-120319759D01*
X97685697Y-120531990D01*
X97292371Y-120924630D01*
X97079243Y-121437900D01*
X97078758Y-121993661D01*
X97290990Y-122507303D01*
X97683630Y-122900629D01*
X98196900Y-123113757D01*
X98752661Y-123114242D01*
X99266303Y-122902010D01*
X99659629Y-122509370D01*
X99872757Y-121996100D01*
X99873242Y-121440339D01*
X99661010Y-120926697D01*
X99268370Y-120533371D01*
X98755100Y-120320243D01*
X98752664Y-120320241D01*
X99266303Y-120108010D01*
X99659629Y-119715370D01*
X99872757Y-119202100D01*
X99873242Y-118646339D01*
X99661010Y-118132697D01*
X99268370Y-117739371D01*
X98755100Y-117526243D01*
X98752664Y-117526241D01*
X99266303Y-117314010D01*
X99659629Y-116921370D01*
X99872757Y-116408100D01*
X99873242Y-115852339D01*
X99661010Y-115338697D01*
X99268370Y-114945371D01*
X98755100Y-114732243D01*
X98752664Y-114732241D01*
X99266303Y-114520010D01*
X99659629Y-114127370D01*
X99872757Y-113614100D01*
X99873242Y-113058339D01*
X99661010Y-112544697D01*
X99268370Y-112151371D01*
X98907185Y-112001394D01*
X99266303Y-111853010D01*
X99659629Y-111460370D01*
X99872757Y-110947100D01*
X99873242Y-110391339D01*
X99661010Y-109877697D01*
X99268370Y-109484371D01*
X98755100Y-109271243D01*
X98752664Y-109271241D01*
X99266303Y-109059010D01*
X99659629Y-108666370D01*
X99872757Y-108153100D01*
X99873242Y-107597339D01*
X99661010Y-107083697D01*
X99268370Y-106690371D01*
X98755100Y-106477243D01*
X98752664Y-106477241D01*
X99266303Y-106265010D01*
X99659629Y-105872370D01*
X99872757Y-105359100D01*
X99873242Y-104803339D01*
X99661010Y-104289697D01*
X99268370Y-103896371D01*
X98755100Y-103683243D01*
X98752664Y-103683241D01*
X99266303Y-103471010D01*
X99659629Y-103078370D01*
X99872757Y-102565100D01*
X99873242Y-102009339D01*
X99661010Y-101495697D01*
X99268370Y-101102371D01*
X98755100Y-100889243D01*
X98752664Y-100889241D01*
X99266303Y-100677010D01*
X99659629Y-100284370D01*
X99872757Y-99771100D01*
X99873242Y-99215339D01*
X99661010Y-98701697D01*
X99268370Y-98308371D01*
X98907185Y-98158394D01*
X99266303Y-98010010D01*
X99659629Y-97617370D01*
X99872757Y-97104100D01*
X99873242Y-96548339D01*
X99661010Y-96034697D01*
X99268370Y-95641371D01*
X98755100Y-95428243D01*
X98752664Y-95428241D01*
X99266303Y-95216010D01*
X99659629Y-94823370D01*
X99872757Y-94310100D01*
X99873242Y-93754339D01*
X99661010Y-93240697D01*
X99268370Y-92847371D01*
X98755100Y-92634243D01*
X98752664Y-92634241D01*
X99266303Y-92422010D01*
X99659629Y-92029370D01*
X99872757Y-91516100D01*
X99873242Y-90960339D01*
X99661010Y-90446697D01*
X99268370Y-90053371D01*
X98755100Y-89840243D01*
X98199339Y-89839758D01*
X97685697Y-90051990D01*
X97292371Y-90444630D01*
X97079243Y-90957900D01*
X97078758Y-91513661D01*
X95949817Y-91513661D01*
X95979332Y-87588691D01*
X106230000Y-87588691D01*
X106230000Y-88429250D01*
X106388750Y-88588000D01*
X107538000Y-88588000D01*
X107538000Y-87238750D01*
X107792000Y-87238750D01*
X107792000Y-88588000D01*
X108941250Y-88588000D01*
X109100000Y-88429250D01*
X109100000Y-87588691D01*
X109003327Y-87355302D01*
X108824699Y-87176673D01*
X108591310Y-87080000D01*
X107950750Y-87080000D01*
X107792000Y-87238750D01*
X107538000Y-87238750D01*
X107379250Y-87080000D01*
X106738690Y-87080000D01*
X106505301Y-87176673D01*
X106326673Y-87355302D01*
X106230000Y-87588691D01*
X95979332Y-87588691D01*
X95983903Y-86980750D01*
X110094800Y-86980750D01*
X110094800Y-88571370D01*
X110191473Y-88804759D01*
X110370102Y-88983387D01*
X110603491Y-89080060D01*
X112194110Y-89080060D01*
X112352860Y-88921310D01*
X112352860Y-86822000D01*
X112606860Y-86822000D01*
X112606860Y-88921310D01*
X112765610Y-89080060D01*
X114356229Y-89080060D01*
X114589618Y-88983387D01*
X114768247Y-88804759D01*
X114864920Y-88571370D01*
X114864920Y-86980750D01*
X114706170Y-86822000D01*
X112606860Y-86822000D01*
X112352860Y-86822000D01*
X110253550Y-86822000D01*
X110094800Y-86980750D01*
X95983903Y-86980750D01*
X96010192Y-83485021D01*
X97332560Y-83485021D01*
X97718437Y-84418915D01*
X98432327Y-85134052D01*
X99365546Y-85521559D01*
X100376021Y-85522440D01*
X101309915Y-85136563D01*
X102025052Y-84422673D01*
X102318903Y-83715000D01*
X106217560Y-83715000D01*
X106217560Y-85715000D01*
X106261838Y-85950317D01*
X106400910Y-86166441D01*
X106613110Y-86311431D01*
X106865000Y-86362440D01*
X108465000Y-86362440D01*
X108700317Y-86318162D01*
X108916441Y-86179090D01*
X109061431Y-85966890D01*
X109112440Y-85715000D01*
X109112440Y-84818630D01*
X110094800Y-84818630D01*
X110094800Y-86409250D01*
X110253550Y-86568000D01*
X112352860Y-86568000D01*
X112352860Y-84468690D01*
X112606860Y-84468690D01*
X112606860Y-86568000D01*
X114706170Y-86568000D01*
X114864920Y-86409250D01*
X114864920Y-84818630D01*
X114768247Y-84585241D01*
X114589618Y-84406613D01*
X114557960Y-84393500D01*
X116413585Y-84393500D01*
X116277839Y-84480850D01*
X116132849Y-84693050D01*
X116081840Y-84944940D01*
X116081840Y-88445060D01*
X116126118Y-88680377D01*
X116265190Y-88896501D01*
X116477390Y-89041491D01*
X116729280Y-89092500D01*
X120229400Y-89092500D01*
X120464717Y-89048222D01*
X120680841Y-88909150D01*
X120825831Y-88696950D01*
X120876840Y-88445060D01*
X120876840Y-84944940D01*
X120832562Y-84709623D01*
X120693490Y-84493499D01*
X120481290Y-84348509D01*
X120229400Y-84297500D01*
X117545355Y-84297500D01*
X117681101Y-84210150D01*
X117826091Y-83997950D01*
X117877100Y-83746060D01*
X117877100Y-80245940D01*
X117832822Y-80010623D01*
X117693750Y-79794499D01*
X117481550Y-79649509D01*
X117229660Y-79598500D01*
X113729540Y-79598500D01*
X113494223Y-79642778D01*
X113278099Y-79781850D01*
X113133109Y-79994050D01*
X113082100Y-80245940D01*
X113082100Y-83746060D01*
X113126378Y-83981377D01*
X113265450Y-84197501D01*
X113430010Y-84309940D01*
X112765610Y-84309940D01*
X112606860Y-84468690D01*
X112352860Y-84468690D01*
X112194110Y-84309940D01*
X110603491Y-84309940D01*
X110370102Y-84406613D01*
X110191473Y-84585241D01*
X110094800Y-84818630D01*
X109112440Y-84818630D01*
X109112440Y-83715000D01*
X109068162Y-83479683D01*
X108929090Y-83263559D01*
X108716890Y-83118569D01*
X108465000Y-83067560D01*
X108425000Y-83067560D01*
X108425000Y-82717463D01*
X108457192Y-82685327D01*
X108599838Y-82341799D01*
X108600162Y-81969833D01*
X108458117Y-81626057D01*
X108195327Y-81362808D01*
X107851799Y-81220162D01*
X107479833Y-81219838D01*
X107136057Y-81361883D01*
X106872808Y-81624673D01*
X106730162Y-81968201D01*
X106729838Y-82340167D01*
X106871883Y-82683943D01*
X106905000Y-82717118D01*
X106905000Y-83067560D01*
X106865000Y-83067560D01*
X106629683Y-83111838D01*
X106413559Y-83250910D01*
X106268569Y-83463110D01*
X106217560Y-83715000D01*
X102318903Y-83715000D01*
X102412559Y-83489454D01*
X102413440Y-82478979D01*
X102027563Y-81545085D01*
X101313673Y-80829948D01*
X100380454Y-80442441D01*
X99369979Y-80441560D01*
X98436085Y-80827437D01*
X97720948Y-81541327D01*
X97333441Y-82474546D01*
X97332560Y-83485021D01*
X96010192Y-83485021D01*
X96041055Y-79381026D01*
X137699313Y-79057978D01*
X137707812Y-79882395D01*
M02*
