M48
METRIC,TZ
T1C0.400
T2C0.701
T3C0.813
T4C1.001
T5C1.016
T6C1.905
T7C3.048
%
G90
G05
T1
X104495Y-153360
X105990Y-143100
X106180Y-157295
X107665Y-82155
X108155Y-139715
X112940Y-139715
X114346Y-135607
X116460Y-94690
X120040Y-129595
X121225Y-153825
X123815Y-133130
X124590Y-143370
X127750Y-91935
X128195Y-104265
X128400Y-115605
X133180Y-148035
X136585Y-104240
T2
X133165Y-120315
X133165Y-130475
X136250Y-121755
X136250Y-131915
T3
X111765Y-163435
X114305Y-165975
X116845Y-163435
X125825Y-163170
X128365Y-165710
X130905Y-163170
T4
X129995Y-126785
X129995Y-134405
X133215Y-108340
X133215Y-115960
X142055Y-148760
X142250Y-145255
X142475Y-110435
X142475Y-114245
X147555Y-110435
X147555Y-114245
X149675Y-148760
X149870Y-145255
T5
X98476Y-91237
X98476Y-94031
X98476Y-96825
X98476Y-99492
X98476Y-102286
X98476Y-105080
X98476Y-107874
X98476Y-110668
X98476Y-113335
X98476Y-116129
X98476Y-118923
X98476Y-121717
X98476Y-145414
X98476Y-148208
X98476Y-150875
X98476Y-153669
X98476Y-156336
X98476Y-159130
X98476Y-161924
X101270Y-89840
X101270Y-92634
X101270Y-95428
X101270Y-98222
X101270Y-101016
X101270Y-103683
X101270Y-106477
X101270Y-109271
X101270Y-112065
X101270Y-114859
X101270Y-117526
X101270Y-120320
X101270Y-123114
X101270Y-144017
X101270Y-146811
X101270Y-149478
X101270Y-152272
X101270Y-155066
X101270Y-157733
X101270Y-160527
X101270Y-163194
X110725Y-101030
X110725Y-103570
X110725Y-106110
X110725Y-108650
X111105Y-119815
X111105Y-122355
X111105Y-124895
X111105Y-127435
X113265Y-101030
X113265Y-103570
X113265Y-106110
X113265Y-108650
X113645Y-119815
X113645Y-122355
X113645Y-124895
X113645Y-127435
X114325Y-148115
X116865Y-148115
X119325Y-134160
X119325Y-136700
X119325Y-139240
X119405Y-148115
X121260Y-117785
X121260Y-120325
X121260Y-122865
X121260Y-125405
X123800Y-117785
X123800Y-120325
X123800Y-122865
X123800Y-125405
X128810Y-140940
X128810Y-143480
X128810Y-146020
X134325Y-94160
X134325Y-96700
X134325Y-99240
T6
X142870Y-125530
X142870Y-130610
X142915Y-160750
X142915Y-165830
X143030Y-93520
X143030Y-98600
X145410Y-128070
X145455Y-163290
X145570Y-96060
X147950Y-125530
X147950Y-130610
X147995Y-160750
X147995Y-165830
X148110Y-93520
X148110Y-98600
T7
X99873Y-82982
X99873Y-129972
X99873Y-137032
X99873Y-170306
T4
X112480Y-87694G85X112480Y-85696
G05
X116479Y-81996G85X114480Y-81996
G05
X118479Y-87694G85X118479Y-85696
G05
T0
M30
