G04 #@! TF.FileFunction,Legend,Top*
%FSLAX46Y46*%
G04 Gerber Fmt 4.6, Leading zero omitted, Abs format (unit mm)*
G04 Created by KiCad (PCBNEW 4.0.1-3.201512221401+6198~38~ubuntu15.10.1-stable) date Sat 12 Nov 2016 04:44:46 AM PST*
%MOMM*%
G01*
G04 APERTURE LIST*
%ADD10C,0.100000*%
%ADD11C,0.300000*%
%ADD12C,0.150000*%
G04 APERTURE END LIST*
D10*
D11*
X105173573Y-173340000D02*
X105102145Y-173268571D01*
X104959288Y-173054286D01*
X104887859Y-172911429D01*
X104816430Y-172697143D01*
X104745002Y-172340000D01*
X104745002Y-172054286D01*
X104816430Y-171697143D01*
X104887859Y-171482857D01*
X104959288Y-171340000D01*
X105102145Y-171125714D01*
X105173573Y-171054286D01*
X106602145Y-172625714D02*
X106530716Y-172697143D01*
X106316430Y-172768571D01*
X106173573Y-172768571D01*
X105959288Y-172697143D01*
X105816430Y-172554286D01*
X105745002Y-172411429D01*
X105673573Y-172125714D01*
X105673573Y-171911429D01*
X105745002Y-171625714D01*
X105816430Y-171482857D01*
X105959288Y-171340000D01*
X106173573Y-171268571D01*
X106316430Y-171268571D01*
X106530716Y-171340000D01*
X106602145Y-171411429D01*
X107102145Y-173340000D02*
X107173573Y-173268571D01*
X107316430Y-173054286D01*
X107387859Y-172911429D01*
X107459288Y-172697143D01*
X107530716Y-172340000D01*
X107530716Y-172054286D01*
X107459288Y-171697143D01*
X107387859Y-171482857D01*
X107316430Y-171340000D01*
X107173573Y-171125714D01*
X107102145Y-171054286D01*
X109316430Y-171411429D02*
X109387859Y-171340000D01*
X109530716Y-171268571D01*
X109887859Y-171268571D01*
X110030716Y-171340000D01*
X110102145Y-171411429D01*
X110173573Y-171554286D01*
X110173573Y-171697143D01*
X110102145Y-171911429D01*
X109245002Y-172768571D01*
X110173573Y-172768571D01*
X111102144Y-171268571D02*
X111245001Y-171268571D01*
X111387858Y-171340000D01*
X111459287Y-171411429D01*
X111530716Y-171554286D01*
X111602144Y-171840000D01*
X111602144Y-172197143D01*
X111530716Y-172482857D01*
X111459287Y-172625714D01*
X111387858Y-172697143D01*
X111245001Y-172768571D01*
X111102144Y-172768571D01*
X110959287Y-172697143D01*
X110887858Y-172625714D01*
X110816430Y-172482857D01*
X110745001Y-172197143D01*
X110745001Y-171840000D01*
X110816430Y-171554286D01*
X110887858Y-171411429D01*
X110959287Y-171340000D01*
X111102144Y-171268571D01*
X113030715Y-172768571D02*
X112173572Y-172768571D01*
X112602144Y-172768571D02*
X112602144Y-171268571D01*
X112459287Y-171482857D01*
X112316429Y-171625714D01*
X112173572Y-171697143D01*
X114316429Y-171268571D02*
X114030715Y-171268571D01*
X113887858Y-171340000D01*
X113816429Y-171411429D01*
X113673572Y-171625714D01*
X113602143Y-171911429D01*
X113602143Y-172482857D01*
X113673572Y-172625714D01*
X113745000Y-172697143D01*
X113887858Y-172768571D01*
X114173572Y-172768571D01*
X114316429Y-172697143D01*
X114387858Y-172625714D01*
X114459286Y-172482857D01*
X114459286Y-172125714D01*
X114387858Y-171982857D01*
X114316429Y-171911429D01*
X114173572Y-171840000D01*
X113887858Y-171840000D01*
X113745000Y-171911429D01*
X113673572Y-171982857D01*
X113602143Y-172125714D01*
X116245000Y-172768571D02*
X116245000Y-171268571D01*
X116245000Y-171840000D02*
X116387857Y-171768571D01*
X116673571Y-171768571D01*
X116816428Y-171840000D01*
X116887857Y-171911429D01*
X116959286Y-172054286D01*
X116959286Y-172482857D01*
X116887857Y-172625714D01*
X116816428Y-172697143D01*
X116673571Y-172768571D01*
X116387857Y-172768571D01*
X116245000Y-172697143D01*
X117459286Y-171768571D02*
X117816429Y-172768571D01*
X118173571Y-171768571D02*
X117816429Y-172768571D01*
X117673571Y-173125714D01*
X117602143Y-173197143D01*
X117459286Y-173268571D01*
X119816428Y-172697143D02*
X120030714Y-172768571D01*
X120387857Y-172768571D01*
X120530714Y-172697143D01*
X120602143Y-172625714D01*
X120673571Y-172482857D01*
X120673571Y-172340000D01*
X120602143Y-172197143D01*
X120530714Y-172125714D01*
X120387857Y-172054286D01*
X120102143Y-171982857D01*
X119959285Y-171911429D01*
X119887857Y-171840000D01*
X119816428Y-171697143D01*
X119816428Y-171554286D01*
X119887857Y-171411429D01*
X119959285Y-171340000D01*
X120102143Y-171268571D01*
X120459285Y-171268571D01*
X120673571Y-171340000D01*
X121102142Y-171768571D02*
X121673571Y-171768571D01*
X121316428Y-171268571D02*
X121316428Y-172554286D01*
X121387856Y-172697143D01*
X121530714Y-172768571D01*
X121673571Y-172768571D01*
X122744999Y-172697143D02*
X122602142Y-172768571D01*
X122316428Y-172768571D01*
X122173571Y-172697143D01*
X122102142Y-172554286D01*
X122102142Y-171982857D01*
X122173571Y-171840000D01*
X122316428Y-171768571D01*
X122602142Y-171768571D01*
X122744999Y-171840000D01*
X122816428Y-171982857D01*
X122816428Y-172125714D01*
X122102142Y-172268571D01*
X123316428Y-171768571D02*
X123673571Y-172768571D01*
X124030713Y-171768571D01*
X125173570Y-172697143D02*
X125030713Y-172768571D01*
X124744999Y-172768571D01*
X124602142Y-172697143D01*
X124530713Y-172554286D01*
X124530713Y-171982857D01*
X124602142Y-171840000D01*
X124744999Y-171768571D01*
X125030713Y-171768571D01*
X125173570Y-171840000D01*
X125244999Y-171982857D01*
X125244999Y-172125714D01*
X124530713Y-172268571D01*
X126887856Y-171268571D02*
X127244999Y-172768571D01*
X127530713Y-171697143D01*
X127816427Y-172768571D01*
X128173570Y-171268571D01*
X128744999Y-172768571D02*
X128744999Y-171768571D01*
X128744999Y-171268571D02*
X128673570Y-171340000D01*
X128744999Y-171411429D01*
X128816427Y-171340000D01*
X128744999Y-171268571D01*
X128744999Y-171411429D01*
X129673571Y-172768571D02*
X129530713Y-172697143D01*
X129459285Y-172554286D01*
X129459285Y-171268571D01*
X130173570Y-172697143D02*
X130316427Y-172768571D01*
X130602142Y-172768571D01*
X130744999Y-172697143D01*
X130816427Y-172554286D01*
X130816427Y-172482857D01*
X130744999Y-172340000D01*
X130602142Y-172268571D01*
X130387856Y-172268571D01*
X130244999Y-172197143D01*
X130173570Y-172054286D01*
X130173570Y-171982857D01*
X130244999Y-171840000D01*
X130387856Y-171768571D01*
X130602142Y-171768571D01*
X130744999Y-171840000D01*
X131673571Y-172768571D02*
X131530713Y-172697143D01*
X131459285Y-172625714D01*
X131387856Y-172482857D01*
X131387856Y-172054286D01*
X131459285Y-171911429D01*
X131530713Y-171840000D01*
X131673571Y-171768571D01*
X131887856Y-171768571D01*
X132030713Y-171840000D01*
X132102142Y-171911429D01*
X132173571Y-172054286D01*
X132173571Y-172482857D01*
X132102142Y-172625714D01*
X132030713Y-172697143D01*
X131887856Y-172768571D01*
X131673571Y-172768571D01*
X132816428Y-171768571D02*
X132816428Y-172768571D01*
X132816428Y-171911429D02*
X132887856Y-171840000D01*
X133030714Y-171768571D01*
X133244999Y-171768571D01*
X133387856Y-171840000D01*
X133459285Y-171982857D01*
X133459285Y-172768571D01*
X135316428Y-172768571D02*
X135316428Y-171268571D01*
X136173571Y-172768571D02*
X135530714Y-171911429D01*
X136173571Y-171268571D02*
X135316428Y-172125714D01*
X136744999Y-172340000D02*
X137459285Y-172340000D01*
X136602142Y-172768571D02*
X137102142Y-171268571D01*
X137602142Y-172768571D01*
X138744999Y-171268571D02*
X138459285Y-171268571D01*
X138316428Y-171340000D01*
X138244999Y-171411429D01*
X138102142Y-171625714D01*
X138030713Y-171911429D01*
X138030713Y-172482857D01*
X138102142Y-172625714D01*
X138173570Y-172697143D01*
X138316428Y-172768571D01*
X138602142Y-172768571D01*
X138744999Y-172697143D01*
X138816428Y-172625714D01*
X138887856Y-172482857D01*
X138887856Y-172125714D01*
X138816428Y-171982857D01*
X138744999Y-171911429D01*
X138602142Y-171840000D01*
X138316428Y-171840000D01*
X138173570Y-171911429D01*
X138102142Y-171982857D01*
X138030713Y-172125714D01*
X139459284Y-172697143D02*
X139673570Y-172768571D01*
X140030713Y-172768571D01*
X140173570Y-172697143D01*
X140244999Y-172625714D01*
X140316427Y-172482857D01*
X140316427Y-172340000D01*
X140244999Y-172197143D01*
X140173570Y-172125714D01*
X140030713Y-172054286D01*
X139744999Y-171982857D01*
X139602141Y-171911429D01*
X139530713Y-171840000D01*
X139459284Y-171697143D01*
X139459284Y-171554286D01*
X139530713Y-171411429D01*
X139602141Y-171340000D01*
X139744999Y-171268571D01*
X140102141Y-171268571D01*
X140316427Y-171340000D01*
D12*
X123270000Y-130620000D02*
X125270000Y-130620000D01*
X125270000Y-128570000D02*
X123270000Y-128570000D01*
X132155000Y-151205000D02*
X132155000Y-153205000D01*
X134205000Y-153205000D02*
X134205000Y-151205000D01*
X135590000Y-107470000D02*
X135590000Y-109470000D01*
X137640000Y-109470000D02*
X137640000Y-107470000D01*
X107385000Y-154385000D02*
X109385000Y-154385000D01*
X109385000Y-152335000D02*
X107385000Y-152335000D01*
X145000000Y-152300000D02*
X143000000Y-152300000D01*
X143000000Y-154350000D02*
X145000000Y-154350000D01*
X122680500Y-91195880D02*
X122680500Y-82194120D01*
X126180620Y-91195880D02*
X126180620Y-82194120D01*
X126180620Y-82194120D02*
X111679760Y-82194120D01*
X111679760Y-82194120D02*
X111679760Y-91195880D01*
X111679760Y-91195880D02*
X126180620Y-91195880D01*
X136250460Y-124549480D02*
X136250460Y-123152480D01*
X136250460Y-128994480D02*
X136250460Y-130518480D01*
X135488460Y-128613480D02*
X137012460Y-128613480D01*
X135488460Y-128867480D02*
X137012460Y-128867480D01*
X136250460Y-129121480D02*
X137012460Y-129121480D01*
X137012460Y-129121480D02*
X137012460Y-124549480D01*
X137012460Y-124549480D02*
X135488460Y-124549480D01*
X135488460Y-124549480D02*
X135488460Y-129121480D01*
X135488460Y-129121480D02*
X136250460Y-129121480D01*
X133165460Y-123109480D02*
X133165460Y-121712480D01*
X133165460Y-127554480D02*
X133165460Y-129078480D01*
X132403460Y-127173480D02*
X133927460Y-127173480D01*
X132403460Y-127427480D02*
X133927460Y-127427480D01*
X133165460Y-127681480D02*
X133927460Y-127681480D01*
X133927460Y-127681480D02*
X133927460Y-123109480D01*
X133927460Y-123109480D02*
X132403460Y-123109480D01*
X132403460Y-123109480D02*
X132403460Y-127681480D01*
X132403460Y-127681480D02*
X133165460Y-127681480D01*
X150650000Y-92250000D02*
X155730000Y-92250000D01*
X155730000Y-92250000D02*
X157000000Y-92250000D01*
X157000000Y-92250000D02*
X157000000Y-99870000D01*
X157000000Y-99870000D02*
X150650000Y-99870000D01*
X152045755Y-96060000D02*
G75*
G03X152045755Y-96060000I-6475755J0D01*
G01*
X150490000Y-124260000D02*
X155570000Y-124260000D01*
X155570000Y-124260000D02*
X156840000Y-124260000D01*
X156840000Y-124260000D02*
X156840000Y-131880000D01*
X156840000Y-131880000D02*
X150490000Y-131880000D01*
X151885755Y-128070000D02*
G75*
G03X151885755Y-128070000I-6475755J0D01*
G01*
X150535000Y-159480000D02*
X155615000Y-159480000D01*
X155615000Y-159480000D02*
X156885000Y-159480000D01*
X156885000Y-159480000D02*
X156885000Y-167100000D01*
X156885000Y-167100000D02*
X150535000Y-167100000D01*
X151930755Y-163290000D02*
G75*
G03X151930755Y-163290000I-6475755J0D01*
G01*
X118055000Y-135430000D02*
X118055000Y-140510000D01*
X118055000Y-140510000D02*
X120595000Y-140510000D01*
X120595000Y-140510000D02*
X120595000Y-135430000D01*
X120875000Y-132610000D02*
X120875000Y-134160000D01*
X120595000Y-135430000D02*
X118055000Y-135430000D01*
X117775000Y-134160000D02*
X117775000Y-132610000D01*
X117775000Y-132610000D02*
X120875000Y-132610000D01*
X115595000Y-149385000D02*
X120675000Y-149385000D01*
X120675000Y-149385000D02*
X120675000Y-146845000D01*
X120675000Y-146845000D02*
X115595000Y-146845000D01*
X112775000Y-146565000D02*
X114325000Y-146565000D01*
X115595000Y-146845000D02*
X115595000Y-149385000D01*
X114325000Y-149665000D02*
X112775000Y-149665000D01*
X112775000Y-149665000D02*
X112775000Y-146565000D01*
X130080000Y-144750000D02*
X130080000Y-139670000D01*
X130080000Y-139670000D02*
X127540000Y-139670000D01*
X127540000Y-139670000D02*
X127540000Y-144750000D01*
X127260000Y-147570000D02*
X127260000Y-146020000D01*
X127540000Y-144750000D02*
X130080000Y-144750000D01*
X130360000Y-146020000D02*
X130360000Y-147570000D01*
X130360000Y-147570000D02*
X127260000Y-147570000D01*
X135595000Y-97970000D02*
X135595000Y-92890000D01*
X135595000Y-92890000D02*
X133055000Y-92890000D01*
X133055000Y-92890000D02*
X133055000Y-97970000D01*
X132775000Y-100790000D02*
X132775000Y-99240000D01*
X133055000Y-97970000D02*
X135595000Y-97970000D01*
X135875000Y-99240000D02*
X135875000Y-100790000D01*
X135875000Y-100790000D02*
X132775000Y-100790000D01*
X109835000Y-121085000D02*
X109835000Y-128705000D01*
X109835000Y-128705000D02*
X114915000Y-128705000D01*
X114915000Y-128705000D02*
X114915000Y-118545000D01*
X114915000Y-118545000D02*
X112375000Y-118545000D01*
X111105000Y-118265000D02*
X109555000Y-118265000D01*
X112375000Y-118545000D02*
X112375000Y-121085000D01*
X112375000Y-121085000D02*
X109835000Y-121085000D01*
X109555000Y-118265000D02*
X109555000Y-119815000D01*
X109455000Y-102300000D02*
X109455000Y-109920000D01*
X109455000Y-109920000D02*
X114535000Y-109920000D01*
X114535000Y-109920000D02*
X114535000Y-99760000D01*
X114535000Y-99760000D02*
X111995000Y-99760000D01*
X110725000Y-99480000D02*
X109175000Y-99480000D01*
X111995000Y-99760000D02*
X111995000Y-102300000D01*
X111995000Y-102300000D02*
X109455000Y-102300000D01*
X109175000Y-99480000D02*
X109175000Y-101030000D01*
X119990000Y-119055000D02*
X119990000Y-126675000D01*
X119990000Y-126675000D02*
X125070000Y-126675000D01*
X125070000Y-126675000D02*
X125070000Y-116515000D01*
X125070000Y-116515000D02*
X122530000Y-116515000D01*
X121260000Y-116235000D02*
X119710000Y-116235000D01*
X122530000Y-116515000D02*
X122530000Y-119055000D01*
X122530000Y-119055000D02*
X119990000Y-119055000D01*
X119710000Y-116235000D02*
X119710000Y-117785000D01*
X114943160Y-133039760D02*
X114894900Y-133039760D01*
X112144180Y-133740800D02*
X112144180Y-133039760D01*
X112144180Y-133039760D02*
X112393100Y-133039760D01*
X114943160Y-133039760D02*
X115143820Y-133039760D01*
X115143820Y-133039760D02*
X115143820Y-133740800D01*
X112600840Y-142906240D02*
X112649100Y-142906240D01*
X115399820Y-142205200D02*
X115399820Y-142906240D01*
X115399820Y-142906240D02*
X115150900Y-142906240D01*
X112600840Y-142906240D02*
X112400180Y-142906240D01*
X112400180Y-142906240D02*
X112400180Y-142205200D01*
X107180000Y-136780000D02*
X107180000Y-134780000D01*
X109330000Y-134780000D02*
X109330000Y-136780000D01*
X108995000Y-144385000D02*
X108995000Y-146385000D01*
X106845000Y-146385000D02*
X106845000Y-144385000D01*
X123180000Y-112770000D02*
X121180000Y-112770000D01*
X121180000Y-110620000D02*
X123180000Y-110620000D01*
X122990000Y-108200000D02*
X120990000Y-108200000D01*
X120990000Y-106050000D02*
X122990000Y-106050000D01*
X123115000Y-103375000D02*
X121115000Y-103375000D01*
X121115000Y-101225000D02*
X123115000Y-101225000D01*
X123115000Y-98680000D02*
X121115000Y-98680000D01*
X121115000Y-96530000D02*
X123115000Y-96530000D01*
X131265000Y-128055000D02*
X131265000Y-133135000D01*
X131265000Y-133135000D02*
X128725000Y-133135000D01*
X128725000Y-133135000D02*
X128725000Y-128055000D01*
X128725000Y-128055000D02*
X131265000Y-128055000D01*
X131945000Y-114690000D02*
X131945000Y-109610000D01*
X131945000Y-109610000D02*
X134485000Y-109610000D01*
X134485000Y-109610000D02*
X134485000Y-114690000D01*
X134485000Y-114690000D02*
X131945000Y-114690000D01*
X143520000Y-143985000D02*
X148600000Y-143985000D01*
X148600000Y-143985000D02*
X148600000Y-146525000D01*
X148600000Y-146525000D02*
X143520000Y-146525000D01*
X143520000Y-146525000D02*
X143520000Y-143985000D01*
X143325000Y-147490000D02*
X148405000Y-147490000D01*
X148405000Y-147490000D02*
X148405000Y-150030000D01*
X148405000Y-150030000D02*
X143325000Y-150030000D01*
X143325000Y-150030000D02*
X143325000Y-147490000D01*
X124809000Y-169520000D02*
X124809000Y-169012000D01*
X125825000Y-169520000D02*
X123793000Y-169520000D01*
X125825000Y-167996000D02*
X125825000Y-169520000D01*
X123793000Y-167996000D02*
X123793000Y-169520000D01*
X123539000Y-157836000D02*
X123539000Y-167996000D01*
X133191000Y-167996000D02*
X133191000Y-157836000D01*
X133191000Y-157836000D02*
X132683000Y-157836000D01*
X132683000Y-157836000D02*
X132683000Y-158344000D01*
X132683000Y-158344000D02*
X124047000Y-158344000D01*
X124047000Y-158344000D02*
X124047000Y-157836000D01*
X124047000Y-157836000D02*
X123539000Y-157836000D01*
X133191000Y-167996000D02*
X123539000Y-167996000D01*
X110749000Y-169785000D02*
X110749000Y-169277000D01*
X111765000Y-169785000D02*
X109733000Y-169785000D01*
X111765000Y-168261000D02*
X111765000Y-169785000D01*
X109733000Y-168261000D02*
X109733000Y-169785000D01*
X109479000Y-158101000D02*
X109479000Y-168261000D01*
X119131000Y-168261000D02*
X119131000Y-158101000D01*
X119131000Y-158101000D02*
X118623000Y-158101000D01*
X118623000Y-158101000D02*
X118623000Y-158609000D01*
X118623000Y-158609000D02*
X109987000Y-158609000D01*
X109987000Y-158609000D02*
X109987000Y-158101000D01*
X109987000Y-158101000D02*
X109479000Y-158101000D01*
X119131000Y-168261000D02*
X109479000Y-168261000D01*
X146435000Y-139135000D02*
X146435000Y-137135000D01*
X144385000Y-137135000D02*
X144385000Y-139135000D01*
X127015000Y-118735000D02*
X127015000Y-120735000D01*
X129965000Y-120735000D02*
X129965000Y-118735000D01*
X126720000Y-107875000D02*
X126720000Y-109875000D01*
X129670000Y-109875000D02*
X129670000Y-107875000D01*
X121675000Y-142330000D02*
X119675000Y-142330000D01*
X119675000Y-144380000D02*
X121675000Y-144380000D01*
X104705000Y-160350000D02*
X104705000Y-162350000D01*
X107655000Y-162350000D02*
X107655000Y-160350000D01*
X122355000Y-136160000D02*
X122355000Y-138160000D01*
X125305000Y-138160000D02*
X125305000Y-136160000D01*
X106640000Y-85715000D02*
X106640000Y-87715000D01*
X108690000Y-87715000D02*
X108690000Y-85715000D01*
X113510000Y-93355000D02*
X111510000Y-93355000D01*
X111510000Y-96305000D02*
X113510000Y-96305000D01*
X126275000Y-95465000D02*
X126275000Y-97465000D01*
X129225000Y-97465000D02*
X129225000Y-95465000D01*
X119415000Y-152800000D02*
X117415000Y-152800000D01*
X117415000Y-154850000D02*
X119415000Y-154850000D01*
X119893334Y-128177143D02*
X119845715Y-128224762D01*
X119702858Y-128272381D01*
X119607620Y-128272381D01*
X119464762Y-128224762D01*
X119369524Y-128129524D01*
X119321905Y-128034286D01*
X119274286Y-127843810D01*
X119274286Y-127700952D01*
X119321905Y-127510476D01*
X119369524Y-127415238D01*
X119464762Y-127320000D01*
X119607620Y-127272381D01*
X119702858Y-127272381D01*
X119845715Y-127320000D01*
X119893334Y-127367619D01*
X120845715Y-128272381D02*
X120274286Y-128272381D01*
X120560000Y-128272381D02*
X120560000Y-127272381D01*
X120464762Y-127415238D01*
X120369524Y-127510476D01*
X120274286Y-127558095D01*
X130713334Y-152562143D02*
X130665715Y-152609762D01*
X130522858Y-152657381D01*
X130427620Y-152657381D01*
X130284762Y-152609762D01*
X130189524Y-152514524D01*
X130141905Y-152419286D01*
X130094286Y-152228810D01*
X130094286Y-152085952D01*
X130141905Y-151895476D01*
X130189524Y-151800238D01*
X130284762Y-151705000D01*
X130427620Y-151657381D01*
X130522858Y-151657381D01*
X130665715Y-151705000D01*
X130713334Y-151752619D01*
X131094286Y-151752619D02*
X131141905Y-151705000D01*
X131237143Y-151657381D01*
X131475239Y-151657381D01*
X131570477Y-151705000D01*
X131618096Y-151752619D01*
X131665715Y-151847857D01*
X131665715Y-151943095D01*
X131618096Y-152085952D01*
X131046667Y-152657381D01*
X131665715Y-152657381D01*
X134838334Y-104597143D02*
X134790715Y-104644762D01*
X134647858Y-104692381D01*
X134552620Y-104692381D01*
X134409762Y-104644762D01*
X134314524Y-104549524D01*
X134266905Y-104454286D01*
X134219286Y-104263810D01*
X134219286Y-104120952D01*
X134266905Y-103930476D01*
X134314524Y-103835238D01*
X134409762Y-103740000D01*
X134552620Y-103692381D01*
X134647858Y-103692381D01*
X134790715Y-103740000D01*
X134838334Y-103787619D01*
X135171667Y-103692381D02*
X135790715Y-103692381D01*
X135457381Y-104073333D01*
X135600239Y-104073333D01*
X135695477Y-104120952D01*
X135743096Y-104168571D01*
X135790715Y-104263810D01*
X135790715Y-104501905D01*
X135743096Y-104597143D01*
X135695477Y-104644762D01*
X135600239Y-104692381D01*
X135314524Y-104692381D01*
X135219286Y-104644762D01*
X135171667Y-104597143D01*
X108218334Y-156017143D02*
X108170715Y-156064762D01*
X108027858Y-156112381D01*
X107932620Y-156112381D01*
X107789762Y-156064762D01*
X107694524Y-155969524D01*
X107646905Y-155874286D01*
X107599286Y-155683810D01*
X107599286Y-155540952D01*
X107646905Y-155350476D01*
X107694524Y-155255238D01*
X107789762Y-155160000D01*
X107932620Y-155112381D01*
X108027858Y-155112381D01*
X108170715Y-155160000D01*
X108218334Y-155207619D01*
X109075477Y-155445714D02*
X109075477Y-156112381D01*
X108837381Y-155064762D02*
X108599286Y-155779048D01*
X109218334Y-155779048D01*
X148643334Y-153727143D02*
X148595715Y-153774762D01*
X148452858Y-153822381D01*
X148357620Y-153822381D01*
X148214762Y-153774762D01*
X148119524Y-153679524D01*
X148071905Y-153584286D01*
X148024286Y-153393810D01*
X148024286Y-153250952D01*
X148071905Y-153060476D01*
X148119524Y-152965238D01*
X148214762Y-152870000D01*
X148357620Y-152822381D01*
X148452858Y-152822381D01*
X148595715Y-152870000D01*
X148643334Y-152917619D01*
X149548096Y-152822381D02*
X149071905Y-152822381D01*
X149024286Y-153298571D01*
X149071905Y-153250952D01*
X149167143Y-153203333D01*
X149405239Y-153203333D01*
X149500477Y-153250952D01*
X149548096Y-153298571D01*
X149595715Y-153393810D01*
X149595715Y-153631905D01*
X149548096Y-153727143D01*
X149500477Y-153774762D01*
X149405239Y-153822381D01*
X149167143Y-153822381D01*
X149071905Y-153774762D01*
X149024286Y-153727143D01*
X127827143Y-87994285D02*
X127874762Y-88041904D01*
X127922381Y-88184761D01*
X127922381Y-88279999D01*
X127874762Y-88422857D01*
X127779524Y-88518095D01*
X127684286Y-88565714D01*
X127493810Y-88613333D01*
X127350952Y-88613333D01*
X127160476Y-88565714D01*
X127065238Y-88518095D01*
X126970000Y-88422857D01*
X126922381Y-88279999D01*
X126922381Y-88184761D01*
X126970000Y-88041904D01*
X127017619Y-87994285D01*
X126922381Y-87375238D02*
X126922381Y-87184761D01*
X126970000Y-87089523D01*
X127065238Y-86994285D01*
X127255714Y-86946666D01*
X127589048Y-86946666D01*
X127779524Y-86994285D01*
X127874762Y-87089523D01*
X127922381Y-87184761D01*
X127922381Y-87375238D01*
X127874762Y-87470476D01*
X127779524Y-87565714D01*
X127589048Y-87613333D01*
X127255714Y-87613333D01*
X127065238Y-87565714D01*
X126970000Y-87470476D01*
X126922381Y-87375238D01*
X127922381Y-86518095D02*
X126922381Y-86518095D01*
X127922381Y-85946666D01*
X126922381Y-85946666D01*
X127922381Y-84946666D02*
X127922381Y-85518095D01*
X127922381Y-85232381D02*
X126922381Y-85232381D01*
X127065238Y-85327619D01*
X127160476Y-85422857D01*
X127208095Y-85518095D01*
X135207381Y-128943095D02*
X134207381Y-128943095D01*
X134207381Y-128705000D01*
X134255000Y-128562142D01*
X134350238Y-128466904D01*
X134445476Y-128419285D01*
X134635952Y-128371666D01*
X134778810Y-128371666D01*
X134969286Y-128419285D01*
X135064524Y-128466904D01*
X135159762Y-128562142D01*
X135207381Y-128705000D01*
X135207381Y-128943095D01*
X135207381Y-127419285D02*
X135207381Y-127990714D01*
X135207381Y-127705000D02*
X134207381Y-127705000D01*
X134350238Y-127800238D01*
X134445476Y-127895476D01*
X134493095Y-127990714D01*
X131882381Y-124658095D02*
X130882381Y-124658095D01*
X130882381Y-124420000D01*
X130930000Y-124277142D01*
X131025238Y-124181904D01*
X131120476Y-124134285D01*
X131310952Y-124086666D01*
X131453810Y-124086666D01*
X131644286Y-124134285D01*
X131739524Y-124181904D01*
X131834762Y-124277142D01*
X131882381Y-124420000D01*
X131882381Y-124658095D01*
X130977619Y-123705714D02*
X130930000Y-123658095D01*
X130882381Y-123562857D01*
X130882381Y-123324761D01*
X130930000Y-123229523D01*
X130977619Y-123181904D01*
X131072857Y-123134285D01*
X131168095Y-123134285D01*
X131310952Y-123181904D01*
X131882381Y-123753333D01*
X131882381Y-123134285D01*
X140701667Y-102152381D02*
X140701667Y-102866667D01*
X140654047Y-103009524D01*
X140558809Y-103104762D01*
X140415952Y-103152381D01*
X140320714Y-103152381D01*
X141082619Y-102152381D02*
X141701667Y-102152381D01*
X141368333Y-102533333D01*
X141511191Y-102533333D01*
X141606429Y-102580952D01*
X141654048Y-102628571D01*
X141701667Y-102723810D01*
X141701667Y-102961905D01*
X141654048Y-103057143D01*
X141606429Y-103104762D01*
X141511191Y-103152381D01*
X141225476Y-103152381D01*
X141130238Y-103104762D01*
X141082619Y-103057143D01*
X140041667Y-133552381D02*
X140041667Y-134266667D01*
X139994047Y-134409524D01*
X139898809Y-134504762D01*
X139755952Y-134552381D01*
X139660714Y-134552381D01*
X140946429Y-133885714D02*
X140946429Y-134552381D01*
X140708333Y-133504762D02*
X140470238Y-134219048D01*
X141089286Y-134219048D01*
X139491667Y-165802381D02*
X139491667Y-166516667D01*
X139444047Y-166659524D01*
X139348809Y-166754762D01*
X139205952Y-166802381D01*
X139110714Y-166802381D01*
X140444048Y-165802381D02*
X139967857Y-165802381D01*
X139920238Y-166278571D01*
X139967857Y-166230952D01*
X140063095Y-166183333D01*
X140301191Y-166183333D01*
X140396429Y-166230952D01*
X140444048Y-166278571D01*
X140491667Y-166373810D01*
X140491667Y-166611905D01*
X140444048Y-166707143D01*
X140396429Y-166754762D01*
X140301191Y-166802381D01*
X140063095Y-166802381D01*
X139967857Y-166754762D01*
X139920238Y-166707143D01*
X115996905Y-134357381D02*
X115996905Y-133357381D01*
X116377858Y-133357381D01*
X116473096Y-133405000D01*
X116520715Y-133452619D01*
X116568334Y-133547857D01*
X116568334Y-133690714D01*
X116520715Y-133785952D01*
X116473096Y-133833571D01*
X116377858Y-133881190D01*
X115996905Y-133881190D01*
X117520715Y-134357381D02*
X116949286Y-134357381D01*
X117235000Y-134357381D02*
X117235000Y-133357381D01*
X117139762Y-133500238D01*
X117044524Y-133595476D01*
X116949286Y-133643095D01*
X121086905Y-148542381D02*
X121086905Y-147542381D01*
X121467858Y-147542381D01*
X121563096Y-147590000D01*
X121610715Y-147637619D01*
X121658334Y-147732857D01*
X121658334Y-147875714D01*
X121610715Y-147970952D01*
X121563096Y-148018571D01*
X121467858Y-148066190D01*
X121086905Y-148066190D01*
X122039286Y-147637619D02*
X122086905Y-147590000D01*
X122182143Y-147542381D01*
X122420239Y-147542381D01*
X122515477Y-147590000D01*
X122563096Y-147637619D01*
X122610715Y-147732857D01*
X122610715Y-147828095D01*
X122563096Y-147970952D01*
X121991667Y-148542381D01*
X122610715Y-148542381D01*
X131521905Y-142017381D02*
X131521905Y-141017381D01*
X131902858Y-141017381D01*
X131998096Y-141065000D01*
X132045715Y-141112619D01*
X132093334Y-141207857D01*
X132093334Y-141350714D01*
X132045715Y-141445952D01*
X131998096Y-141493571D01*
X131902858Y-141541190D01*
X131521905Y-141541190D01*
X132426667Y-141017381D02*
X133045715Y-141017381D01*
X132712381Y-141398333D01*
X132855239Y-141398333D01*
X132950477Y-141445952D01*
X132998096Y-141493571D01*
X133045715Y-141588810D01*
X133045715Y-141826905D01*
X132998096Y-141922143D01*
X132950477Y-141969762D01*
X132855239Y-142017381D01*
X132569524Y-142017381D01*
X132474286Y-141969762D01*
X132426667Y-141922143D01*
X133336905Y-91512381D02*
X133336905Y-90512381D01*
X133717858Y-90512381D01*
X133813096Y-90560000D01*
X133860715Y-90607619D01*
X133908334Y-90702857D01*
X133908334Y-90845714D01*
X133860715Y-90940952D01*
X133813096Y-90988571D01*
X133717858Y-91036190D01*
X133336905Y-91036190D01*
X134765477Y-90845714D02*
X134765477Y-91512381D01*
X134527381Y-90464762D02*
X134289286Y-91179048D01*
X134908334Y-91179048D01*
X110366905Y-115167381D02*
X110366905Y-114167381D01*
X110747858Y-114167381D01*
X110843096Y-114215000D01*
X110890715Y-114262619D01*
X110938334Y-114357857D01*
X110938334Y-114500714D01*
X110890715Y-114595952D01*
X110843096Y-114643571D01*
X110747858Y-114691190D01*
X110366905Y-114691190D01*
X111843096Y-114167381D02*
X111366905Y-114167381D01*
X111319286Y-114643571D01*
X111366905Y-114595952D01*
X111462143Y-114548333D01*
X111700239Y-114548333D01*
X111795477Y-114595952D01*
X111843096Y-114643571D01*
X111890715Y-114738810D01*
X111890715Y-114976905D01*
X111843096Y-115072143D01*
X111795477Y-115119762D01*
X111700239Y-115167381D01*
X111462143Y-115167381D01*
X111366905Y-115119762D01*
X111319286Y-115072143D01*
X109986905Y-96382381D02*
X109986905Y-95382381D01*
X110367858Y-95382381D01*
X110463096Y-95430000D01*
X110510715Y-95477619D01*
X110558334Y-95572857D01*
X110558334Y-95715714D01*
X110510715Y-95810952D01*
X110463096Y-95858571D01*
X110367858Y-95906190D01*
X109986905Y-95906190D01*
X111415477Y-95382381D02*
X111225000Y-95382381D01*
X111129762Y-95430000D01*
X111082143Y-95477619D01*
X110986905Y-95620476D01*
X110939286Y-95810952D01*
X110939286Y-96191905D01*
X110986905Y-96287143D01*
X111034524Y-96334762D01*
X111129762Y-96382381D01*
X111320239Y-96382381D01*
X111415477Y-96334762D01*
X111463096Y-96287143D01*
X111510715Y-96191905D01*
X111510715Y-95953810D01*
X111463096Y-95858571D01*
X111415477Y-95810952D01*
X111320239Y-95763333D01*
X111129762Y-95763333D01*
X111034524Y-95810952D01*
X110986905Y-95858571D01*
X110939286Y-95953810D01*
X120521905Y-113137381D02*
X120521905Y-112137381D01*
X120902858Y-112137381D01*
X120998096Y-112185000D01*
X121045715Y-112232619D01*
X121093334Y-112327857D01*
X121093334Y-112470714D01*
X121045715Y-112565952D01*
X120998096Y-112613571D01*
X120902858Y-112661190D01*
X120521905Y-112661190D01*
X121426667Y-112137381D02*
X122093334Y-112137381D01*
X121664762Y-113137381D01*
X112354762Y-131772619D02*
X112259524Y-131725000D01*
X112164286Y-131629762D01*
X112021429Y-131486905D01*
X111926190Y-131439286D01*
X111830952Y-131439286D01*
X111878571Y-131677381D02*
X111783333Y-131629762D01*
X111688095Y-131534524D01*
X111640476Y-131344048D01*
X111640476Y-131010714D01*
X111688095Y-130820238D01*
X111783333Y-130725000D01*
X111878571Y-130677381D01*
X112069048Y-130677381D01*
X112164286Y-130725000D01*
X112259524Y-130820238D01*
X112307143Y-131010714D01*
X112307143Y-131344048D01*
X112259524Y-131534524D01*
X112164286Y-131629762D01*
X112069048Y-131677381D01*
X111878571Y-131677381D01*
X113259524Y-131677381D02*
X112688095Y-131677381D01*
X112973809Y-131677381D02*
X112973809Y-130677381D01*
X112878571Y-130820238D01*
X112783333Y-130915476D01*
X112688095Y-130963095D01*
X115834762Y-145412619D02*
X115739524Y-145365000D01*
X115644286Y-145269762D01*
X115501429Y-145126905D01*
X115406190Y-145079286D01*
X115310952Y-145079286D01*
X115358571Y-145317381D02*
X115263333Y-145269762D01*
X115168095Y-145174524D01*
X115120476Y-144984048D01*
X115120476Y-144650714D01*
X115168095Y-144460238D01*
X115263333Y-144365000D01*
X115358571Y-144317381D01*
X115549048Y-144317381D01*
X115644286Y-144365000D01*
X115739524Y-144460238D01*
X115787143Y-144650714D01*
X115787143Y-144984048D01*
X115739524Y-145174524D01*
X115644286Y-145269762D01*
X115549048Y-145317381D01*
X115358571Y-145317381D01*
X116168095Y-144412619D02*
X116215714Y-144365000D01*
X116310952Y-144317381D01*
X116549048Y-144317381D01*
X116644286Y-144365000D01*
X116691905Y-144412619D01*
X116739524Y-144507857D01*
X116739524Y-144603095D01*
X116691905Y-144745952D01*
X116120476Y-145317381D01*
X116739524Y-145317381D01*
X108153334Y-131727381D02*
X107820000Y-131251190D01*
X107581905Y-131727381D02*
X107581905Y-130727381D01*
X107962858Y-130727381D01*
X108058096Y-130775000D01*
X108105715Y-130822619D01*
X108153334Y-130917857D01*
X108153334Y-131060714D01*
X108105715Y-131155952D01*
X108058096Y-131203571D01*
X107962858Y-131251190D01*
X107581905Y-131251190D01*
X109105715Y-131727381D02*
X108534286Y-131727381D01*
X108820000Y-131727381D02*
X108820000Y-130727381D01*
X108724762Y-130870238D01*
X108629524Y-130965476D01*
X108534286Y-131013095D01*
X106072381Y-145551666D02*
X105596190Y-145885000D01*
X106072381Y-146123095D02*
X105072381Y-146123095D01*
X105072381Y-145742142D01*
X105120000Y-145646904D01*
X105167619Y-145599285D01*
X105262857Y-145551666D01*
X105405714Y-145551666D01*
X105500952Y-145599285D01*
X105548571Y-145646904D01*
X105596190Y-145742142D01*
X105596190Y-146123095D01*
X105167619Y-145170714D02*
X105120000Y-145123095D01*
X105072381Y-145027857D01*
X105072381Y-144789761D01*
X105120000Y-144694523D01*
X105167619Y-144646904D01*
X105262857Y-144599285D01*
X105358095Y-144599285D01*
X105500952Y-144646904D01*
X106072381Y-145218333D01*
X106072381Y-144599285D01*
X117718334Y-110112381D02*
X117385000Y-109636190D01*
X117146905Y-110112381D02*
X117146905Y-109112381D01*
X117527858Y-109112381D01*
X117623096Y-109160000D01*
X117670715Y-109207619D01*
X117718334Y-109302857D01*
X117718334Y-109445714D01*
X117670715Y-109540952D01*
X117623096Y-109588571D01*
X117527858Y-109636190D01*
X117146905Y-109636190D01*
X118051667Y-109112381D02*
X118670715Y-109112381D01*
X118337381Y-109493333D01*
X118480239Y-109493333D01*
X118575477Y-109540952D01*
X118623096Y-109588571D01*
X118670715Y-109683810D01*
X118670715Y-109921905D01*
X118623096Y-110017143D01*
X118575477Y-110064762D01*
X118480239Y-110112381D01*
X118194524Y-110112381D01*
X118099286Y-110064762D01*
X118051667Y-110017143D01*
X117673334Y-105427381D02*
X117340000Y-104951190D01*
X117101905Y-105427381D02*
X117101905Y-104427381D01*
X117482858Y-104427381D01*
X117578096Y-104475000D01*
X117625715Y-104522619D01*
X117673334Y-104617857D01*
X117673334Y-104760714D01*
X117625715Y-104855952D01*
X117578096Y-104903571D01*
X117482858Y-104951190D01*
X117101905Y-104951190D01*
X118530477Y-104760714D02*
X118530477Y-105427381D01*
X118292381Y-104379762D02*
X118054286Y-105094048D01*
X118673334Y-105094048D01*
X117488334Y-101107381D02*
X117155000Y-100631190D01*
X116916905Y-101107381D02*
X116916905Y-100107381D01*
X117297858Y-100107381D01*
X117393096Y-100155000D01*
X117440715Y-100202619D01*
X117488334Y-100297857D01*
X117488334Y-100440714D01*
X117440715Y-100535952D01*
X117393096Y-100583571D01*
X117297858Y-100631190D01*
X116916905Y-100631190D01*
X118393096Y-100107381D02*
X117916905Y-100107381D01*
X117869286Y-100583571D01*
X117916905Y-100535952D01*
X118012143Y-100488333D01*
X118250239Y-100488333D01*
X118345477Y-100535952D01*
X118393096Y-100583571D01*
X118440715Y-100678810D01*
X118440715Y-100916905D01*
X118393096Y-101012143D01*
X118345477Y-101059762D01*
X118250239Y-101107381D01*
X118012143Y-101107381D01*
X117916905Y-101059762D01*
X117869286Y-101012143D01*
X121948334Y-95757381D02*
X121615000Y-95281190D01*
X121376905Y-95757381D02*
X121376905Y-94757381D01*
X121757858Y-94757381D01*
X121853096Y-94805000D01*
X121900715Y-94852619D01*
X121948334Y-94947857D01*
X121948334Y-95090714D01*
X121900715Y-95185952D01*
X121853096Y-95233571D01*
X121757858Y-95281190D01*
X121376905Y-95281190D01*
X122805477Y-94757381D02*
X122615000Y-94757381D01*
X122519762Y-94805000D01*
X122472143Y-94852619D01*
X122376905Y-94995476D01*
X122329286Y-95185952D01*
X122329286Y-95566905D01*
X122376905Y-95662143D01*
X122424524Y-95709762D01*
X122519762Y-95757381D01*
X122710239Y-95757381D01*
X122805477Y-95709762D01*
X122853096Y-95662143D01*
X122900715Y-95566905D01*
X122900715Y-95328810D01*
X122853096Y-95233571D01*
X122805477Y-95185952D01*
X122710239Y-95138333D01*
X122519762Y-95138333D01*
X122424524Y-95185952D01*
X122376905Y-95233571D01*
X122329286Y-95328810D01*
X133947501Y-131010586D02*
X133471310Y-131343920D01*
X133947501Y-131582015D02*
X132947501Y-131582015D01*
X132947501Y-131201062D01*
X132995120Y-131105824D01*
X133042739Y-131058205D01*
X133137977Y-131010586D01*
X133280834Y-131010586D01*
X133376072Y-131058205D01*
X133423691Y-131105824D01*
X133471310Y-131201062D01*
X133471310Y-131582015D01*
X132947501Y-130677253D02*
X132947501Y-130010586D01*
X133947501Y-130439158D01*
X131277381Y-114081666D02*
X130801190Y-114415000D01*
X131277381Y-114653095D02*
X130277381Y-114653095D01*
X130277381Y-114272142D01*
X130325000Y-114176904D01*
X130372619Y-114129285D01*
X130467857Y-114081666D01*
X130610714Y-114081666D01*
X130705952Y-114129285D01*
X130753571Y-114176904D01*
X130801190Y-114272142D01*
X130801190Y-114653095D01*
X130705952Y-113510238D02*
X130658333Y-113605476D01*
X130610714Y-113653095D01*
X130515476Y-113700714D01*
X130467857Y-113700714D01*
X130372619Y-113653095D01*
X130325000Y-113605476D01*
X130277381Y-113510238D01*
X130277381Y-113319761D01*
X130325000Y-113224523D01*
X130372619Y-113176904D01*
X130467857Y-113129285D01*
X130515476Y-113129285D01*
X130610714Y-113176904D01*
X130658333Y-113224523D01*
X130705952Y-113319761D01*
X130705952Y-113510238D01*
X130753571Y-113605476D01*
X130801190Y-113653095D01*
X130896429Y-113700714D01*
X131086905Y-113700714D01*
X131182143Y-113653095D01*
X131229762Y-113605476D01*
X131277381Y-113510238D01*
X131277381Y-113319761D01*
X131229762Y-113224523D01*
X131182143Y-113176904D01*
X131086905Y-113129285D01*
X130896429Y-113129285D01*
X130801190Y-113176904D01*
X130753571Y-113224523D01*
X130705952Y-113319761D01*
X138608334Y-145712381D02*
X138275000Y-145236190D01*
X138036905Y-145712381D02*
X138036905Y-144712381D01*
X138417858Y-144712381D01*
X138513096Y-144760000D01*
X138560715Y-144807619D01*
X138608334Y-144902857D01*
X138608334Y-145045714D01*
X138560715Y-145140952D01*
X138513096Y-145188571D01*
X138417858Y-145236190D01*
X138036905Y-145236190D01*
X139084524Y-145712381D02*
X139275000Y-145712381D01*
X139370239Y-145664762D01*
X139417858Y-145617143D01*
X139513096Y-145474286D01*
X139560715Y-145283810D01*
X139560715Y-144902857D01*
X139513096Y-144807619D01*
X139465477Y-144760000D01*
X139370239Y-144712381D01*
X139179762Y-144712381D01*
X139084524Y-144760000D01*
X139036905Y-144807619D01*
X138989286Y-144902857D01*
X138989286Y-145140952D01*
X139036905Y-145236190D01*
X139084524Y-145283810D01*
X139179762Y-145331429D01*
X139370239Y-145331429D01*
X139465477Y-145283810D01*
X139513096Y-145236190D01*
X139560715Y-145140952D01*
X137962143Y-149282381D02*
X137628809Y-148806190D01*
X137390714Y-149282381D02*
X137390714Y-148282381D01*
X137771667Y-148282381D01*
X137866905Y-148330000D01*
X137914524Y-148377619D01*
X137962143Y-148472857D01*
X137962143Y-148615714D01*
X137914524Y-148710952D01*
X137866905Y-148758571D01*
X137771667Y-148806190D01*
X137390714Y-148806190D01*
X138914524Y-149282381D02*
X138343095Y-149282381D01*
X138628809Y-149282381D02*
X138628809Y-148282381D01*
X138533571Y-148425238D01*
X138438333Y-148520476D01*
X138343095Y-148568095D01*
X139533571Y-148282381D02*
X139628810Y-148282381D01*
X139724048Y-148330000D01*
X139771667Y-148377619D01*
X139819286Y-148472857D01*
X139866905Y-148663333D01*
X139866905Y-148901429D01*
X139819286Y-149091905D01*
X139771667Y-149187143D01*
X139724048Y-149234762D01*
X139628810Y-149282381D01*
X139533571Y-149282381D01*
X139438333Y-149234762D01*
X139390714Y-149187143D01*
X139343095Y-149091905D01*
X139295476Y-148901429D01*
X139295476Y-148663333D01*
X139343095Y-148472857D01*
X139390714Y-148377619D01*
X139438333Y-148330000D01*
X139533571Y-148282381D01*
X134954762Y-164082381D02*
X134621428Y-163606190D01*
X134383333Y-164082381D02*
X134383333Y-163082381D01*
X134764286Y-163082381D01*
X134859524Y-163130000D01*
X134907143Y-163177619D01*
X134954762Y-163272857D01*
X134954762Y-163415714D01*
X134907143Y-163510952D01*
X134859524Y-163558571D01*
X134764286Y-163606190D01*
X134383333Y-163606190D01*
X135240476Y-163082381D02*
X135573809Y-164082381D01*
X135907143Y-163082381D01*
X136764286Y-164082381D02*
X136192857Y-164082381D01*
X136478571Y-164082381D02*
X136478571Y-163082381D01*
X136383333Y-163225238D01*
X136288095Y-163320476D01*
X136192857Y-163368095D01*
X120774762Y-164162381D02*
X120441428Y-163686190D01*
X120203333Y-164162381D02*
X120203333Y-163162381D01*
X120584286Y-163162381D01*
X120679524Y-163210000D01*
X120727143Y-163257619D01*
X120774762Y-163352857D01*
X120774762Y-163495714D01*
X120727143Y-163590952D01*
X120679524Y-163638571D01*
X120584286Y-163686190D01*
X120203333Y-163686190D01*
X121060476Y-163162381D02*
X121393809Y-164162381D01*
X121727143Y-163162381D01*
X122012857Y-163257619D02*
X122060476Y-163210000D01*
X122155714Y-163162381D01*
X122393810Y-163162381D01*
X122489048Y-163210000D01*
X122536667Y-163257619D01*
X122584286Y-163352857D01*
X122584286Y-163448095D01*
X122536667Y-163590952D01*
X121965238Y-164162381D01*
X122584286Y-164162381D01*
X147642143Y-139047143D02*
X147594524Y-139094762D01*
X147451667Y-139142381D01*
X147356429Y-139142381D01*
X147213571Y-139094762D01*
X147118333Y-138999524D01*
X147070714Y-138904286D01*
X147023095Y-138713810D01*
X147023095Y-138570952D01*
X147070714Y-138380476D01*
X147118333Y-138285238D01*
X147213571Y-138190000D01*
X147356429Y-138142381D01*
X147451667Y-138142381D01*
X147594524Y-138190000D01*
X147642143Y-138237619D01*
X148594524Y-139142381D02*
X148023095Y-139142381D01*
X148308809Y-139142381D02*
X148308809Y-138142381D01*
X148213571Y-138285238D01*
X148118333Y-138380476D01*
X148023095Y-138428095D01*
X149499286Y-138142381D02*
X149023095Y-138142381D01*
X148975476Y-138618571D01*
X149023095Y-138570952D01*
X149118333Y-138523333D01*
X149356429Y-138523333D01*
X149451667Y-138570952D01*
X149499286Y-138618571D01*
X149546905Y-138713810D01*
X149546905Y-138951905D01*
X149499286Y-139047143D01*
X149451667Y-139094762D01*
X149356429Y-139142381D01*
X149118333Y-139142381D01*
X149023095Y-139094762D01*
X148975476Y-139047143D01*
X126642143Y-123381666D02*
X126689762Y-123429285D01*
X126737381Y-123572142D01*
X126737381Y-123667380D01*
X126689762Y-123810238D01*
X126594524Y-123905476D01*
X126499286Y-123953095D01*
X126308810Y-124000714D01*
X126165952Y-124000714D01*
X125975476Y-123953095D01*
X125880238Y-123905476D01*
X125785000Y-123810238D01*
X125737381Y-123667380D01*
X125737381Y-123572142D01*
X125785000Y-123429285D01*
X125832619Y-123381666D01*
X125737381Y-122524523D02*
X125737381Y-122715000D01*
X125785000Y-122810238D01*
X125832619Y-122857857D01*
X125975476Y-122953095D01*
X126165952Y-123000714D01*
X126546905Y-123000714D01*
X126642143Y-122953095D01*
X126689762Y-122905476D01*
X126737381Y-122810238D01*
X126737381Y-122619761D01*
X126689762Y-122524523D01*
X126642143Y-122476904D01*
X126546905Y-122429285D01*
X126308810Y-122429285D01*
X126213571Y-122476904D01*
X126165952Y-122524523D01*
X126118333Y-122619761D01*
X126118333Y-122810238D01*
X126165952Y-122905476D01*
X126213571Y-122953095D01*
X126308810Y-123000714D01*
X129698334Y-104822143D02*
X129650715Y-104869762D01*
X129507858Y-104917381D01*
X129412620Y-104917381D01*
X129269762Y-104869762D01*
X129174524Y-104774524D01*
X129126905Y-104679286D01*
X129079286Y-104488810D01*
X129079286Y-104345952D01*
X129126905Y-104155476D01*
X129174524Y-104060238D01*
X129269762Y-103965000D01*
X129412620Y-103917381D01*
X129507858Y-103917381D01*
X129650715Y-103965000D01*
X129698334Y-104012619D01*
X130031667Y-103917381D02*
X130698334Y-103917381D01*
X130269762Y-104917381D01*
X122918334Y-146257143D02*
X122870715Y-146304762D01*
X122727858Y-146352381D01*
X122632620Y-146352381D01*
X122489762Y-146304762D01*
X122394524Y-146209524D01*
X122346905Y-146114286D01*
X122299286Y-145923810D01*
X122299286Y-145780952D01*
X122346905Y-145590476D01*
X122394524Y-145495238D01*
X122489762Y-145400000D01*
X122632620Y-145352381D01*
X122727858Y-145352381D01*
X122870715Y-145400000D01*
X122918334Y-145447619D01*
X123489762Y-145780952D02*
X123394524Y-145733333D01*
X123346905Y-145685714D01*
X123299286Y-145590476D01*
X123299286Y-145542857D01*
X123346905Y-145447619D01*
X123394524Y-145400000D01*
X123489762Y-145352381D01*
X123680239Y-145352381D01*
X123775477Y-145400000D01*
X123823096Y-145447619D01*
X123870715Y-145542857D01*
X123870715Y-145590476D01*
X123823096Y-145685714D01*
X123775477Y-145733333D01*
X123680239Y-145780952D01*
X123489762Y-145780952D01*
X123394524Y-145828571D01*
X123346905Y-145876190D01*
X123299286Y-145971429D01*
X123299286Y-146161905D01*
X123346905Y-146257143D01*
X123394524Y-146304762D01*
X123489762Y-146352381D01*
X123680239Y-146352381D01*
X123775477Y-146304762D01*
X123823096Y-146257143D01*
X123870715Y-146161905D01*
X123870715Y-145971429D01*
X123823096Y-145876190D01*
X123775477Y-145828571D01*
X123680239Y-145780952D01*
X105983334Y-166487143D02*
X105935715Y-166534762D01*
X105792858Y-166582381D01*
X105697620Y-166582381D01*
X105554762Y-166534762D01*
X105459524Y-166439524D01*
X105411905Y-166344286D01*
X105364286Y-166153810D01*
X105364286Y-166010952D01*
X105411905Y-165820476D01*
X105459524Y-165725238D01*
X105554762Y-165630000D01*
X105697620Y-165582381D01*
X105792858Y-165582381D01*
X105935715Y-165630000D01*
X105983334Y-165677619D01*
X106459524Y-166582381D02*
X106650000Y-166582381D01*
X106745239Y-166534762D01*
X106792858Y-166487143D01*
X106888096Y-166344286D01*
X106935715Y-166153810D01*
X106935715Y-165772857D01*
X106888096Y-165677619D01*
X106840477Y-165630000D01*
X106745239Y-165582381D01*
X106554762Y-165582381D01*
X106459524Y-165630000D01*
X106411905Y-165677619D01*
X106364286Y-165772857D01*
X106364286Y-166010952D01*
X106411905Y-166106190D01*
X106459524Y-166153810D01*
X106554762Y-166201429D01*
X106745239Y-166201429D01*
X106840477Y-166153810D01*
X106888096Y-166106190D01*
X106935715Y-166010952D01*
X126322143Y-137487143D02*
X126274524Y-137534762D01*
X126131667Y-137582381D01*
X126036429Y-137582381D01*
X125893571Y-137534762D01*
X125798333Y-137439524D01*
X125750714Y-137344286D01*
X125703095Y-137153810D01*
X125703095Y-137010952D01*
X125750714Y-136820476D01*
X125798333Y-136725238D01*
X125893571Y-136630000D01*
X126036429Y-136582381D01*
X126131667Y-136582381D01*
X126274524Y-136630000D01*
X126322143Y-136677619D01*
X127274524Y-137582381D02*
X126703095Y-137582381D01*
X126988809Y-137582381D02*
X126988809Y-136582381D01*
X126893571Y-136725238D01*
X126798333Y-136820476D01*
X126703095Y-136868095D01*
X127893571Y-136582381D02*
X127988810Y-136582381D01*
X128084048Y-136630000D01*
X128131667Y-136677619D01*
X128179286Y-136772857D01*
X128226905Y-136963333D01*
X128226905Y-137201429D01*
X128179286Y-137391905D01*
X128131667Y-137487143D01*
X128084048Y-137534762D01*
X127988810Y-137582381D01*
X127893571Y-137582381D01*
X127798333Y-137534762D01*
X127750714Y-137487143D01*
X127703095Y-137391905D01*
X127655476Y-137201429D01*
X127655476Y-136963333D01*
X127703095Y-136772857D01*
X127750714Y-136677619D01*
X127798333Y-136630000D01*
X127893571Y-136582381D01*
X105722143Y-87357857D02*
X105769762Y-87405476D01*
X105817381Y-87548333D01*
X105817381Y-87643571D01*
X105769762Y-87786429D01*
X105674524Y-87881667D01*
X105579286Y-87929286D01*
X105388810Y-87976905D01*
X105245952Y-87976905D01*
X105055476Y-87929286D01*
X104960238Y-87881667D01*
X104865000Y-87786429D01*
X104817381Y-87643571D01*
X104817381Y-87548333D01*
X104865000Y-87405476D01*
X104912619Y-87357857D01*
X105817381Y-86405476D02*
X105817381Y-86976905D01*
X105817381Y-86691191D02*
X104817381Y-86691191D01*
X104960238Y-86786429D01*
X105055476Y-86881667D01*
X105103095Y-86976905D01*
X105817381Y-85453095D02*
X105817381Y-86024524D01*
X105817381Y-85738810D02*
X104817381Y-85738810D01*
X104960238Y-85834048D01*
X105055476Y-85929286D01*
X105103095Y-86024524D01*
X111867143Y-92487143D02*
X111819524Y-92534762D01*
X111676667Y-92582381D01*
X111581429Y-92582381D01*
X111438571Y-92534762D01*
X111343333Y-92439524D01*
X111295714Y-92344286D01*
X111248095Y-92153810D01*
X111248095Y-92010952D01*
X111295714Y-91820476D01*
X111343333Y-91725238D01*
X111438571Y-91630000D01*
X111581429Y-91582381D01*
X111676667Y-91582381D01*
X111819524Y-91630000D01*
X111867143Y-91677619D01*
X112819524Y-92582381D02*
X112248095Y-92582381D01*
X112533809Y-92582381D02*
X112533809Y-91582381D01*
X112438571Y-91725238D01*
X112343333Y-91820476D01*
X112248095Y-91868095D01*
X113200476Y-91677619D02*
X113248095Y-91630000D01*
X113343333Y-91582381D01*
X113581429Y-91582381D01*
X113676667Y-91630000D01*
X113724286Y-91677619D01*
X113771905Y-91772857D01*
X113771905Y-91868095D01*
X113724286Y-92010952D01*
X113152857Y-92582381D01*
X113771905Y-92582381D01*
X129297143Y-91962143D02*
X129249524Y-92009762D01*
X129106667Y-92057381D01*
X129011429Y-92057381D01*
X128868571Y-92009762D01*
X128773333Y-91914524D01*
X128725714Y-91819286D01*
X128678095Y-91628810D01*
X128678095Y-91485952D01*
X128725714Y-91295476D01*
X128773333Y-91200238D01*
X128868571Y-91105000D01*
X129011429Y-91057381D01*
X129106667Y-91057381D01*
X129249524Y-91105000D01*
X129297143Y-91152619D01*
X130249524Y-92057381D02*
X129678095Y-92057381D01*
X129963809Y-92057381D02*
X129963809Y-91057381D01*
X129868571Y-91200238D01*
X129773333Y-91295476D01*
X129678095Y-91343095D01*
X130582857Y-91057381D02*
X131201905Y-91057381D01*
X130868571Y-91438333D01*
X131011429Y-91438333D01*
X131106667Y-91485952D01*
X131154286Y-91533571D01*
X131201905Y-91628810D01*
X131201905Y-91866905D01*
X131154286Y-91962143D01*
X131106667Y-92009762D01*
X131011429Y-92057381D01*
X130725714Y-92057381D01*
X130630476Y-92009762D01*
X130582857Y-91962143D01*
X122117143Y-152417143D02*
X122069524Y-152464762D01*
X121926667Y-152512381D01*
X121831429Y-152512381D01*
X121688571Y-152464762D01*
X121593333Y-152369524D01*
X121545714Y-152274286D01*
X121498095Y-152083810D01*
X121498095Y-151940952D01*
X121545714Y-151750476D01*
X121593333Y-151655238D01*
X121688571Y-151560000D01*
X121831429Y-151512381D01*
X121926667Y-151512381D01*
X122069524Y-151560000D01*
X122117143Y-151607619D01*
X123069524Y-152512381D02*
X122498095Y-152512381D01*
X122783809Y-152512381D02*
X122783809Y-151512381D01*
X122688571Y-151655238D01*
X122593333Y-151750476D01*
X122498095Y-151798095D01*
X123926667Y-151845714D02*
X123926667Y-152512381D01*
X123688571Y-151464762D02*
X123450476Y-152179048D01*
X124069524Y-152179048D01*
M02*
